<svg width="1269" height="284" viewBox="0 0 1269 284" fill="none" xmlns="http://www.w3.org/2000/svg">
<path d="M982.21 38.8656C987.13 43.7824 993.222 49.6356 998.611 54.0841C999.08 54.3182 999.314 54.7865 999.783 55.0206C1001.19 55.9571 1002.36 57.1278 1003.77 58.0643C1004.47 58.5326 1005.17 59.0008 1005.87 59.7032C1007.05 60.6397 1008.45 61.5763 1009.62 62.2786C1010.33 62.7469 1011.26 63.4493 1011.97 63.9176C1013.14 64.8541 1014.54 65.5565 1015.72 66.2589C1016.65 66.7271 1017.59 67.4295 1018.29 67.8978C1019.46 68.6002 1020.87 69.3026 1022.04 70.2391C1022.98 70.7073 1023.92 71.4097 1024.85 71.878C1026.02 72.5804 1027.43 73.2828 1028.84 73.9852C1053.44 86.8623 1081.56 94.1204 1111.31 94.1204C1179.5 93.8862 1238.77 55.9571 1269 0C1269 0.23413 1269 0.23413 1269 0.46826C1269 78.6678 1205.5 142.117 1127.25 142.117C1103.11 142.117 1080.38 136.03 1060.47 125.494C1089.05 174.661 1023.68 284 1023.68 284L1021.57 150.546C1009.39 164.359 991.348 172.788 971.666 172.788C954.327 172.788 938.395 166.232 926.445 155.228C728.925 -5.85326 522.736 237.876 249.301 222.424C261.017 261.523 97.4712 283.766 97.4712 283.766L192.131 211.888C160.968 199.245 138.475 170.213 135.194 135.561C83.6472 200.415 0 189.645 0 189.645L55.2961 94.1204C75.2122 59.7032 106.843 38.3974 133.086 38.3974V103.72C133.086 121.748 147.847 136.498 165.889 136.498C183.93 136.498 198.691 121.748 198.691 103.72C198.691 69.5367 172.449 41.4411 139.178 38.3974L982.21 38.8656ZM97.2368 101.613C102.626 101.613 107.078 97.1641 107.078 91.7791C107.078 86.3941 102.626 81.9456 97.2368 81.9456C91.8478 81.9456 87.3961 86.3941 87.3961 91.7791C87.6304 97.1641 92.0822 101.613 97.2368 101.613Z" fill="#FF7F00"/>
</svg>
