<svg width="218" height="353" viewBox="0 0 218 353" fill="none" xmlns="http://www.w3.org/2000/svg">
<path d="M56.2011 353H70.464H91.6621H159.771C159.771 353 149.499 323.212 125.16 350.84C125.16 350.84 191.044 226.187 182.604 134.138C187.053 128.901 190.325 123.663 192.811 118.557C193.138 119.473 193.465 120.324 193.923 121.241C198.961 131.52 209.756 134.793 218 128.508L199.681 91.1909L172.463 93.2859C159.967 65.3307 141.255 56.0342 141.255 56.0342L160.163 25.5913L156.369 14.4616L134.909 20.943C134.647 20.3538 134.385 19.6991 134.058 19.1099C124.768 0.385824 105.074 -5.37542 90.0264 6.278C74.5858 -6.16105 56.7245 3.72473 56.7245 3.72473C56.7245 3.72473 65.6879 14.4616 79.7545 61.2717C106.579 150.44 103.308 224.223 72.7539 344.293C41.2839 339.383 16.6837 306.059 15.7023 265.927C15.3097 249.494 18.8427 234.109 25.1891 221.146C9.87935 235.287 0 258.005 0 283.669C0 284.585 0 285.567 0.0654262 286.484C1.11224 323.801 26.3013 353 56.2011 353ZM118.487 18.3897C121.954 18.3897 124.768 21.2049 124.768 24.6747C124.768 28.1445 121.954 30.9597 118.487 30.9597C115.019 30.9597 112.206 28.1445 112.206 24.6747C112.271 21.2049 115.085 18.3897 118.487 18.3897Z" fill="#1F1646"/>
</svg>
