<svg width="241" height="355" viewBox="0 0 241 355" fill="none" xmlns="http://www.w3.org/2000/svg">
<path d="M156.952 1.2692L217.517 124.008C217.517 124.008 197.748 81.3517 160.478 81.3517C138.38 81.3517 114.519 92.1889 114.519 92.1889L108.035 79.0834L69.5047 1.01715L55.0246 54.2585C55.0246 54.2585 50.2398 6.93985 11.836 26.2201C21.7832 27.7953 33.3673 44.9964 28.2678 63.0795C21.5943 86.7073 0 146.942 0 146.942H35.6338C35.6338 146.942 65.1607 127.599 76.1152 113.8C60.6278 151.794 0.0630186 353.922 0.0630186 353.922H31.2897L66.9235 222.236C67.8678 219.527 70.3231 217.763 73.0303 217.763C77.9409 217.763 81.0889 223.244 78.8224 227.844L31.3527 353.985H59.7463L105.579 225.954C107.972 220.976 112.819 217.763 118.108 217.763C130.258 217.763 136.995 229.356 129.692 240.445L59.6834 354.048H91.2249L172.503 225.702C175.462 220.472 181.38 216.881 185.912 217.826C192.397 219.212 193.404 225.198 188.934 231.435L91.162 354.048H125.537C188.431 280.581 241 221.165 241 136.672C241 -13.3486 156.952 1.2692 156.952 1.2692ZM55.906 94.0792C52.3804 94.0792 49.5473 91.2438 49.5473 87.7154C49.5473 84.187 52.3804 81.3517 55.906 81.3517C59.4316 81.3517 62.2646 84.187 62.2646 87.7154C62.2646 91.2438 59.4316 94.0792 55.906 94.0792Z" fill="#1F1646"/>
</svg>
