<svg width="149" height="102" viewBox="0 0 149 102" fill="none" xmlns="http://www.w3.org/2000/svg">
<g clip-path="url(#clip0_4394_2130)">
<path d="M40.4719 98.0261C36.6872 96.4161 32.9072 94.7944 29.1319 93.1608C28.8994 93.0257 28.6421 92.9385 28.3753 92.9043C26.9664 92.9203 27.1228 91.6895 26.794 90.8923C26.4652 90.0951 26.9346 89.548 27.6488 89.1509C28.3631 88.7539 28.9425 88.3229 29.6036 87.9357C32.6909 86.0595 35.7656 84.1623 38.8873 82.338C39.9469 81.7241 40.7504 82.1969 41.1162 83.3628C41.5484 84.7888 40.6257 85.5667 39.72 86.2772C38.5676 87.1808 37.304 87.9437 36.0858 88.7738L36.1615 88.9003C36.3669 88.838 36.5883 88.8083 36.7971 88.7575C44.6266 86.7458 50.4546 81.9526 54.7525 75.3373C58.714 69.2351 60.5389 62.6594 57.4113 55.5045C57.2343 54.9311 57.1141 54.3417 57.0523 53.7448C57.6387 53.7851 58.2033 53.9832 58.6864 54.3181C59.1694 54.6531 59.5529 55.1123 59.7963 55.6473C61.0997 58.0116 61.9151 60.6136 62.194 63.2989C62.4729 65.9842 62.2098 68.6982 61.4201 71.2799C58.8007 80.5566 49.4216 91.4086 36.4533 93.1716C37.0963 93.4438 37.5987 93.6216 38.0749 93.8572C39.6185 94.635 41.1888 95.3362 42.6431 96.2096C43.0566 96.4642 43.1404 97.2547 43.3761 97.8061C42.8677 98.0468 42.3331 98.2276 41.783 98.3449C41.3266 98.3466 40.8766 98.2372 40.4719 98.0261Z" fill="#161345"/>
</g>
<path d="M1.88144 19H4.16144V12.016H12.3694V9.808H4.16144V4.384H13.3534V2.2H1.88144V19ZM14.8758 4.024C14.8758 4.888 15.5478 5.56 16.4118 5.56C17.2518 5.56 17.9238 4.888 17.9238 4.024C17.9238 3.184 17.2518 2.488 16.4118 2.488C15.5478 2.488 14.8758 3.184 14.8758 4.024ZM15.2838 19H17.5638V7.432H15.2838V19ZM20.44 19H22.72V12.76C22.72 10.504 23.896 9.136 25.696 9.136C27.352 9.136 28.144 10.072 28.144 11.968V19H30.424V11.512C30.424 8.776 28.936 7.072 26.392 7.072C24.76 7.072 23.512 7.744 22.72 8.776V7.432H20.44V19ZM32.6357 13.216C32.6357 16.672 34.8918 19.36 38.0838 19.36C39.8838 19.36 41.2278 18.616 42.1158 17.44V19H44.3958V2.2H42.1158V8.992C41.2278 7.84 39.8838 7.072 38.0838 7.072C34.8918 7.072 32.6357 9.808 32.6357 13.216ZM34.9158 13.216C34.9158 10.936 36.4038 9.256 38.5398 9.256C40.6278 9.256 42.1158 10.936 42.1158 13.216C42.1158 15.52 40.6278 17.176 38.5398 17.176C36.3798 17.176 34.9158 15.496 34.9158 13.216ZM52.1736 9.448H54.2856V14.968C54.2856 17.704 55.9656 19.36 58.7256 19.36C61.1256 19.36 62.9736 17.608 62.8296 14.8L60.6456 14.584C60.7416 16.24 59.9496 17.272 58.6536 17.272C57.3576 17.272 56.5656 16.504 56.5656 15.016V9.448H62.4216V7.432H56.5656V3.976H54.2856V7.432H52.1736V9.448ZM64.9009 19H67.1809V12.76C67.1809 10.504 68.3569 9.136 70.1569 9.136C71.8129 9.136 72.6049 10.072 72.6049 11.968V19H74.8849V11.512C74.8849 8.776 73.3969 7.072 70.8529 7.072C69.2209 7.072 67.9729 7.744 67.1809 8.776V2.2H64.9009V19ZM77.1201 13.24C77.1201 16.744 79.4241 19.36 82.9281 19.36C85.7121 19.36 87.9441 17.608 88.3281 15.04L86.1681 14.656C85.9281 16.264 84.6081 17.32 82.9761 17.32C80.9361 17.32 79.4961 15.904 79.2561 13.648H87.9921V12.544C87.9921 9.352 85.9761 7.072 82.8081 7.072C79.3761 7.072 77.1201 9.76 77.1201 13.24ZM79.3761 11.824C79.7841 10.192 81.0801 9.064 82.8081 9.064C84.6561 9.064 85.8561 10.288 85.9041 11.824H79.3761ZM96.4947 19H98.7747V12.52C98.7747 10.336 99.7827 9.184 101.175 9.184C102.327 9.184 103.047 9.952 103.047 11.512C103.047 11.704 103.047 11.896 103.023 12.088L105.327 11.752C105.447 8.584 103.935 7.072 101.799 7.072C100.431 7.072 99.4227 7.672 98.7747 8.608V7.432H96.4947V19ZM106.845 4.024C106.845 4.888 107.517 5.56 108.381 5.56C109.221 5.56 109.893 4.888 109.893 4.024C109.893 3.184 109.221 2.488 108.381 2.488C107.517 2.488 106.845 3.184 106.845 4.024ZM107.253 19H109.533V7.432H107.253V19ZM111.785 12.904C111.785 16.12 114.041 18.616 117.209 18.616C118.841 18.616 120.065 17.944 120.905 16.84V18.712C120.905 21.208 119.441 22.72 117.281 22.72C115.265 22.72 114.017 21.304 114.065 19.432L111.833 19.72C111.761 22.792 114.137 24.736 117.257 24.736C120.785 24.736 123.185 22.216 123.185 18.64V7.432H120.905V8.944C120.065 7.84 118.841 7.144 117.209 7.12C114.041 7.12 111.785 9.712 111.785 12.904ZM114.065 12.904C114.065 10.84 115.481 9.304 117.497 9.304C119.513 9.304 120.905 10.84 120.905 12.904C120.905 14.968 119.513 16.48 117.497 16.48C115.457 16.48 114.065 14.968 114.065 12.904ZM126.073 19H128.353V12.76C128.353 10.504 129.529 9.136 131.329 9.136C132.985 9.136 133.777 10.072 133.777 11.968V19H136.057V11.512C136.057 8.776 134.569 7.072 132.025 7.072C130.393 7.072 129.145 7.744 128.353 8.776V2.2H126.073V19ZM137.439 9.448H139.551V14.968C139.551 17.704 141.231 19.36 143.991 19.36C146.391 19.36 148.239 17.608 148.095 14.8L145.911 14.584C146.007 16.24 145.215 17.272 143.919 17.272C142.623 17.272 141.831 16.504 141.831 15.016V9.448H147.687V7.432H141.831V3.976H139.551V7.432H137.439V9.448ZM9.7105 38.896C10.1425 41.512 12.1585 43.36 14.9425 43.36C17.7265 43.36 19.6465 41.824 19.6465 39.544C19.6465 37.432 18.1825 36.112 14.9905 35.8C13.1905 35.632 12.7825 35.104 12.7825 34.384C12.7825 33.64 13.5745 33.184 14.7505 33.184C15.9265 33.184 16.8865 33.88 17.1745 35.2L19.1665 34.576C18.6385 32.392 16.8145 31.072 14.7505 31.072C12.3025 31.072 10.5025 32.464 10.5025 34.408C10.5025 36.4 11.8225 37.72 14.7025 38.008C16.8145 38.248 17.3905 38.872 17.3905 39.64C17.3905 40.576 16.5265 41.248 14.9425 41.248C13.2145 41.248 12.1345 40.12 11.8705 38.488L9.7105 38.896ZM31.6656 31.432H29.3856V37.672C29.3856 39.928 28.2096 41.296 26.4096 41.296C24.7536 41.296 23.9616 40.36 23.9616 38.464V31.432H21.6816V38.92C21.6816 41.656 23.1696 43.36 25.7136 43.36C27.3456 43.36 28.5936 42.688 29.3856 41.656V43H31.6656V31.432ZM34.5494 48.4H36.8294V41.44C37.7174 42.616 39.0614 43.36 40.8614 43.36C44.0534 43.36 46.3094 40.648 46.3094 37.216C46.3094 33.76 44.0534 31.072 40.8614 31.072C39.0614 31.072 37.7174 31.816 36.8294 32.992V31.432H34.5494V48.4ZM36.8294 37.216C36.8294 34.912 38.3174 33.256 40.4054 33.256C42.5654 33.256 44.0294 34.936 44.0294 37.216C44.0294 39.496 42.5414 41.176 40.4054 41.176C38.3174 41.176 36.8294 39.496 36.8294 37.216ZM48.5416 48.4H50.8216V41.44C51.7096 42.616 53.0536 43.36 54.8536 43.36C58.0456 43.36 60.3016 40.648 60.3016 37.216C60.3016 33.76 58.0456 31.072 54.8536 31.072C53.0536 31.072 51.7096 31.816 50.8216 32.992V31.432H48.5416V48.4ZM50.8216 37.216C50.8216 34.912 52.3096 33.256 54.3976 33.256C56.5576 33.256 58.0216 34.936 58.0216 37.216C58.0216 39.496 56.5336 41.176 54.3976 41.176C52.3096 41.176 50.8216 39.496 50.8216 37.216ZM62.5338 43H64.8138V26.2H62.5338V43ZM67.0186 37.24C67.0186 40.744 69.3226 43.36 72.8266 43.36C75.6106 43.36 77.8426 41.608 78.2266 39.04L76.0666 38.656C75.8266 40.264 74.5066 41.32 72.8746 41.32C70.8346 41.32 69.3946 39.904 69.1546 37.648H77.8906V36.544C77.8906 33.352 75.8746 31.072 72.7066 31.072C69.2746 31.072 67.0186 33.76 67.0186 37.24ZM69.2746 35.824C69.6826 34.192 70.9786 33.064 72.7066 33.064C74.5546 33.064 75.7546 34.288 75.8026 35.824H69.2746ZM80.4634 43H82.6714V36.52C82.6714 34.264 83.6074 33.136 85.0234 33.136C86.2954 33.136 86.9434 33.808 86.9434 35.536V43H89.1274L89.0794 36.208C89.1754 34.144 90.0874 33.136 91.4314 33.136C92.7034 33.136 93.3514 33.808 93.3514 35.536V43H95.5594L95.5114 34.984C95.5114 32.344 94.2394 31.072 92.1034 31.072C90.5434 31.072 89.4394 31.864 88.7914 33.136C88.3114 31.792 87.2074 31.072 85.6474 31.072C84.3034 31.072 83.2954 31.744 82.6714 32.8V31.456H80.4634V43ZM97.792 37.24C97.792 40.744 100.096 43.36 103.6 43.36C106.384 43.36 108.616 41.608 109 39.04L106.84 38.656C106.6 40.264 105.28 41.32 103.648 41.32C101.608 41.32 100.168 39.904 99.928 37.648H108.664V36.544C108.664 33.352 106.648 31.072 103.48 31.072C100.048 31.072 97.792 33.76 97.792 37.24ZM100.048 35.824C100.456 34.192 101.752 33.064 103.48 33.064C105.328 33.064 106.528 34.288 106.576 35.824H100.048ZM111.237 43H113.517V36.76C113.517 34.504 114.693 33.136 116.493 33.136C118.149 33.136 118.941 34.072 118.941 35.968V43H121.221V35.512C121.221 32.776 119.733 31.072 117.189 31.072C115.557 31.072 114.309 31.744 113.517 32.776V31.432H111.237V43ZM122.58 33.448H124.692V38.968C124.692 41.704 126.372 43.36 129.132 43.36C131.532 43.36 133.38 41.608 133.236 38.8L131.052 38.584C131.148 40.24 130.356 41.272 129.06 41.272C127.764 41.272 126.972 40.504 126.972 39.016V33.448H132.828V31.432H126.972V27.976H124.692V31.432H122.58V33.448ZM135.832 38.368H138.112V26.2H135.832V38.368ZM135.424 41.608C135.424 42.52 136.12 43.192 137.008 43.192C137.824 43.192 138.52 42.52 138.52 41.608C138.52 40.792 137.824 40.12 137.008 40.12C136.12 40.12 135.424 40.792 135.424 41.608Z" fill="#161345"/>
<defs>
<clipPath id="clip0_4394_2130">
<rect width="38.3196" height="42.2654" fill="white" transform="matrix(-0.290048 -0.957012 -0.957012 0.290048 70.5625 89.6724)"/>
</clipPath>
</defs>
</svg>
