<svg width="126" height="33" viewBox="0 0 126 33" fill="none" xmlns="http://www.w3.org/2000/svg">
<path d="M71.4276 10.7565C71.4276 6.90543 71.4912 3.31992 71.682 0L61.9505 1.92555V2.85513L62.9046 2.98793C63.6042 3.05433 64.0495 3.31992 64.3039 3.71831C64.5583 4.1831 64.7491 4.84708 64.8763 5.84306C65.0035 7.76861 65.1307 12.1509 65.0671 19.0563C65.0671 25.8954 65.0035 30.2113 64.8763 31.8712C68.3745 32.668 71.1095 33 73.1449 33C76.9611 33 79.9505 31.8712 82.1131 29.5473C84.2756 27.2897 85.4205 24.1026 85.4205 20.1851C85.4205 17.0644 84.5936 14.4748 82.9399 12.4165C81.2862 10.3581 79.1873 9.36217 76.7067 9.36217C75.053 9.36217 73.3357 9.82696 71.4276 10.7565ZM71.6184 31.2072C71.4912 29.0825 71.364 22.7082 71.364 12.2837C71.9364 12.0845 72.6996 11.9517 73.6537 11.9517C75.1802 11.9517 76.3887 12.7485 77.2791 14.4085C78.1696 16.0684 78.6148 18.0604 78.6148 20.5835C78.6148 23.7042 78.106 26.2274 77.0883 28.3521C76.0707 30.4105 74.7986 31.4728 73.2085 31.4728C72.6996 31.34 72.1908 31.2736 71.6184 31.2072ZM25.4417 0.663984H0V1.99195L1.33569 2.12475C2.35336 2.32394 3.053 2.72233 3.49823 3.31992C3.94346 3.9839 4.19788 5.04628 4.26148 6.50704C4.77032 13.6781 4.77032 20.3843 4.26148 26.5594C4.13427 28.0201 3.87986 29.0825 3.49823 29.7465C3.053 30.4105 2.35336 30.8089 1.33569 30.9416L0 31.1408V32.4688H16.4099V31.1408L14.6926 31.008C13.6749 30.8753 12.9753 30.4105 12.53 29.8129C12.0848 29.1489 11.8304 28.0865 11.7668 26.6258C11.576 23.9698 11.4488 20.9155 11.4488 17.5292L14.8834 17.5956C16.7279 17.662 18 19.1227 18.636 22.0443H19.9081V11.2213H18.636C18 14.0765 16.7915 15.5372 14.8834 15.6036L11.4488 15.67C11.4488 9.69417 11.576 5.44467 11.7668 2.85513H16.7915C20.3534 2.85513 22.7703 5.24547 24.1696 10.0262L25.6961 9.56137L25.4417 0.663984ZM22.4523 21.1147C22.4523 24.5674 23.4064 27.4225 25.2509 29.6801C27.0954 31.9376 29.8304 33 33.265 33C36.6996 33 39.4982 31.8712 41.5336 29.5473C43.5689 27.2897 44.523 24.4346 44.523 20.9819C44.523 17.5292 43.5689 14.674 41.7244 12.4165C39.8799 10.159 37.1449 9.09658 33.7102 9.09658C30.2756 9.09658 27.477 10.2254 25.4417 12.5493C23.4064 14.8068 22.4523 17.662 22.4523 21.1147ZM36.636 13.5453C37.3993 15.4708 37.7173 17.994 37.7173 21.0483C37.7173 28.0865 36.318 31.5392 33.583 31.5392C32.1837 31.5392 31.1025 30.5433 30.3392 28.5513C29.576 26.5594 29.2579 24.0362 29.2579 21.0483C29.2579 14.0765 30.6572 10.6237 33.3922 10.6237C34.7915 10.5573 35.8728 11.5533 36.636 13.5453ZM90.3816 29.6801C92.4806 31.8712 95.1519 33 98.3322 33C100.304 33 102.021 32.6016 103.548 31.7384C105.074 30.9416 106.283 29.9457 107.11 28.7505L106.473 27.9537C105.074 29.0825 103.484 29.6137 101.64 29.6137C99.0954 29.6137 97.1237 28.7505 95.788 26.9577C94.3887 25.165 93.7526 22.9074 93.8799 19.9859H107.491C107.491 16.7988 106.728 14.2093 105.138 12.1509C103.548 10.159 101.322 9.16298 98.4594 9.16298C94.8975 9.16298 92.1625 10.3581 90.1908 12.6821C88.2191 15.006 87.265 17.8612 87.265 21.2475C87.265 24.7002 88.2827 27.4889 90.3816 29.6801ZM95.0883 13.0141C95.788 11.4205 96.6784 10.6237 97.8869 10.6237C99.795 10.6237 100.749 13.1469 100.749 18.2596L94.0071 18.3924C94.0707 16.4004 94.3887 14.6076 95.0883 13.0141ZM124.601 10.3581C122.883 9.56137 120.721 9.09658 118.113 9.09658C115.442 9.09658 113.343 9.82696 111.753 11.2213C110.163 12.6157 109.336 14.3421 109.336 16.4004C109.336 18.1932 109.845 19.5875 110.799 20.5835C111.753 21.5795 113.279 22.4427 115.251 23.173C117.032 23.837 118.304 24.501 118.94 25.0986C119.576 25.7626 119.958 26.493 119.958 27.4889C119.958 28.4185 119.64 29.2817 118.94 29.9457C118.304 30.6761 117.413 31.008 116.269 31.008C113.47 31.008 111.371 28.8833 109.908 24.6338L108.827 24.9658L109.081 31.6056C111.371 32.5352 113.915 33 116.714 33C119.64 33 121.866 32.336 123.519 30.9416C125.173 29.6137 126 27.6881 126 25.2978C126 23.7042 125.618 22.3763 124.792 21.3803C123.965 20.3843 122.629 19.5211 120.721 18.7243C118.622 17.9276 117.159 17.1972 116.396 16.5332C115.632 15.8692 115.251 15.0724 115.251 14.0765C115.251 13.0805 115.505 12.2837 116.078 11.6197C116.65 10.9557 117.35 10.6901 118.24 10.6901C120.784 10.6901 122.629 12.6157 123.774 16.4004L124.855 16.0684L124.601 10.3581ZM63.4134 9.76056C62.523 9.29577 61.5689 9.09658 60.4876 9.09658C59.4064 9.09658 58.3251 9.56137 57.1166 10.4909C55.9081 11.4205 55.0177 12.6821 54.318 14.4085L54.3816 9.09658L44.7138 11.0885V12.0181L45.6678 12.0845C46.8763 12.2173 47.576 13.2133 47.7032 15.006C48.0848 19.1227 48.0848 23.505 47.7032 28.1529C47.576 29.9457 46.8763 30.8752 45.6678 31.0744L44.7138 31.2072V32.4688H58.1979V31.2072L56.4806 31.0744C55.2721 30.9416 54.5724 29.9457 54.4452 28.1529C54.0636 24.3018 54 20.1851 54.318 15.9356C54.6996 15.2716 55.5265 14.8732 56.7986 14.7404C58.0707 14.6076 59.5336 15.006 61.0601 15.9356L63.4134 9.76056Z" fill="#161345"/>
</svg>
