<svg width="188" height="35" viewBox="0 0 188 35" fill="none" xmlns="http://www.w3.org/2000/svg">
<path d="M69.7814 20.1364V18.7965C69.7824 18.7735 69.7788 18.7505 69.7707 18.7289C69.7626 18.7073 69.7502 18.6876 69.7343 18.671C69.7184 18.6543 69.6992 18.6411 69.678 18.632C69.6568 18.623 69.634 18.6183 69.611 18.6184H57.831C57.808 18.6183 57.7852 18.623 57.764 18.632C57.7428 18.6411 57.7237 18.6543 57.7077 18.671C57.6918 18.6876 57.6794 18.7073 57.6713 18.7289C57.6632 18.7505 57.6596 18.7735 57.6607 18.7965V20.1364C57.6624 20.1797 57.6799 20.2209 57.7098 20.2523C57.7397 20.2836 57.7801 20.303 57.8233 20.3067C60.3869 20.4771 61.0684 20.632 61.0684 23.4047C61.0684 26.4562 60.5495 29.283 56.8242 29.283C52.6033 29.283 50.4657 25.3022 50.4657 17.4644C50.4657 11.7487 52.2083 5.64572 57.103 5.64572C60.0693 5.64572 62.1449 7.69811 65.4133 12.0043C65.4346 12.034 65.465 12.0561 65.4998 12.0673C65.5347 12.0784 65.5722 12.0781 65.6069 12.0662L66.7531 11.648C66.7936 11.6323 66.8269 11.6024 66.8468 11.5639C66.8668 11.5254 66.872 11.481 66.8616 11.4389L64.7472 4.07352C64.7379 4.04877 64.7234 4.0263 64.7047 4.0076C64.686 3.9889 64.6635 3.97441 64.6388 3.96509C64.6152 3.95149 64.5885 3.94434 64.5613 3.94434C64.5341 3.94434 64.5074 3.95149 64.4839 3.96509C63.6376 4.52452 62.6669 4.8676 61.657 4.96418C60.9452 4.89827 60.2477 4.72325 59.5891 4.44527C58.6991 4.13647 57.7661 3.96921 56.8242 3.9496C48.9477 3.9496 44.0762 11.4389 44.0762 18.3783C44.0762 26.0379 48.9012 30.9792 56.375 30.9792C58.1942 30.924 59.993 30.5789 61.7035 29.9568L61.8584 29.9181C63.325 29.3712 64.8877 29.1287 66.4511 29.2056C66.493 29.2021 66.5324 29.1838 66.5622 29.154C66.5919 29.1243 66.6102 29.0849 66.6137 29.043V23.9004C66.6137 21.3058 66.908 20.6165 69.6187 20.3222C69.6418 20.3213 69.6645 20.3156 69.6853 20.3057C69.7061 20.2957 69.7247 20.2816 69.7399 20.2642C69.7551 20.2468 69.7667 20.2265 69.7738 20.2045C69.7809 20.1826 69.7835 20.1594 69.7814 20.1364Z" fill="#161345"/>
<path d="M83.7531 15.3893C83.7531 13.9952 82.7308 12.5005 81.2128 12.5005C79.1914 12.5005 77.2784 14.7388 76.0392 16.28V12.7793C76.0396 12.7533 76.0334 12.7276 76.0213 12.7045C76.0091 12.6815 75.9913 12.662 75.9695 12.6476C75.9472 12.6347 75.9218 12.6279 75.896 12.6279C75.8701 12.6279 75.8448 12.6347 75.8224 12.6476L68.3486 14.7155C68.3124 14.7244 68.2804 14.7453 68.2579 14.7749C68.2353 14.8045 68.2236 14.841 68.2247 14.8782V15.9547C68.2255 15.9966 68.2405 16.0371 68.2672 16.0694C68.2939 16.1017 68.3308 16.1241 68.3718 16.1328C70.2926 16.3652 70.6953 17.5579 70.6953 19.2927V26.2631C70.6953 28.8112 69.8821 28.9351 68.4415 28.9351C68.3943 28.9351 68.349 28.9539 68.3156 28.9873C68.2822 29.0207 68.2634 29.066 68.2634 29.1132V30.2052C68.2634 30.2283 68.268 30.2511 68.2771 30.2723C68.2861 30.2935 68.2994 30.3126 68.316 30.3286C68.3327 30.3445 68.3524 30.3569 68.3739 30.365C68.3955 30.373 68.4185 30.3767 68.4415 30.3756H78.3395C78.3854 30.3757 78.4296 30.358 78.4628 30.3262C78.496 30.2945 78.5156 30.2511 78.5176 30.2052V29.121C78.5176 29.0976 78.513 29.0744 78.504 29.0528C78.4951 29.0312 78.482 29.0115 78.4654 28.995C78.4489 28.9785 78.4292 28.9653 78.4076 28.9564C78.386 28.9474 78.3629 28.9428 78.3395 28.9428C76.8989 28.9428 76.1399 28.6175 76.016 26.8595V19.1611C76.5194 18.3866 77.7431 16.9848 78.3395 16.9848C78.7533 17.0376 79.1546 17.1634 79.5244 17.3565C80.0881 17.6386 80.7007 17.8095 81.329 17.8599C81.6513 17.86 81.9703 17.7958 82.2675 17.6711C82.5647 17.5463 82.834 17.3636 83.0598 17.1336C83.2855 16.9035 83.4631 16.6308 83.5821 16.3313C83.7012 16.0318 83.7593 15.7116 83.7531 15.3893Z" fill="#161345"/>
<path d="M116.398 27.8349C116.382 27.7931 116.351 27.759 116.31 27.7402C116.27 27.7213 116.223 27.7192 116.181 27.7343C115.924 27.8485 115.649 27.9167 115.368 27.9356C114.477 27.9356 114.4 27.3393 114.369 26.3867V18.758C114.369 17.2555 114.369 15.5438 112.704 14.173C111.155 12.9493 108.328 12.8486 107.491 12.8486C101.055 12.8486 99.3593 15.7142 99.3593 17.2322C99.3949 17.824 99.6553 18.3797 100.087 18.7858C100.519 19.1918 101.09 19.4173 101.683 19.4163C103.27 19.4163 104.076 17.7976 104.417 16.8372L104.463 16.7133C104.928 15.4432 105.331 14.3434 106.864 14.3434C107.115 14.3276 107.366 14.3642 107.602 14.4509C107.838 14.5376 108.054 14.6724 108.235 14.8468C109.009 15.6213 109.009 17.1703 109.009 18.2623V19.3078C105.695 19.8422 98.337 21.0892 98.0427 25.9452C97.152 26.8668 95.363 28.3538 93.1324 28.3538C89.655 28.3538 87.4787 25.0468 87.4012 21.9256H98.9333C98.9793 21.9257 99.0234 21.908 99.0566 21.8762C99.0898 21.8445 99.1095 21.8011 99.1115 21.7552C99.1648 20.556 98.9771 19.3582 98.5594 18.2327C98.1417 17.1073 97.5025 16.0771 96.6796 15.2031C95.9257 14.4447 95.0254 13.8477 94.0334 13.4483C93.0415 13.0489 91.9787 12.8554 90.9097 12.8796C89.6549 12.8551 88.4112 13.1172 87.273 13.646C86.1349 14.1748 85.1325 14.9563 84.342 15.9311C82.8484 17.7291 82.027 19.9909 82.0186 22.3283C82.0186 27.1611 85.9452 30.8477 91.1575 30.8477C92.4799 30.883 93.7949 30.6383 95.0162 30.1298C96.2375 29.6213 97.3375 28.8603 98.244 27.8969C98.8636 29.7789 100.684 30.8477 103.278 30.8477C105.393 30.8793 107.452 30.1727 109.102 28.8495C109.462 29.4565 109.973 29.9597 110.585 30.31C111.197 30.6603 111.89 30.8455 112.595 30.8477C113.389 30.8124 114.164 30.5967 114.862 30.2169C115.56 29.8371 116.162 29.3032 116.623 28.6559C116.636 28.6307 116.642 28.6029 116.642 28.5746C116.642 28.5463 116.636 28.5184 116.623 28.4933L116.398 27.8349ZM105.85 28.3538C104.432 28.3538 103.588 27.378 103.588 25.7438C103.588 22.5529 106.492 21.4996 109.009 21.1821V26.5493C108.591 27.0295 107.306 28.3538 105.85 28.3538ZM87.3315 20.0823C87.409 17.999 88.2687 14.6609 91.0878 14.6609C93.3415 14.6609 94.2864 16.2099 94.3174 20.0823H87.3315Z" fill="#161345"/>
<path d="M126.644 26.727C126.611 26.7006 126.57 26.6862 126.527 26.6862C126.485 26.6862 126.444 26.7006 126.411 26.727C125.714 27.4029 124.813 27.8302 123.848 27.9429C122.469 27.9429 121.795 27.1684 121.795 25.6195V15.1097H126.52C126.567 15.1097 126.612 15.0909 126.646 15.0575C126.679 15.0241 126.698 14.9788 126.698 14.9316V13.2974C126.698 13.2744 126.693 13.2515 126.684 13.2304C126.675 13.2092 126.662 13.19 126.645 13.1741C126.629 13.1582 126.609 13.1458 126.587 13.1377C126.566 13.1296 126.543 13.126 126.52 13.127H121.873V7.21768C121.873 7.17175 121.855 7.12758 121.823 7.09439C121.792 7.06119 121.748 7.04155 121.702 7.03955H120.378C120.342 7.04205 120.307 7.05511 120.278 7.07714C120.249 7.09916 120.227 7.12918 120.215 7.16347L120.13 7.43454C119.116 10.5325 118.388 12.732 114.174 13.127C114.133 13.1325 114.094 13.1526 114.066 13.1838C114.037 13.215 114.021 13.2553 114.02 13.2974V14.9316C114.02 14.9788 114.038 15.0241 114.072 15.0575C114.105 15.0909 114.15 15.1097 114.198 15.1097H116.451V25.7821C116.421 26.4532 116.532 27.1232 116.777 27.7487C117.022 28.3742 117.396 28.9412 117.874 29.4129C118.352 29.8847 118.925 30.2506 119.553 30.487C120.182 30.7234 120.854 30.8251 121.524 30.7853C122.678 30.7229 123.805 30.4142 124.83 29.8798C125.855 29.3455 126.753 28.5979 127.465 27.6874C127.492 27.655 127.508 27.6138 127.508 27.5712C127.508 27.5285 127.492 27.4873 127.465 27.455L126.644 26.727Z" fill="#161345"/>
<path d="M143.203 18.6888C148.493 18.6888 154.565 17.8678 154.565 11.4628C154.565 9.84414 153.79 4.57764 143.652 4.57764H131.144C131.121 4.57761 131.098 4.58226 131.077 4.59131C131.056 4.60035 131.037 4.6136 131.021 4.63025C131.005 4.6469 130.993 4.66661 130.984 4.68818C130.976 4.70976 130.973 4.73275 130.974 4.75577V5.90201C130.974 5.9472 130.992 5.99054 131.024 6.02249C131.056 6.05444 131.099 6.0724 131.144 6.0724C133.599 6.0724 134.343 6.78492 134.343 9.10064V25.8528C134.343 28.1762 133.568 28.881 131.144 28.881C131.099 28.881 131.056 28.899 131.024 28.9309C130.992 28.9629 130.974 29.0062 130.974 29.0514V30.2054C130.973 30.2284 130.976 30.2514 130.984 30.273C130.993 30.2945 131.005 30.3143 131.021 30.3309C131.037 30.3476 131.056 30.3608 131.077 30.3699C131.098 30.3789 131.121 30.3835 131.144 30.3835H143.59C143.613 30.3835 143.636 30.3789 143.657 30.3699C143.678 30.3608 143.698 30.3476 143.713 30.3309C143.729 30.3143 143.742 30.2945 143.75 30.273C143.758 30.2514 143.762 30.2284 143.761 30.2054V29.0514C143.761 29.0062 143.743 28.9629 143.711 28.9309C143.679 28.899 143.635 28.881 143.59 28.881C141.135 28.881 140.392 28.1685 140.392 25.8528V18.6965H143.203V18.6888ZM143.033 6.297C146.44 6.297 148.175 8.06283 148.175 11.548C148.175 15.4204 146.464 16.9694 142.266 16.9694H140.392V9.53435C140.392 7.17217 140.392 6.28151 143.033 6.28151V6.297Z" fill="#161345"/>
<path d="M168.126 25.8596C168.094 25.8279 168.051 25.8102 168.006 25.8102C167.961 25.8102 167.918 25.8279 167.886 25.8596C167.003 26.789 165.183 28.3457 162.906 28.3457C159.429 28.3457 157.252 25.0387 157.175 21.9175H168.707C168.73 21.9175 168.753 21.9129 168.774 21.9038C168.795 21.8948 168.814 21.8815 168.83 21.8649C168.846 21.8482 168.859 21.8285 168.867 21.8069C168.875 21.7854 168.878 21.7624 168.877 21.7394C168.932 20.5418 168.746 19.3454 168.329 18.2212C167.913 17.097 167.275 16.0679 166.453 15.195C165.699 14.4349 164.797 13.8369 163.804 13.4374C162.81 13.0378 161.746 12.8453 160.675 12.8715C159.426 12.8454 158.187 13.1047 157.053 13.6294C155.919 14.1541 154.92 14.9306 154.131 15.8997C152.641 17.7031 151.821 19.9657 151.808 22.3047C151.808 27.1375 155.742 30.8241 160.947 30.8241C164.215 30.8241 166.616 29.6391 168.97 26.8665C168.987 26.8512 169 26.8327 169.009 26.812C169.018 26.7913 169.023 26.769 169.023 26.7464C169.023 26.7238 169.018 26.7015 169.009 26.6808C169 26.6602 168.987 26.6416 168.97 26.6264L168.126 25.8596ZM157.105 20.082C157.183 17.9986 158.042 14.6606 160.854 14.6606C163.115 14.6606 164.06 16.2095 164.083 20.082H157.105Z" fill="#161345"/>
<path d="M180.347 26.727C180.314 26.7006 180.273 26.6862 180.231 26.6862C180.189 26.6862 180.148 26.7006 180.115 26.727C179.416 27.4014 178.515 27.8285 177.551 27.9429C176.172 27.9429 175.499 27.1684 175.499 25.6195V15.1097H180.223C180.246 15.1097 180.269 15.1051 180.29 15.096C180.311 15.087 180.33 15.0737 180.346 15.0571C180.362 15.0404 180.375 15.0207 180.383 14.9991C180.391 14.9776 180.394 14.9546 180.393 14.9316V13.2974C180.393 13.2522 180.375 13.2089 180.344 13.1769C180.312 13.145 180.268 13.127 180.223 13.127H175.576V7.21768C175.576 7.17175 175.558 7.12758 175.527 7.09439C175.495 7.06119 175.452 7.04155 175.406 7.03955H174.081C174.045 7.04101 174.01 7.05368 173.98 7.07585C173.951 7.09802 173.93 7.12861 173.919 7.16347L173.826 7.43454C172.819 10.5325 172.091 12.732 167.878 13.127C167.836 13.1325 167.797 13.1526 167.769 13.1838C167.741 13.215 167.724 13.2553 167.723 13.2974V14.9316C167.722 14.9546 167.725 14.9776 167.734 14.9991C167.742 15.0207 167.754 15.0404 167.77 15.0571C167.786 15.0737 167.805 15.087 167.826 15.096C167.847 15.1051 167.87 15.1097 167.893 15.1097H170.155V25.7821C170.124 26.4532 170.235 27.1232 170.48 27.7487C170.725 28.3742 171.099 28.9412 171.577 29.4129C172.056 29.8847 172.628 30.2506 173.257 30.487C173.885 30.7234 174.557 30.8251 175.228 30.7853C176.381 30.722 177.508 30.4128 178.533 29.8785C179.557 29.3442 180.456 28.5971 181.168 27.6874C181.196 27.655 181.211 27.6138 181.211 27.5712C181.211 27.5285 181.196 27.4873 181.168 27.455L180.347 26.727Z" fill="#161345"/>
<path d="M182.903 27.1064H184.855V27.4008H184.081V29.5538H183.74V27.362H182.965V27.1064H182.903Z" fill="#161345"/>
<path d="M185.041 27.1064H185.474L185.986 28.4386C186.086 28.7019 186.233 29.213 186.233 29.213C186.233 29.213 186.381 28.7174 186.481 28.4386L186.977 27.1064H187.434V29.5538H187.109V28.0358C187.109 27.819 187.109 27.4085 187.109 27.4085C187.062 27.5973 187.005 27.7835 186.938 27.9661L186.342 29.5151H186.079L185.482 27.9661C185.412 27.7802 185.312 27.4085 185.312 27.4085C185.312 27.4085 185.312 27.819 185.312 28.0358V29.5151H185.01V27.1064H185.041Z" fill="#161345"/>
<path fill-rule="evenodd" clip-rule="evenodd" d="M34.9448 17.4724C34.9448 20.9281 33.9201 24.3062 32.0002 27.1796C30.0803 30.0529 27.3515 32.2924 24.1588 33.6148C20.9662 34.9373 17.453 35.2833 14.0637 34.6091C10.6744 33.9349 7.56112 32.2708 5.11756 29.8273C2.674 27.3837 1.00991 24.2704 0.335735 20.8811C-0.338441 17.4918 0.00757054 13.9787 1.33002 10.786C2.65246 7.59334 4.89194 4.86452 7.76527 2.94463C10.6386 1.02474 14.0167 0 17.4724 0C22.1064 0 26.5506 1.84084 29.8273 5.11755C33.104 8.39426 34.9448 12.8384 34.9448 17.4724ZM11.4469 19.4861C11.4454 20.0311 11.2824 20.5634 10.9785 21.0158C10.6746 21.4682 10.2435 21.8203 9.73951 22.0278C9.23557 22.2353 8.68144 22.2888 8.14711 22.1816C7.61279 22.0743 7.12223 21.8111 6.73741 21.4252C6.35258 21.0393 6.09076 20.548 5.985 20.0134C5.87924 19.4788 5.93429 18.9248 6.1432 18.4214C6.35211 17.9181 6.7055 17.4879 7.15875 17.1853C7.61199 16.8827 8.14476 16.7212 8.68974 16.7212C9.05247 16.7212 9.41164 16.7927 9.74666 16.9318C10.0817 17.0708 10.386 17.2746 10.6421 17.5314C10.8982 17.7883 11.1012 18.0932 11.2393 18.4286C11.3774 18.764 11.4479 19.1233 11.4469 19.4861ZM20.4155 10.5485C20.9626 10.55 21.498 10.3892 21.9537 10.0863C22.4094 9.78342 22.765 9.35214 22.9754 8.84705C23.1859 8.34197 23.2417 7.78579 23.1359 7.24894C23.0301 6.71209 22.7674 6.21871 22.381 5.83125C21.9947 5.44379 21.502 5.17969 20.9655 5.07238C20.4289 4.96506 19.8726 5.01936 19.3669 5.2284C18.8612 5.43744 18.429 5.79182 18.1248 6.24668C17.8207 6.70153 17.6583 7.23641 17.6583 7.78359C17.6573 8.14631 17.7278 8.50568 17.8659 8.84109C18.004 9.1765 18.207 9.48136 18.4631 9.73821C18.7192 9.99506 19.0235 10.1988 19.3585 10.3379C19.6936 10.4769 20.0527 10.5485 20.4155 10.5485ZM16.272 8.09338C16.272 8.6387 16.1103 9.17177 15.8073 9.62518C15.5043 10.0786 15.0737 10.432 14.5699 10.6407C14.0661 10.8494 13.5117 10.904 12.9769 10.7976C12.4421 10.6912 11.9508 10.4286 11.5652 10.043C11.1796 9.6574 10.917 9.16612 10.8106 8.63128C10.7042 8.09644 10.7588 7.54206 10.9675 7.03826C11.1762 6.53445 11.5296 6.10384 11.983 5.80088C12.4364 5.49792 12.9695 5.33621 13.5148 5.33621C14.246 5.33621 14.9473 5.6267 15.4644 6.14377C15.9815 6.66084 16.272 7.36213 16.272 8.09338ZM8.79043 15.4897C9.3376 15.4913 9.87293 15.3304 10.3286 15.0275C10.7843 14.7246 11.1399 14.2934 11.3504 13.7883C11.5608 13.2832 11.6167 12.727 11.5109 12.1902C11.4051 11.6533 11.1424 11.1599 10.756 10.7725C10.3696 10.385 9.87699 10.1209 9.34043 10.0136C8.80388 9.90629 8.24755 9.96059 7.74188 10.1696C7.23621 10.3787 6.80393 10.733 6.49977 11.1879C6.19561 11.6428 6.03326 12.1776 6.03326 12.7248C6.03224 13.0875 6.1028 13.4469 6.2409 13.7823C6.37901 14.1177 6.58194 14.4226 6.83807 14.6794C7.0942 14.9363 7.39849 15.1401 7.73351 15.2791C8.06853 15.4182 8.4277 15.4897 8.79043 15.4897ZM15.7608 12.3298C16.1868 12.2446 20.3535 12.2059 21.2597 12.2059C24.9694 12.2059 27.9744 14.9553 27.9744 18.3398C27.9744 21.7243 25.1398 24.3111 21.5772 24.466H21.4765C21.4765 24.466 21.4765 25.5658 21.4765 25.6355C21.4765 25.7052 21.4765 25.7981 21.4765 25.8833C21.4116 26.9519 20.9423 27.9556 20.1641 28.6907C19.3859 29.4257 18.357 29.837 17.2865 29.841C16.7226 29.8391 16.1647 29.7259 15.6446 29.5079C14.8857 29.1843 14.2388 28.6446 13.7844 27.9561C13.3299 27.2675 13.088 26.4605 13.0888 25.6355C13.0888 22.2355 13.0888 15.2496 13.1353 15.0173C13.2339 14.3486 13.5419 13.7283 14.015 13.2454C14.4881 12.7626 15.102 12.4421 15.7685 12.3298H15.7608Z" fill="#161345"/>
</svg>
