<svg width="122" height="51" viewBox="0 0 122 51" fill="none" xmlns="http://www.w3.org/2000/svg">
<path d="M73.5872 20.1914H71.7624V22.7872H79.4717V20.1914H78.2005V14.9149C78.2005 13.2978 79.1232 12.0638 80.3124 12.0638C80.825 12.0638 81.2145 12.2127 81.4811 12.4893C81.8707 12.8936 82.0347 13.5106 82.0347 14.3617V20.1914H80.7225V22.7872H88.4523V20.1914H86.6685V13.9574C86.6685 11.1489 85.6023 8.99998 82.5063 8.99998C80.3124 8.99998 79.0002 10.3617 78.2005 12.2127V3.10637H71.7624V5.70211H73.5667V20.1914H73.5872ZM95.7311 23.1063C99.6882 23.1063 101.411 21.1063 101.821 18.3191H99.3602C98.8681 19.9361 97.9659 20.5957 96.4487 20.5957C94.5213 20.5957 93.4142 19.8085 93.2501 16.7446H102.005C102.231 12.0638 100.057 9.02125 95.485 9.02125C91.4868 9.02125 88.4933 12.0638 88.4933 16.1914C88.4933 20.4042 91.2818 23.1063 95.7311 23.1063ZM95.4235 11.1276C96.7152 11.1276 97.3918 11.9574 97.5149 14.8085H93.2296C93.3731 12 94.1728 11.1276 95.4235 11.1276ZM74.3664 24.9787H67.7847V27.5744H69.7326V33.1701C68.9329 31.8084 67.6822 30.8935 65.8369 30.8935C64.4837 30.8935 63.3354 31.4042 62.4948 32.2978C61.3466 33.4893 60.6495 35.4467 60.6495 37.9573C60.6495 40.319 61.2236 42.3616 62.4128 43.5956C63.2329 44.4467 64.2786 44.9999 65.6934 44.9999C67.9693 44.9999 69.343 43.6595 70.0606 41.8509V44.702H76.1707V42.1063H74.3664V24.9787ZM67.7232 42.2339C66.1239 42.2339 65.5908 40.8297 65.5908 38.1063C65.5908 35.2127 66.1649 33.702 67.7232 33.702C69.3635 33.702 70.0606 35.5318 70.0606 37.9786C70.0606 40.319 69.2815 42.2339 67.7232 42.2339ZM83.5519 30.8935C79.4922 30.8935 76.3142 33.8297 76.3142 37.9999C76.3142 42.1914 79.3487 44.9786 83.5314 44.9786C87.5911 44.9786 90.7692 42.0424 90.7692 37.8722C90.7692 33.6808 87.7347 30.8935 83.5519 30.8935ZM83.6135 42.8722C82.0142 42.8722 81.3581 41.5531 81.3581 37.9573C81.3581 34.3829 81.9117 32.9999 83.4699 32.9999C85.0692 32.9999 85.7253 34.3191 85.7253 37.9148C85.7253 41.5105 85.1717 42.8722 83.6135 42.8722ZM105.245 24.9787H98.6631V27.5744H100.611V33.1701C99.8113 31.8084 98.5605 30.8935 96.7152 30.8935C95.362 30.8935 94.2138 31.4042 93.3731 32.2978C92.2249 33.4893 91.5278 35.4467 91.5278 37.9573C91.5278 40.319 92.1019 42.3616 93.2911 43.5956C94.1113 44.4467 95.157 44.9999 96.5717 44.9999C98.8476 44.9999 100.221 43.6595 100.939 41.8509V44.702H107.049V42.1063H105.245V24.9787ZM98.6015 42.2339C97.0023 42.2339 96.4692 40.8297 96.4692 38.1063C96.4692 35.2127 97.0433 33.702 98.6015 33.702C100.242 33.702 100.939 35.5318 100.939 37.9786C100.939 40.319 100.16 42.2339 98.6015 42.2339ZM114.287 30.8935C110.227 30.8935 107.049 33.8297 107.049 37.9999C107.049 42.1914 110.084 44.9786 114.266 44.9786C118.326 44.9786 121.504 42.0424 121.504 37.8722C121.504 33.6808 118.449 30.8935 114.287 30.8935ZM114.348 42.8722C112.749 42.8722 112.093 41.5531 112.093 37.9573C112.093 34.3829 112.646 32.9999 114.205 32.9999C115.804 32.9999 116.46 34.3191 116.46 37.9148C116.46 41.5105 115.907 42.8722 114.348 42.8722ZM68.1538 20.1489C67.3131 20.1489 66.8826 19.4468 66.8826 18.234V11.9149H71.0038V9.46806H66.8826V5.38296L62.3923 6.38296V9.44678H60.0754V11.8936H62.2693V18.0425C62.2693 21.4893 63.7455 23.085 66.8211 23.085C69.466 23.085 70.7782 21.7872 71.4138 18.8936L69.548 18.4042C69.1995 19.6808 68.8714 20.1489 68.1538 20.1489ZM49.1675 25.5106C49.1675 11.4255 38.1571 0 24.5838 0C11.0104 0.0212765 0 11.4255 0 25.5106C0 31.3616 1.90683 36.7446 5.08488 41.0424C7.66833 40.3403 10.2928 39.9361 12.9172 39.851L11.7075 37.1914C11.7075 37.1914 7.5043 29.6169 6.76617 24.085C6.66365 23.3616 6.60214 22.6382 6.60214 21.8723C6.60214 14.3191 12.5072 8.19147 19.7859 8.19147C22.5539 8.19147 25.1579 9.10636 27.2902 10.5957L38.0136 19.3404C38.1366 19.3191 38.2596 19.2978 38.3826 19.2978C38.4851 19.2978 38.5877 19.2978 38.6902 19.2765C38.7722 19.2765 38.8747 19.2553 38.9567 19.2553H39.0387C39.1413 19.2553 39.2643 19.2553 39.3668 19.2765C39.4898 19.2765 39.6129 19.2978 39.7154 19.2978C39.7769 19.2978 39.8589 19.3191 39.9204 19.3404C40.0844 19.3616 40.228 19.3829 40.392 19.4255C40.433 19.4255 40.4535 19.4468 40.4945 19.4468C40.679 19.4893 40.8636 19.5531 41.0481 19.617H41.0686C41.0891 19.617 41.1301 19.6382 41.1506 19.6595C41.6017 19.8297 42.0323 20.0425 42.4423 20.2978C42.4628 20.3191 42.5038 20.3404 42.5244 20.3616C42.6474 20.4468 42.7499 20.5319 42.8729 20.617C42.9139 20.6595 42.9549 20.6808 43.0164 20.7233L43.324 20.9787C43.365 21.0212 43.4265 21.0638 43.4675 21.1276C43.5495 21.2127 43.652 21.2978 43.7341 21.3829C43.7751 21.4467 43.8366 21.4893 43.8776 21.5531C44.7182 22.5106 45.2923 23.7021 45.4974 25.0425V25.1063C45.5179 25.2765 45.5384 25.4467 45.5589 25.6382V25.851C45.5589 25.9574 45.5794 26.085 45.5794 26.1914V26.3404C45.5794 26.4893 45.5794 26.6382 45.5589 26.7872V26.8723C45.5589 26.9786 45.5384 27.085 45.5179 27.1914V27.2127C45.4974 27.3616 45.4769 27.5106 45.4359 27.6595V27.702C45.2718 28.4467 44.9848 29.1914 44.5952 29.8297C44.5747 29.851 44.5542 29.8935 44.5337 29.9148C44.2262 30.3829 43.8366 30.7659 43.406 31.0212C43.0984 31.1914 42.7499 31.3829 42.4423 31.1488C42.2168 30.9786 42.0733 30.702 41.9092 30.4893C41.7862 30.3403 41.6632 30.2127 41.5402 30.085C40.1254 31.5105 38.0341 32.1063 36.0247 31.4042C35.1226 31.085 34.3639 30.5531 33.7693 29.8723C33.1337 30.0212 27.0647 31.3403 25.814 31.5957C27.4132 32.9786 28.869 34.5318 30.1812 36.2339C32.8877 39.6807 34.9175 43.702 36.1272 48.085C43.8571 43.7871 49.1675 35.2978 49.1675 25.5106Z" fill="#161345"/>
<path d="M18.2482 50.1704C20.8522 44.4258 24.9939 39.596 30.1198 36.2343C28.8076 34.5534 27.3518 33.0003 25.7525 31.596C25.65 31.6173 25.568 31.6386 25.5475 31.6386H25.5065C25.0554 31.7024 24.5838 31.7449 24.1123 31.7449H23.6407C18.1047 31.4896 13.6965 26.745 13.6965 20.9365C13.6965 15.1705 18.0227 10.4684 23.4972 10.1493H24.6248C24.6864 10.1493 24.7479 10.1493 24.7889 10.1705C24.8709 10.1705 24.9734 10.1918 25.0554 10.1918C25.2194 10.2131 25.404 10.2344 25.568 10.2556C25.6295 10.2556 25.7115 10.2769 25.773 10.2769C25.9781 10.2982 26.1626 10.3408 26.3471 10.3833C26.3882 10.3833 26.4292 10.4046 26.4497 10.4046C26.7367 10.4684 27.0238 10.5535 27.3108 10.6386C25.1989 9.12799 22.5745 8.23438 19.8065 8.23438C12.5278 8.23438 6.62273 14.362 6.62273 21.9152C6.62273 22.6599 6.68424 23.4045 6.78676 24.1279C7.52489 29.6811 11.7281 37.2343 11.7281 37.2343L12.9378 39.8939C10.3134 39.979 7.68892 40.3832 5.10547 41.0853C8.34503 45.447 12.9378 48.7023 18.2482 50.1704Z" fill="#423D9B"/>
<path d="M26.306 10.3615C26.1214 10.3189 25.9164 10.2764 25.7319 10.2551C25.6704 10.2338 25.5883 10.2338 25.5268 10.2338C25.3628 10.2125 25.1988 10.1913 25.0142 10.17C24.9322 10.17 24.8297 10.1487 24.7477 10.1487C24.6862 10.1487 24.6247 10.1274 24.5837 10.1274H23.456C17.9815 10.4679 13.6553 15.17 13.6553 20.9146C13.6553 26.7231 18.0635 31.4678 23.5995 31.7231H24.0711C24.5427 31.7231 25.0142 31.6806 25.4653 31.6167H25.5063C25.5473 31.6167 25.6088 31.5955 25.7114 31.5742C26.9621 31.3189 33.0311 29.9997 33.6667 29.8508C32.7236 28.7657 32.1905 27.3189 32.2725 25.8295V25.8082C32.293 25.2763 32.3955 24.7444 32.539 24.2125C32.539 24.1912 32.5595 24.17 32.5595 24.1487L32.6211 23.9572C32.6416 23.8934 32.6826 23.8083 32.7031 23.7444C32.7441 23.6593 32.7646 23.5742 32.8056 23.4891C32.8466 23.3614 32.9081 23.2551 32.9696 23.1274C33.0106 23.0423 33.0516 22.9785 33.0721 22.9146C33.1336 22.787 33.1952 22.6806 33.2772 22.5529C33.3182 22.4891 33.3387 22.4466 33.3797 22.3827C33.4617 22.2551 33.5437 22.1274 33.6257 22.021C33.6462 21.9785 33.6872 21.9359 33.7282 21.8934C33.8308 21.7657 33.9333 21.638 34.0358 21.5317L34.1178 21.4466C34.2203 21.3189 34.3433 21.2125 34.4664 21.0849C34.5074 21.0636 34.5279 21.021 34.5689 20.9998L34.938 20.6806C35.266 20.4253 35.6146 20.1912 35.9836 19.9998H36.0041L36.5577 19.7444C36.5782 19.7444 36.5987 19.7232 36.6397 19.7232C36.8038 19.6593 36.9883 19.5955 37.1523 19.5529C37.1933 19.5317 37.2549 19.5317 37.3164 19.5104C37.4599 19.4678 37.6034 19.4253 37.7674 19.404C37.8495 19.3827 37.9315 19.3827 38.0135 19.3615H38.034L27.3106 10.6168C27.0236 10.5317 26.7365 10.4466 26.4495 10.3828C26.388 10.3828 26.347 10.3615 26.306 10.3615ZM27.8642 19.0423C27.8642 20.2763 27.1056 21.3402 26.0394 21.7232C25.7524 21.8295 25.4243 21.8934 25.0963 21.8934C23.579 21.8934 22.3283 20.6168 22.3283 19.021C22.3283 17.4466 23.5585 16.1487 25.0963 16.1487C25.6909 16.1487 26.2239 16.3402 26.675 16.6593C27.3926 17.2125 27.8642 18.0636 27.8642 19.0423Z" fill="#FFA817"/>
<path d="M22.3486 19.0422C22.3486 20.6167 23.5788 21.9146 25.1166 21.9146C25.4447 21.9146 25.7727 21.8507 26.0598 21.7444C27.126 21.3401 27.8846 20.2975 27.8846 19.0635C27.8846 18.0848 27.413 17.2337 26.6954 16.7018C26.2443 16.3827 25.7112 16.1912 25.1166 16.1912C23.5788 16.1699 22.3486 17.4678 22.3486 19.0422ZM26.5314 17.9359C26.9414 18.1912 27.2285 18.6805 27.2285 19.2124C27.2285 19.8933 26.7979 20.4678 26.2033 20.638C26.0803 20.6805 25.9368 20.7018 25.7932 20.7018C24.9936 20.7018 24.3375 20.021 24.3375 19.1912C24.3375 18.3614 24.9936 17.6805 25.7932 17.6805C26.0598 17.7231 26.3058 17.8082 26.5314 17.9359Z" fill="#161345"/>
<path d="M24.3369 19.213C24.3369 20.0428 24.993 20.7236 25.7927 20.7236C25.9362 20.7236 26.0797 20.7023 26.2027 20.6598C26.7973 20.4683 27.2279 19.9151 27.2279 19.2343C27.2279 18.7024 26.9409 18.213 26.5308 17.9577C26.3053 17.8087 26.0592 17.7236 25.7722 17.7236C24.9725 17.7236 24.3369 18.3832 24.3369 19.213Z" fill="black"/>
<path d="M39.6948 29.2979C39.0182 29.0851 38.3621 28.8298 37.706 28.5957C36.7628 28.2553 35.8197 27.9149 34.897 27.4894C34.1999 27.1702 33.5233 26.8085 32.9082 26.3617C32.7441 26.2341 32.5801 26.1064 32.4366 25.9575L32.3341 25.8511C32.2726 27.3404 32.7851 28.7872 33.7283 29.8723C34.3229 30.5532 35.102 31.0851 35.9837 31.4042C37.9725 32.1064 40.0844 31.5106 41.4992 30.0851C41.4786 30.0638 41.4581 30.0426 41.4171 30.0213C40.9045 29.617 40.2894 29.4894 39.6948 29.2979Z" fill="#A92823"/>
<path d="M37.7469 19.4041C37.6034 19.4254 37.4393 19.4679 37.2958 19.5105C37.2343 19.5318 37.1933 19.5318 37.1318 19.553C36.9473 19.5956 36.7832 19.6594 36.6192 19.7232C36.5987 19.7232 36.5782 19.7445 36.5372 19.7445C36.3527 19.8296 36.1681 19.8935 35.9836 19.9998H35.9631C35.594 20.1913 35.2455 20.4254 34.9174 20.6807L34.5483 20.9998C34.5073 21.0211 34.4868 21.0637 34.4458 21.0849C34.3228 21.1913 34.2203 21.319 34.0973 21.4466L34.0153 21.5318C33.9127 21.6594 33.8102 21.7658 33.7077 21.8935C33.6667 21.936 33.6462 21.9786 33.6052 22.0211C33.5232 22.1488 33.4412 22.2764 33.3591 22.3828C33.3181 22.4466 33.2976 22.4892 33.2566 22.553C33.1951 22.6807 33.1131 22.7871 33.0516 22.9147C33.0106 22.9786 32.9696 23.0637 32.9491 23.1275C32.8876 23.2339 32.8466 23.3615 32.785 23.4892C32.744 23.5743 32.7235 23.6594 32.6825 23.7445C32.662 23.8083 32.621 23.8934 32.6005 23.9573L32.539 24.1488C32.539 24.17 32.5185 24.1913 32.5185 24.2126C32.375 24.7445 32.2725 25.2764 32.252 25.8083V25.8296C32.2725 25.8722 32.3545 25.936 32.3545 25.936C32.498 26.0849 32.662 26.2126 32.8261 26.3403C33.4617 26.7871 34.1383 27.1488 34.8149 27.4679C35.7376 27.8934 36.6807 28.2339 37.6239 28.5743C38.28 28.8083 38.9566 29.0636 39.6127 29.2764C40.2073 29.4679 40.8224 29.6168 41.3145 29.9998C41.335 30.0211 41.3555 30.0424 41.3965 30.0636C41.5401 30.1913 41.6631 30.319 41.7656 30.4679C41.9296 30.6807 42.0732 30.9573 42.2987 31.1275C42.6267 31.3615 42.9753 31.17 43.2624 30.9998C43.7134 30.7445 44.0825 30.3615 44.3901 29.8934C44.4106 29.8722 44.4311 29.8296 44.4516 29.8083C44.8616 29.1913 45.1282 28.4254 45.2922 27.6807V27.6381C45.3332 27.4892 45.3537 27.3402 45.3742 27.1913V27.17C45.3947 27.0637 45.3947 26.9573 45.4152 26.8509V26.7658C45.4357 26.6168 45.4357 26.4679 45.4357 26.319V26.17C45.4357 26.0637 45.4152 25.936 45.4152 25.8296V25.6168C45.3947 25.4466 45.3742 25.2551 45.3537 25.0849V25.0211C45.1487 23.702 44.5746 22.4892 43.7339 21.5318C43.6929 21.4679 43.6314 21.4254 43.5904 21.3615C43.5084 21.2764 43.4059 21.1913 43.3239 21.1062C43.2829 21.0637 43.2214 21.0211 43.1803 20.9573L42.8728 20.702C42.8318 20.6594 42.7908 20.6381 42.7293 20.5956C42.6267 20.5105 42.5037 20.4254 42.3807 20.3403C42.3602 20.319 42.3192 20.2977 42.2987 20.2764C41.8886 20.0211 41.458 19.8084 41.007 19.6381C40.9865 19.6381 40.9455 19.6169 40.925 19.5956H40.9044C40.7199 19.5318 40.5354 19.4679 40.3509 19.4254C40.3098 19.4254 40.2893 19.4041 40.2483 19.4041C40.0843 19.3615 39.9408 19.3403 39.7768 19.319C39.7152 19.2977 39.6332 19.2977 39.5717 19.2764C39.4487 19.2552 39.3257 19.2552 39.2232 19.2552C39.1206 19.2552 38.9976 19.2339 38.8951 19.2339H38.8131C38.7311 19.2339 38.6286 19.2339 38.5465 19.2552C38.444 19.2552 38.3415 19.2552 38.239 19.2764C38.116 19.2977 37.9929 19.2977 37.8699 19.319H37.8494C37.9109 19.3828 37.8289 19.3828 37.7469 19.4041Z" fill="#E83932"/>
<path d="M30.1196 36.2129C24.9937 39.5746 20.852 44.4256 18.248 50.149C20.2779 50.7022 22.3898 51.0001 24.5836 51.0001C28.7254 51.0001 32.6415 49.9363 36.0656 48.0426C34.8559 43.681 32.8261 39.6597 30.1196 36.2129Z" fill="#3059FF"/>
</svg>
