<svg width="132" height="32" viewBox="0 0 132 32" fill="none" xmlns="http://www.w3.org/2000/svg">
<path d="M120.053 5.02282H124.351V1.10979H127.398V5.02282H131.696V8.03206H127.398V11.9451H124.351V8.03206H120.053V5.02282ZM121.151 28.3566H132V31.6829H117.341V18.313H131.696V21.6403H121.15V23.4146H129.761V26.4238H121.15V28.3566H121.151ZM116.822 13.3709H102.315V0.00100983H106.125V10.0446H116.822V13.3709ZM107.633 22.8602C107.633 22.0675 107.145 21.6403 105.971 21.6403H99.4804V24.08H105.972C107.145 24.08 107.634 23.6519 107.634 22.8602H107.633ZM105.027 27.3266H99.4804V31.6829H95.6704V18.313H105.82C109.706 18.313 111.595 20.2932 111.595 22.8117C111.595 24.6183 110.544 25.9643 108.655 26.646L112.526 31.6829H108.258L105.027 27.3266ZM85.6433 10.0446H96.4942V13.3709H81.8334V0.00100983H96.1892V3.32734H85.6433V5.10158H94.2531V8.11083H85.6433V10.0446ZM86.0707 25.6634V18.313H89.8797V25.822C89.8797 29.9087 87.2588 32 81.9256 32C76.5915 32 73.9696 29.9097 73.9696 25.822V18.313H77.7796V25.6644C77.7796 27.6598 78.9686 28.5151 81.9256 28.5151C84.8817 28.5151 86.0698 27.6598 86.0698 25.6634H86.0707ZM70.7542 13.3709H67.325L59.5536 0.00100983H63.8502L69.093 9.15699L74.3359 0.00100983H78.5266L70.7551 13.3709H70.7542ZM66.441 22.4956C63.5151 21.4505 61.9307 21.1809 60.0102 21.1809C57.5874 21.1809 57.0541 21.5918 57.0541 22.1634C57.0541 22.5744 57.3591 22.8117 58.3646 22.9066L63.927 23.3984C67.767 23.7316 69.1086 25.3625 69.1086 27.5326C69.1086 30.0985 66.4265 32 60.9855 32C58.5171 32 55.2249 31.4618 52.33 30.4631L54.3409 27.2004C57.2066 28.293 59.9499 28.7848 61.9452 28.7848C64.5671 28.7848 65.1461 28.3566 65.1461 27.8184C65.1461 27.3902 64.8566 27.058 63.7132 26.9469L58.3034 26.4238C54.6313 26.0754 53.2441 24.6344 53.2441 22.4643C53.2441 20.167 55.3327 17.9969 60.7572 17.9969C63.1187 17.9969 65.6027 18.4715 68.3003 19.5015L66.441 22.4956ZM53.5191 7.93613L51.2333 3.81912L48.9475 7.93613H53.5191ZM43.0956 31.6819H46.9055V18.312H43.0956V31.6819ZM55.2871 11.1049H47.1805L45.9157 13.3699H41.8007L49.5721 0H53.0013L60.7727 13.3699H56.5519L55.2871 11.1049ZM34.5771 4.54719C34.5771 3.7555 34.0895 3.32734 32.916 3.32734H26.4249V5.76705H32.916C34.0895 5.76705 34.5771 5.33889 34.5771 4.54719ZM26.4249 28.3566H37.2738V31.6829H22.6149V18.313H36.9698V21.6403H26.4249V23.4146H35.0347V26.4238H26.4249V28.3566ZM31.9717 9.01461H26.4249V13.3709H22.6149V0.00100983H32.7635C36.6492 0.00100983 38.5396 1.98025 38.5396 4.49973C38.5396 6.30528 37.4875 7.65237 35.5981 8.33299L39.4692 13.3709H35.2017L31.9717 9.01461ZM17.5848 31.6829H3.07944V18.313H6.88745V28.3566H17.5848V31.6829ZM0 0.00100983H17.5858V3.32734H10.6984V13.3709H6.88745V3.32734H0V0.00100983Z" fill="#161345"/>
</svg>
