<svg width="373" height="44" viewBox="0 0 373 44" fill="none" xmlns="http://www.w3.org/2000/svg">
<path d="M1.68 15.832V28H4.8V15.832H1.68ZM3.24 10.408C2.184 10.408 1.344 11.224 1.344 12.256C1.344 13.312 2.184 14.104 3.24 14.104C4.296 14.104 5.136 13.312 5.136 12.256C5.136 11.224 4.272 10.408 3.24 10.408ZM14.3168 15.568C12.7808 15.568 11.6768 16.192 11.0288 17.416L10.7888 15.832H8.12475V28H11.2208V21.568C11.2208 19.648 12.1088 18.592 13.3808 18.592C14.5328 18.592 15.1088 19.312 15.1088 20.776V28H18.2528V20.104C18.2528 17.296 16.8848 15.568 14.3168 15.568ZM32.9413 15.568C31.2373 15.568 29.9413 16.192 29.0773 17.464L28.8613 15.832H26.1733V33.16H29.2933V26.656C30.0373 27.736 31.2613 28.264 32.9413 28.264C34.5493 28.264 35.8933 27.664 36.9733 26.44C38.0533 25.216 38.6053 23.704 38.6053 21.904C38.6053 20.104 38.0773 18.616 36.9973 17.392C35.9173 16.168 34.5733 15.568 32.9413 15.568ZM32.2933 18.496C34.0453 18.496 35.3653 19.864 35.3653 21.904C35.3653 23.944 34.0213 25.336 32.2933 25.336C31.4773 25.336 30.7573 25.024 30.1573 24.424C29.5573 23.824 29.2453 23.008 29.2213 22V21.856C29.2213 20.824 29.5333 20.008 30.1333 19.408C30.7333 18.808 31.4533 18.496 32.2933 18.496ZM45.5664 15.568C42.7584 15.568 40.8864 17.32 40.7184 19.84H43.7424C43.7424 18.88 44.5104 18.232 45.5664 18.232C46.6944 18.232 47.2704 18.856 47.2704 20.08V20.536L44.1264 21.112C41.7504 21.496 40.3584 22.528 40.3584 24.76C40.3584 26.896 41.8464 28.264 44.0544 28.264C45.6144 28.264 46.7664 27.688 47.5344 26.512L47.7264 28H50.3904V20.008C50.3904 17.104 48.5424 15.568 45.5664 15.568ZM47.2704 22.984C47.2704 23.608 47.1264 24.136 46.8384 24.592C46.3824 25.336 45.7344 25.696 44.8944 25.696C44.0064 25.696 43.4784 25.24 43.4784 24.496C43.4784 23.8 43.9344 23.344 44.8464 23.128L47.2704 22.624V22.984ZM60.0054 15.712C58.0854 15.712 56.9094 16.552 56.4534 17.776L56.1654 15.832H53.4774V28H56.5974V21.808C56.6454 20.776 56.9814 20.032 57.5814 19.552C58.2054 19.072 59.0214 18.832 60.0054 18.832V15.712ZM63.0791 12.88L63.0551 15.832H61.0631V18.664H63.0551L63.0071 24.328C62.9831 27.016 64.3031 28.168 67.0151 28.168C67.8551 28.168 68.5271 28.072 68.9831 27.904V25.168C68.5751 25.288 68.1671 25.336 67.7111 25.336C66.5351 25.336 66.1271 24.856 66.1271 23.584L66.1751 18.664H68.9831V15.832H66.1991L66.2231 12.88H63.0791ZM77.6449 15.568C76.1089 15.568 75.0049 16.192 74.3569 17.416L74.1169 15.832H71.4529V28H74.5489V21.568C74.5489 19.648 75.4369 18.592 76.7089 18.592C77.8609 18.592 78.4369 19.312 78.4369 20.776V28H81.5809V20.104C81.5809 17.296 80.2129 15.568 77.6449 15.568ZM89.8791 15.568C88.0791 15.568 86.6391 16.168 85.5111 17.368C84.3831 18.544 83.8311 20.08 83.8311 21.928C83.8311 23.824 84.3831 25.36 85.4871 26.536C86.6151 27.688 88.0791 28.264 89.8791 28.264C92.7831 28.264 94.6791 26.8 95.4471 24.184H92.4231C92.0631 25.12 91.2471 25.6 89.9751 25.6C88.2711 25.6 87.1431 24.496 87.0471 22.864H95.5191V21.904C95.5191 17.752 93.2391 15.568 89.8791 15.568ZM87.0711 20.704C87.2391 19.192 88.2711 18.16 89.8071 18.16C91.3431 18.16 92.3511 19.168 92.3751 20.704H87.0711ZM104.677 15.712C102.757 15.712 101.581 16.552 101.125 17.776L100.837 15.832H98.1493V28H101.269V21.808C101.317 20.776 101.653 20.032 102.253 19.552C102.877 19.072 103.693 18.832 104.677 18.832V15.712ZM110.825 15.568C109.409 15.568 108.305 15.952 107.513 16.72C106.721 17.464 106.337 18.4 106.337 19.528C106.337 21.52 107.561 22.672 110.225 23.128C111.953 23.44 112.433 23.848 112.433 24.64C112.433 25.384 111.881 25.792 110.921 25.792C109.793 25.792 109.193 25.288 109.169 24.304H106.097C106.169 26.728 107.897 28.264 110.849 28.264C113.561 28.264 115.553 26.92 115.553 24.304C115.553 22.264 114.473 21.088 111.593 20.608C109.937 20.32 109.457 19.984 109.457 19.216C109.457 18.472 109.937 18.016 110.801 18.016C111.689 18.016 112.169 18.472 112.193 19.408H115.289C115.193 17.104 113.393 15.568 110.825 15.568ZM118 10.48V28H121.096V21.568C121.096 19.648 121.984 18.592 123.256 18.592C124.408 18.592 124.984 19.312 124.984 20.776V28H128.128V20.104C128.128 17.296 126.76 15.568 124.192 15.568C122.824 15.568 121.792 16.072 121.096 17.104V10.48H118ZM131.266 15.832V28H134.386V15.832H131.266ZM132.826 10.408C131.77 10.408 130.93 11.224 130.93 12.256C130.93 13.312 131.77 14.104 132.826 14.104C133.882 14.104 134.722 13.312 134.722 12.256C134.722 11.224 133.858 10.408 132.826 10.408ZM144.551 15.568C142.847 15.568 141.551 16.192 140.687 17.464L140.471 15.832H137.783V33.16H140.903V26.656C141.647 27.736 142.871 28.264 144.551 28.264C146.159 28.264 147.503 27.664 148.583 26.44C149.663 25.216 150.215 23.704 150.215 21.904C150.215 20.104 149.687 18.616 148.607 17.392C147.527 16.168 146.183 15.568 144.551 15.568ZM143.903 18.496C145.655 18.496 146.975 19.864 146.975 21.904C146.975 23.944 145.631 25.336 143.903 25.336C143.087 25.336 142.367 25.024 141.767 24.424C141.167 23.824 140.855 23.008 140.831 22V21.856C140.831 20.824 141.143 20.008 141.743 19.408C142.343 18.808 143.063 18.496 143.903 18.496ZM170.91 15.832L169.038 23.152L168.822 24.448L168.558 23.152L166.494 15.832H163.734L161.67 23.152L161.406 24.448L161.19 23.152L159.342 15.832H155.982L159.654 28H162.75L165.102 20.848L167.31 28H170.574L174.246 15.832H170.91ZM176.172 15.832V28H179.292V15.832H176.172ZM177.732 10.408C176.676 10.408 175.836 11.224 175.836 12.256C175.836 13.312 176.676 14.104 177.732 14.104C178.788 14.104 179.628 13.312 179.628 12.256C179.628 11.224 178.764 10.408 177.732 10.408ZM183.337 12.88L183.313 15.832H181.321V18.664H183.313L183.265 24.328C183.241 27.016 184.561 28.168 187.273 28.168C188.113 28.168 188.785 28.072 189.241 27.904V25.168C188.833 25.288 188.425 25.336 187.969 25.336C186.793 25.336 186.385 24.856 186.385 23.584L186.433 18.664H189.241V15.832H186.457L186.481 12.88H183.337ZM191.711 10.48V28H194.807V21.568C194.807 19.648 195.695 18.592 196.967 18.592C198.119 18.592 198.695 19.312 198.695 20.776V28H201.839V20.104C201.839 17.296 200.471 15.568 197.903 15.568C196.535 15.568 195.503 16.072 194.807 17.104V10.48H191.711Z" fill="#161345"/>
<path d="M230.706 3.84789C232.065 3.21328 233.482 2.714 234.939 2.35728C243.847 0.166 251.487 1.93416 256.601 9.85594C257.7 11.5591 259.675 14.3394 260.105 16.3269C261.226 21.5033 260.451 26.9815 257.866 31.5047C254.532 37.341 248.475 42.1797 241.905 42.2282C235.126 42.2767 228.452 38.5716 224.477 33.4553C220.475 28.3042 220.467 24.1613 220.643 17.9408C220.829 11.3553 225.114 6.46519 230.706 3.84789ZM230.191 2.15057C229.625 2.43394 229.071 2.73963 228.532 3.056C226.428 4.29235 224.306 5.46563 222.968 7.5783C219.717 12.712 218.395 19.0723 219.257 25.0833C221.084 37.8204 236.547 48.7943 248.793 41.84L251.189 40.4814C254.831 38.4143 257.47 34.9498 259.403 31.3077C260.405 29.4163 261.395 27.3823 261.67 25.1939C261.987 22.7182 262.019 20.2143 261.767 17.7311C261.749 17.5739 261.73 17.4167 261.708 17.2595C261.435 15.2216 260.605 13.6281 259.755 11.7959C257.398 6.71654 251.439 2.14378 246.046 0.753122C244.186 0.267897 242.262 0.0738072 240.344 0.00587572C238.597 -0.0523513 236.736 0.335829 235.007 0.566796C233.328 0.79194 231.713 1.38974 230.191 2.15057Z" fill="#161345"/>
<path d="M228.705 18.7733H228.713C229.043 15.9774 229.853 14.3811 231.102 12.8342C232.491 11.1145 234.255 9.73454 236.383 9.06978C243.358 6.88724 251.265 11.9734 252.384 19.1731C252.649 20.8879 252.379 22.4406 252.215 24.136C252.195 24.3427 252.184 24.5688 252.304 24.7387C252.589 25.1424 255.609 24.5184 256.165 24.4223C257.187 24.2457 258.507 23.8905 258.632 22.6629C258.947 19.5875 258.611 16.2831 256.952 13.6086C255.047 10.5371 252.649 7.66942 249.52 5.79063C241.94 1.2431 231.505 3.51784 225.781 10.0043C223.674 12.3907 222.248 16.1288 222.46 19.3643L228.705 18.7733Z" fill="#161345"/>
<path d="M230.57 18.7104C231.742 16.3677 232.624 14.6801 234.333 13.401C237.931 10.6993 242.988 10.9807 246.366 13.895C247.929 15.2458 249.142 17.0004 249.763 18.9782C250.076 19.9719 250.235 21.0078 250.234 22.0497C250.234 22.5805 250.234 24.8572 250.234 24.8572C249.937 24.8882 248.706 24.5845 248.425 24.4933C248.036 24.3681 246.799 24.2332 246.591 23.8634C246.556 23.7815 246.547 23.6908 246.564 23.6034C246.682 22.4388 246.904 21.217 246.758 20.0457C246.37 16.9034 243.479 13.8795 240.179 14.0173C238.676 14.0803 237.329 14.8062 236.265 15.8378C235.486 16.604 234.855 17.5066 234.402 18.5007C234.349 18.6348 234.279 18.7611 234.193 18.8763C233.761 19.3955 233.113 19.1674 232.567 18.9995C232.327 18.9326 230.667 18.5182 230.57 18.7104Z" fill="#161345"/>
<path d="M236.371 19.3645C236.973 17.4236 238.958 16.3561 240.889 16.2474C242.151 16.1746 243.457 16.5007 244.409 17.3634C245.102 17.9903 245.517 18.8608 245.706 19.7663C245.874 20.5706 245.809 21.4063 245.519 22.1749C245.342 22.6786 245.097 23.4365 244.574 23.5413C244.051 23.6461 243.574 23.2803 243.085 23.0561C242.086 22.598 241.338 22.1749 240.264 21.6713C238.978 21.0667 237.691 20.7425 236.34 20.2573C236.177 20.1729 236.253 19.7546 236.371 19.3645Z" fill="#161345"/>
<path d="M222.167 20.3984V22.5945L222.44 25.2098L222.952 26.7781L223.213 27.0401C223.429 27.2517 224.614 26.7577 224.863 26.6733C225.788 26.3608 226.75 26.1681 227.725 26.0997C230.927 25.86 234.154 26.156 237.291 26.8179C239.631 27.3109 241.847 28.2367 244.106 28.9946C246.202 29.6944 248.386 30.0965 250.594 30.1892C252.387 30.2659 254.343 30.2494 256.08 29.7593C257.063 29.4827 257.422 28.4977 257.615 27.5865C257.768 26.8722 257.85 26.1143 258.111 25.4292C255.402 26.4967 253.309 26.1861 250.348 25.9367C247.824 25.7242 245.089 25.2234 242.712 24.3374C240.184 23.3941 237.931 21.8142 235.295 21.1281C233.167 20.6429 231.122 20.0014 228.93 19.918C226.615 19.8345 224.421 19.8617 222.167 20.3984Z" fill="#161345"/>
<path d="M223.736 28.4526C223.496 27.8704 227.617 26.9455 228.075 26.8815C231.097 26.4603 234.14 27.2551 236.945 28.3245C239.843 29.4279 243.201 30.7507 246.273 31.3931C249.734 32.118 252.958 33.0002 255.716 31.1185C255.73 31.1089 255.746 31.104 255.763 31.1043C255.78 31.1046 255.796 31.1102 255.81 31.1202C255.823 31.1303 255.833 31.1444 255.838 31.1604C255.843 31.1764 255.843 31.1937 255.838 31.2097C255.814 31.2874 255.778 31.3609 255.731 31.428C255.514 31.7328 255.424 32.0103 255.021 32.5421C254.21 33.5934 253.33 34.5905 252.389 35.5272L251.098 36.6995C251.093 36.7049 251.086 36.7095 251.079 36.7131C250.261 37.2604 245.111 35.5709 243.26 34.7256C240.713 33.5611 238.786 31.9113 236.25 30.7468C233.112 29.3095 229.052 28.9446 225.727 29.9617L224.594 30.3072C224.575 30.313 224.554 30.3116 224.536 30.3032C224.518 30.2947 224.504 30.2799 224.496 30.2615L223.736 28.4526Z" fill="#161345"/>
<path d="M225.666 32.0692C227.911 31.3763 230.725 30.1884 232.945 31.3549C234.521 32.1856 235.886 33.1978 237.439 34.0799C238.221 34.5283 239.014 34.9533 239.827 35.3415C241.179 35.984 242.564 36.542 243.938 37.131C245.312 37.7201 246.714 38.2742 248.208 38.4004C248.627 38.449 249.052 38.422 249.463 38.3208C249.114 38.4179 248.728 38.7362 248.405 38.9128C247.714 39.2893 247.025 39.7066 246.283 39.9754C242.815 41.2283 238.976 40.8673 235.589 39.5339C233.908 38.8541 232.303 37.9996 230.8 36.9845C229.366 36.0344 227.815 35.0232 226.68 33.718C226.576 33.5996 225.555 32.1012 225.656 32.0682L225.666 32.0692Z" fill="#161345"/>
<path d="M273.733 17.1787C274.248 16.8756 274.827 16.6977 275.423 16.6595C275.463 16.657 275.503 16.6627 275.54 16.6762C275.578 16.6897 275.612 16.7107 275.641 16.738C275.67 16.7653 275.693 16.7982 275.709 16.8348C275.725 16.8714 275.733 16.9108 275.733 16.9507V19.9707C275.733 20.0479 275.702 20.122 275.647 20.1766C275.593 20.2312 275.519 20.2618 275.441 20.2618H274.791C273.939 20.2618 273.299 20.4452 272.872 20.8121C272.445 21.1789 272.232 21.822 272.232 22.7413V27.6246C272.232 27.7018 272.201 27.7759 272.147 27.8305C272.092 27.8851 272.018 27.9158 271.941 27.9158H269.108C269.031 27.9158 268.957 27.8851 268.902 27.8305C268.848 27.7759 268.817 27.7018 268.817 27.6246V17.0623C268.817 16.985 268.848 16.911 268.902 16.8564C268.957 16.8018 269.031 16.7711 269.108 16.7711H271.938C272.015 16.7711 272.089 16.8018 272.144 16.8564C272.199 16.911 272.229 16.985 272.229 17.0623V17.9075C272.229 17.9571 272.245 18.0054 272.273 18.046C272.301 18.0867 272.342 18.1176 272.388 18.1347C272.435 18.1518 272.485 18.1543 272.533 18.1418C272.581 18.1293 272.624 18.1024 272.656 18.0647C272.966 17.714 273.33 17.415 273.733 17.1787Z" fill="#161345"/>
<path d="M287.627 23.1113H280.429C280.394 23.1111 280.36 23.1184 280.328 23.1326C280.297 23.1469 280.268 23.1678 280.246 23.194C280.223 23.2201 280.206 23.2509 280.196 23.2842C280.186 23.3175 280.183 23.3525 280.188 23.3869C280.275 23.9459 280.488 24.3835 280.827 24.6999C281.218 25.0656 281.737 25.2632 282.273 25.2502C283.074 25.2502 283.647 24.9319 283.99 24.2952C284.011 24.2573 284.042 24.2259 284.08 24.2044C284.118 24.1828 284.161 24.172 284.204 24.173H287.299C287.346 24.1725 287.392 24.1833 287.434 24.2045C287.475 24.2257 287.512 24.2566 287.539 24.2947C287.566 24.3328 287.584 24.377 287.59 24.4233C287.597 24.4697 287.592 24.517 287.576 24.5611C287.378 25.1402 287.076 25.678 286.684 26.1478C286.187 26.7413 285.561 27.213 284.854 27.5268C284.08 27.8689 283.241 28.0394 282.395 28.0266C281.302 28.0266 280.33 27.7934 279.477 27.3269C278.631 26.8682 277.937 26.1737 277.478 25.3278C276.997 24.4622 276.757 23.4493 276.758 22.2893C276.758 21.1293 276.995 20.1165 277.467 19.2508C277.922 18.4049 278.614 17.7106 279.459 17.2537C280.311 16.7872 281.291 16.554 282.397 16.554C283.477 16.554 284.437 16.7804 285.276 17.2333C286.106 17.6771 286.79 18.3511 287.245 19.1742C287.718 20.0152 287.955 20.9951 287.955 22.1137C287.955 22.3492 287.944 22.5921 287.922 22.8425C287.916 22.9164 287.883 22.9854 287.828 23.0354C287.773 23.0853 287.701 23.1125 287.627 23.1113ZM284.139 21.2121C284.181 21.2125 284.223 21.2039 284.261 21.1867C284.299 21.1696 284.334 21.1443 284.361 21.1127C284.389 21.081 284.409 21.0438 284.421 21.0035C284.433 20.9632 284.436 20.9208 284.43 20.8793C284.377 20.4642 284.172 20.0837 283.854 19.8118C283.454 19.4656 282.954 19.2922 282.354 19.2916C281.826 19.2759 281.311 19.4536 280.905 19.7914C280.586 20.0674 280.359 20.4341 280.254 20.8424C280.242 20.8859 280.241 20.9317 280.249 20.976C280.258 21.0203 280.277 21.062 280.304 21.0978C280.332 21.1336 280.367 21.1624 280.408 21.1821C280.449 21.2018 280.494 21.2117 280.539 21.2111L284.139 21.2121Z" fill="#161345"/>
<path d="M301.158 19.7615C300.741 20.5152 300.098 21.1237 299.232 21.5869C298.366 22.0501 297.291 22.2814 296.007 22.2808H293.905C293.833 22.2808 293.764 22.3094 293.713 22.3604C293.662 22.4113 293.634 22.4804 293.634 22.5525V27.5988C293.634 27.6417 293.625 27.6841 293.609 27.7238C293.593 27.7634 293.569 27.7994 293.538 27.8297C293.508 27.86 293.472 27.884 293.432 27.9003C293.393 27.9167 293.35 27.925 293.308 27.9249H290.134C290.048 27.9249 289.965 27.8905 289.904 27.8294C289.842 27.7682 289.808 27.6853 289.808 27.5988V12.6384C289.808 12.5231 289.854 12.4125 289.935 12.331C290.017 12.2494 290.128 12.2036 290.243 12.2036H296.011C297.266 12.2036 298.326 12.42 299.191 12.8528C300.056 13.2857 300.706 13.8828 301.14 14.6443C301.573 15.4064 301.789 16.2798 301.789 17.2645C301.797 18.1372 301.58 18.9973 301.158 19.7615ZM297.351 18.7202C297.709 18.3766 297.888 17.8914 297.889 17.2645C297.89 16.6376 297.71 16.1524 297.351 15.8088C296.993 15.4653 296.448 15.2935 295.716 15.2935H293.905C293.833 15.2935 293.764 15.3222 293.713 15.3731C293.662 15.4241 293.634 15.4932 293.634 15.5653V18.9618C293.634 19.0339 293.662 19.103 293.713 19.154C293.764 19.2049 293.833 19.2336 293.905 19.2336H295.716C296.448 19.2342 296.993 19.0631 297.351 18.7202Z" fill="#161345"/>
<path d="M314.088 17.0624V27.6296C314.088 27.7068 314.058 27.7809 314.003 27.8355C313.948 27.8901 313.874 27.9207 313.797 27.9207H310.966C310.889 27.9207 310.815 27.8901 310.76 27.8355C310.706 27.7809 310.675 27.7068 310.675 27.6296V27.0619C310.675 27.0144 310.661 26.9679 310.635 26.9282C310.609 26.8885 310.572 26.8574 310.528 26.8387C310.485 26.8201 310.436 26.8148 310.39 26.8234C310.343 26.832 310.3 26.8542 310.266 26.8872C309.971 27.173 309.634 27.4113 309.266 27.5937C308.655 27.898 307.98 28.0524 307.297 28.044C306.507 28.0598 305.726 27.8631 305.038 27.4743C304.379 27.0879 303.85 26.5134 303.519 25.8246C303.159 25.1045 302.979 24.2583 302.979 23.2859V17.0624C302.979 16.9852 303.009 16.9111 303.064 16.8565C303.118 16.8019 303.192 16.7712 303.27 16.7712H306.084C306.161 16.7712 306.235 16.8019 306.29 16.8565C306.344 16.9111 306.375 16.9852 306.375 17.0624V22.8259C306.375 23.5718 306.569 24.1515 306.957 24.5649C307.346 24.9783 307.865 25.185 308.517 25.185C309.183 25.185 309.709 24.9783 310.096 24.5649C310.483 24.1515 310.677 23.5718 310.678 22.8259V17.0624C310.678 16.9852 310.709 16.9111 310.763 16.8565C310.818 16.8019 310.892 16.7712 310.969 16.7712H313.8C313.877 16.772 313.95 16.803 314.004 16.8575C314.058 16.912 314.088 16.9857 314.088 17.0624Z" fill="#161345"/>
<path d="M321.127 17.179C321.643 16.8754 322.222 16.6973 322.819 16.6589C322.859 16.6568 322.899 16.6627 322.936 16.6764C322.973 16.6901 323.007 16.7112 323.035 16.7384C323.064 16.7657 323.087 16.7985 323.103 16.8349C323.118 16.8713 323.126 16.9104 323.126 16.95V19.9759C323.126 20.0531 323.095 20.1271 323.041 20.1817C322.986 20.2363 322.912 20.267 322.835 20.267H322.187C321.333 20.267 320.693 20.4504 320.267 20.8172C319.841 21.1841 319.628 21.8272 319.628 22.7465V27.6298C319.628 27.707 319.597 27.7811 319.542 27.8357C319.488 27.8903 319.414 27.9209 319.337 27.9209H316.506C316.429 27.9209 316.354 27.8903 316.3 27.8357C316.245 27.7811 316.215 27.707 316.215 27.6298V17.0626C316.215 16.9854 316.245 16.9113 316.3 16.8567C316.354 16.8021 316.429 16.7714 316.506 16.7714H319.337C319.414 16.7714 319.488 16.8021 319.542 16.8567C319.597 16.9113 319.628 16.9854 319.628 17.0626V17.9078C319.628 17.9574 319.643 18.0057 319.671 18.0463C319.7 18.087 319.74 18.1179 319.786 18.135C319.833 18.1522 319.884 18.1546 319.932 18.1421C319.979 18.1296 320.022 18.1027 320.055 18.065C320.363 17.7145 320.725 17.4154 321.127 17.179Z" fill="#161345"/>
<path d="M340.478 27.3846C339.615 26.9281 338.901 26.2345 338.419 25.3854C337.919 24.5191 337.67 23.5063 337.67 22.347C337.67 21.2012 337.923 20.1916 338.43 19.3182C338.916 18.4636 339.638 17.7662 340.508 17.3084C341.427 16.8479 342.44 16.6082 343.468 16.6082C344.496 16.6082 345.509 16.8479 346.428 17.3084C347.298 17.7675 348.019 18.4659 348.505 19.3211C349.011 20.1932 349.265 21.2028 349.265 22.3499C349.265 23.4969 349.008 24.5062 348.495 25.3777C348 26.2332 347.272 26.9303 346.396 27.3875C345.479 27.8614 344.459 28.1017 343.427 28.0872C342.401 28.1027 341.387 27.8611 340.478 27.3846ZM345.097 24.4053C345.557 23.9259 345.786 23.2398 345.786 22.347C345.785 21.4541 345.562 20.7677 345.116 20.2877C344.904 20.0613 344.649 19.8806 344.364 19.7568C344.08 19.633 343.774 19.5687 343.464 19.5678C343.154 19.5669 342.847 19.6294 342.562 19.7515C342.277 19.8737 342.021 20.0528 341.808 20.278C341.368 20.7509 341.148 21.4406 341.148 22.347C341.148 23.2398 341.365 23.9259 341.798 24.4053C342 24.6373 342.251 24.8221 342.533 24.9466C342.814 25.071 343.12 25.132 343.427 25.1254C343.741 25.1292 344.051 25.067 344.339 24.9429C344.626 24.8189 344.884 24.6357 345.097 24.4053Z" fill="#161345"/>
<path d="M352.86 27.5842C352.151 27.2892 351.532 26.8162 351.06 26.211C350.7 25.7416 350.46 25.1907 350.363 24.6068C350.354 24.5643 350.356 24.5205 350.367 24.4787C350.378 24.4368 350.398 24.3979 350.426 24.3648C350.454 24.3317 350.489 24.3053 350.528 24.2874C350.568 24.2695 350.61 24.2606 350.654 24.2614H353.505C353.559 24.2619 353.611 24.2808 353.652 24.3148C353.694 24.3489 353.723 24.3961 353.734 24.4487C353.808 24.7523 353.988 25.0192 354.242 25.2008C354.585 25.4483 354.999 25.575 355.422 25.5608C355.849 25.5608 356.178 25.4777 356.411 25.3114C356.52 25.2412 356.608 25.1448 356.669 25.0311C356.731 24.9174 356.762 24.7902 356.761 24.6612C356.761 24.3416 356.594 24.1051 356.262 23.9518C355.929 23.7985 355.389 23.6286 354.642 23.4423C353.963 23.2914 353.295 23.0942 352.643 22.8523C352.109 22.6454 351.635 22.3089 351.264 21.8731C350.876 21.4267 350.682 20.8234 350.682 20.0632C350.677 19.4407 350.862 18.8314 351.212 18.3164C351.565 17.7891 352.085 17.3725 352.771 17.0664C353.458 16.7604 354.274 16.6071 355.22 16.6064C356.619 16.6064 357.722 16.9532 358.529 17.6468C359.251 18.2659 359.728 19.1237 359.871 20.0642C359.878 20.1063 359.876 20.1496 359.865 20.1908C359.854 20.2321 359.833 20.2703 359.805 20.3028C359.778 20.3354 359.743 20.3614 359.704 20.379C359.665 20.3966 359.623 20.4054 359.58 20.4048H356.96C356.906 20.4043 356.853 20.3856 356.811 20.3518C356.769 20.3181 356.739 20.2711 356.727 20.2185C356.656 19.9279 356.489 19.6698 356.253 19.4858C355.967 19.2587 355.59 19.1455 355.124 19.1461C354.724 19.1461 354.417 19.2228 354.205 19.3761C354.103 19.4455 354.02 19.5395 353.964 19.6494C353.908 19.7594 353.88 19.8817 353.884 20.005C353.884 20.3252 354.054 20.5652 354.394 20.725C354.733 20.8848 355.263 21.0446 355.983 21.2044C356.669 21.3738 357.343 21.5842 358.003 21.8343C358.534 22.05 359.005 22.3933 359.372 22.8338C359.766 23.2938 359.969 23.9104 359.982 24.6835C359.989 25.3094 359.797 25.9215 359.432 26.4303C359.066 26.9434 358.539 27.3467 357.852 27.6405C357.166 27.9342 356.37 28.0807 355.464 28.0801C354.571 28.0978 353.684 27.9289 352.86 27.5842Z" fill="#161345"/>
<path d="M372.199 23.1652H365.001C364.966 23.165 364.931 23.1723 364.9 23.1866C364.868 23.2008 364.84 23.2218 364.817 23.2479C364.794 23.2741 364.777 23.3048 364.767 23.3381C364.758 23.3714 364.755 23.4064 364.76 23.4408C364.846 24.0011 365.059 24.4391 365.398 24.7548C365.791 25.121 366.311 25.3183 366.847 25.3041C367.65 25.3041 368.222 24.9858 368.565 24.3492C368.586 24.3114 368.616 24.2799 368.653 24.2581C368.69 24.2362 368.733 24.2247 368.776 24.2249H371.871C371.918 24.2245 371.964 24.2353 372.006 24.2565C372.048 24.2777 372.084 24.3086 372.111 24.3467C372.138 24.3848 372.156 24.4289 372.163 24.4753C372.169 24.5217 372.165 24.569 372.149 24.6131C371.951 25.1922 371.648 25.73 371.256 26.1998C370.76 26.7938 370.134 27.2659 369.427 27.5798C368.653 27.9213 367.814 28.0918 366.968 28.0796C365.875 28.0796 364.902 27.8463 364.049 27.3799C363.203 26.9206 362.509 26.2263 362.049 25.3808C361.57 24.5145 361.33 23.5016 361.33 22.3423C361.33 21.1829 361.567 20.1698 362.04 19.3028C362.493 18.4564 363.185 17.7614 364.029 17.3037C364.881 16.8379 365.861 16.6047 366.968 16.604C368.047 16.604 369.006 16.8304 369.846 17.2833C370.676 17.7269 371.36 18.4009 371.815 19.2242C372.289 20.0653 372.525 21.0448 372.525 22.1627C372.525 22.3986 372.514 22.6421 372.492 22.8925C372.488 22.9668 372.455 23.0365 372.4 23.0872C372.346 23.138 372.274 23.1659 372.199 23.1652ZM368.712 21.266C368.753 21.2665 368.795 21.2578 368.833 21.2407C368.872 21.2236 368.906 21.1984 368.933 21.1669C368.961 21.1354 368.981 21.0983 368.993 21.0581C369.005 21.0179 369.009 20.9757 369.003 20.9342C368.949 20.5193 368.744 20.1391 368.426 19.8667C368.026 19.5199 367.527 19.3468 366.927 19.3475C366.399 19.3313 365.883 19.5091 365.477 19.8472C365.158 20.1232 364.931 20.4899 364.826 20.8982C364.814 20.9418 364.812 20.9875 364.821 21.0318C364.83 21.0761 364.849 21.1177 364.877 21.1534C364.904 21.1891 364.94 21.2178 364.981 21.2374C365.021 21.2569 365.066 21.2667 365.111 21.266H368.712Z" fill="#161345"/>
<path d="M335.758 19.3073C335.367 18.4887 334.754 17.7962 333.989 17.3081C333.24 16.8414 332.373 16.5986 331.49 16.6084C330.703 16.6084 330.016 16.7686 329.431 17.0888C329.074 17.2801 328.749 17.526 328.468 17.8176C328.435 17.8526 328.392 17.8767 328.345 17.8869C328.297 17.8971 328.248 17.8928 328.203 17.8748C328.158 17.8567 328.12 17.8256 328.093 17.7855C328.066 17.7454 328.052 17.6981 328.052 17.6497V17.0675C328.052 16.9903 328.021 16.9162 327.967 16.8616C327.912 16.807 327.838 16.7763 327.761 16.7763H324.93C324.853 16.7763 324.779 16.807 324.724 16.8616C324.67 16.9162 324.639 16.9903 324.639 17.0675V32.9479C324.639 33.0251 324.67 33.0992 324.724 33.1538C324.779 33.2084 324.853 33.239 324.93 33.239H327.761C327.838 33.239 327.912 33.2084 327.967 33.1538C328.021 33.0992 328.052 33.0251 328.052 32.9479V27.0495C328.052 27.0014 328.066 26.9544 328.093 26.9144C328.119 26.8744 328.157 26.8433 328.202 26.8251C328.246 26.8068 328.295 26.8023 328.343 26.812C328.39 26.8217 328.433 26.8453 328.466 26.8797C328.751 27.1693 329.078 27.4135 329.437 27.6036C330.069 27.9333 330.774 28.0985 331.486 28.084C332.37 28.0938 333.238 27.8474 333.985 27.3746C334.751 26.8789 335.364 26.1795 335.754 25.3551C336.187 24.4824 336.404 23.4728 336.404 22.3263C336.404 21.1799 336.189 20.1736 335.758 19.3073ZM332.523 24.3536C332.3 24.5894 332.032 24.7775 331.734 24.9063C331.436 25.0351 331.115 25.102 330.791 25.1029C330.466 25.1038 330.145 25.0387 329.847 24.9116C329.548 24.7844 329.279 24.5979 329.054 24.3633C328.581 23.8703 328.344 23.1975 328.344 22.3448C328.344 21.4921 328.581 20.8189 329.054 20.3253C329.274 20.0874 329.542 19.8986 329.84 19.7712C330.138 19.6438 330.459 19.5806 330.783 19.5858C331.109 19.5794 331.432 19.6411 331.733 19.7667C332.034 19.8923 332.305 20.0793 332.53 20.3156C333.002 20.8014 333.238 21.471 333.239 22.3244C333.24 23.1777 333.001 23.8548 332.523 24.3555V24.3536Z" fill="#161345"/>
</svg>
