<svg width="34" height="34" viewBox="0 0 34 34" fill="none" xmlns="http://www.w3.org/2000/svg">
<circle cx="16.8635" cy="16.8635" r="15.8635" stroke="#161345" stroke-width="1.32196"/>
<mask id="mask0_2058_582" style="mask-type:alpha" maskUnits="userSpaceOnUse" x="1" y="1" width="32" height="32">
<circle cx="16.8635" cy="16.8635" r="15.8635" fill="#D9D9D9"/>
</mask>
<g mask="url(#mask0_2058_582)">
<path d="M25.4561 6.28809C25.4561 6.28809 24.3202 12.4863 18.585 12.4863L25.4561 32.7272H23.3675L18.0008 23.0449C17.5932 25.1387 16.1579 27.4583 13.8132 28.9568C17.5633 28.9232 21.7683 29.8411 23.3675 32.7272H5.14903C-2.41308 26.5485 1.99234 17.901 5.56992 15.7923C3.80669 20.1668 2.66218 27.836 5.65357 31.1232L13.4587 6.28876V10.6014C13.4587 11.8089 14.4259 12.788 15.6189 12.788C16.8118 12.788 17.7791 11.8089 17.7791 10.6014C17.7791 8.43367 16.221 6.63549 14.1763 6.28876H25.4561M18.0128 8.03183C18.0128 8.45517 18.3514 8.79787 18.7696 8.79787C19.1878 8.79787 19.5264 8.45517 19.5264 8.03183C19.5264 7.6085 19.1878 7.26579 18.7696 7.26579C18.3514 7.26579 18.0128 7.6085 18.0128 8.03183Z" fill="#161345"/>
</g>
</svg>
