<svg width="328" height="94" viewBox="0 0 328 94" fill="none" xmlns="http://www.w3.org/2000/svg">
<path d="M25.0092 8.22049C27.9112 6.86474 30.9396 5.7981 34.0506 5.036C53.0829 0.354636 69.4034 4.13207 80.3293 21.0559C82.6783 24.6944 86.8973 30.6342 87.8158 34.8802C90.2104 45.9388 88.5538 57.6422 83.0328 67.3056C75.9092 79.774 62.9701 90.1112 48.9343 90.2148C34.4507 90.3185 20.1931 82.4029 11.7011 71.4728C3.1511 60.4681 3.13452 51.6174 3.50977 38.328C3.90783 24.259 13.0612 13.812 25.0092 8.22049ZM23.9083 4.5944C22.6996 5.19979 21.5158 5.85285 20.3631 6.52873C15.8683 9.17003 11.3362 11.6766 8.47724 16.19C1.53191 27.1574 -1.29184 40.7454 0.549193 53.587C4.45309 80.7982 37.4859 104.242 63.6481 89.3855L68.7669 86.483C76.5477 82.067 82.1869 74.6656 86.3148 66.8847C88.4564 62.844 90.5711 58.4985 91.1578 53.8233C91.8351 48.5343 91.9046 43.1851 91.3652 37.8802C91.3278 37.5443 91.2864 37.2085 91.2408 36.8726C90.6561 32.5188 88.8835 29.1145 87.0673 25.2003C82.0314 14.349 69.3018 4.57989 57.7808 1.60894C53.8064 0.572325 49.6952 0.157679 45.5985 0.0125527C41.8667 -0.111841 37.8902 0.717452 34.1957 1.21088C30.609 1.69187 27.1592 2.96899 23.9083 4.5944Z" fill="white"/>
<path d="M20.7321 40.1065H20.7507C21.4556 34.1335 23.1847 30.723 25.853 27.4183C28.8218 23.7445 32.5889 20.7964 37.1355 19.3762C52.0379 14.7135 68.9285 25.5793 71.319 40.9607C71.887 44.6241 71.3086 47.9412 70.9582 51.5632C70.9168 52.0048 70.8919 52.4878 71.149 52.8506C71.7585 53.7131 78.2104 52.38 79.3984 52.1748C81.5815 51.7974 84.4011 51.0386 84.6685 48.416C85.3403 41.8459 84.6229 34.7866 81.0798 29.0727C77.01 22.5109 71.887 16.3845 65.2009 12.3707C49.0068 2.65557 26.7154 7.51523 14.4854 21.3727C9.98442 26.4708 6.93884 34.4569 7.39081 41.3691L20.7321 40.1065Z" fill="white"/>
<path d="M24.719 39.9718C27.2214 34.9671 29.106 31.3617 32.7569 28.6292C40.4445 22.8573 51.2481 23.4585 58.465 29.6845C61.8029 32.5704 64.3945 36.3188 65.7213 40.5441C66.3903 42.667 66.7294 44.88 66.7269 47.1058C66.7269 48.2399 66.7269 53.1037 66.7269 53.1037C66.0924 53.17 63.4636 52.5211 62.8624 52.3262C62.0331 52.0588 59.3897 51.7706 58.946 50.9807C58.8705 50.8058 58.8502 50.6119 58.888 50.4251C59.1388 47.9372 59.6136 45.327 59.3026 42.8246C58.4733 36.1115 52.2971 29.6513 45.2461 29.9457C42.0346 30.0804 39.1591 31.6312 36.8847 33.8351C35.221 35.4719 33.8718 37.4001 32.9041 39.524C32.7924 39.8103 32.6425 40.0802 32.4584 40.3264C31.5358 41.4356 30.1509 40.9483 28.9857 40.5897C28.4715 40.4466 24.9263 39.5613 24.719 39.9718Z" fill="white"/>
<path d="M37.1107 41.3693C38.3961 37.2228 42.6379 34.9422 46.7636 34.71C49.4588 34.5545 52.2494 35.2511 54.2833 37.0942C55.7635 38.4336 56.6488 40.2932 57.0531 42.2276C57.4134 43.9459 57.2746 45.7314 56.653 47.3733C56.2756 48.4494 55.7532 50.0685 54.6357 50.2925C53.5182 50.5164 52.4982 49.7348 51.4533 49.2558C49.3199 48.2773 47.7215 47.3733 45.4285 46.2973C42.6794 45.0057 39.9303 44.3132 37.0443 43.2766C36.696 43.0963 36.8577 42.2027 37.1107 41.3693Z" fill="white"/>
<path d="M6.76465 43.5795V48.2712L7.3493 53.8586L8.44189 57.2089L8.99959 57.7687C9.46193 58.2207 11.9933 57.1654 12.5241 56.985C14.5015 56.3175 16.5561 55.9057 18.6381 55.7597C25.4797 55.2476 32.3732 55.88 39.076 57.2939C44.0746 58.3471 48.8078 60.325 53.6343 61.9442C58.1126 63.4392 62.7787 64.2983 67.4959 64.4963C71.3252 64.6601 75.5048 64.6249 79.2159 63.5779C81.3161 62.987 82.0832 60.8827 82.4957 58.9359C82.8212 57.41 82.9975 55.7908 83.5552 54.3271C77.7667 56.6077 73.2968 55.9442 66.9693 55.4114C61.5789 54.9574 55.7344 53.8876 50.6571 51.9947C45.2563 49.9796 40.4423 46.6043 34.8114 45.1385C30.2648 44.1019 25.8965 42.7315 21.213 42.5532C16.2684 42.3749 11.5808 42.433 6.76465 43.5795Z" fill="white"/>
<path d="M10.1172 60.7856C9.60509 59.5416 18.4101 57.5658 19.3887 57.429C25.8427 56.5292 32.3443 58.2272 38.338 60.5119C44.5287 62.8692 51.7021 65.695 58.266 67.0675C65.6591 68.6162 72.5464 70.5007 78.4385 66.4807C78.4682 66.4604 78.5034 66.4498 78.5394 66.4504C78.5753 66.4511 78.6102 66.4631 78.639 66.4846C78.6678 66.5061 78.6892 66.5361 78.7001 66.5703C78.711 66.6046 78.7109 66.6414 78.6998 66.6756C78.6473 66.8416 78.5704 66.9988 78.4717 67.1421C78.0073 67.7931 77.8145 68.386 76.9541 69.5222C75.2207 71.768 73.3425 73.8983 71.3315 75.8994L68.5741 78.4039C68.5617 78.4154 68.5477 78.4252 68.5326 78.4329C66.7849 79.6022 55.7822 75.9927 51.8286 74.187C46.3863 71.6991 42.271 68.1746 36.8515 65.6867C30.1488 62.6162 21.4744 61.8367 14.3715 64.0094L11.9499 64.7475C11.9094 64.76 11.8657 64.757 11.8274 64.739C11.789 64.7209 11.7588 64.6892 11.7426 64.6501L10.1172 60.7856Z" fill="white"/>
<path d="M14.2408 68.5122C19.0362 67.0319 25.0486 64.4943 29.79 66.9863C33.159 68.761 36.074 70.9234 39.3912 72.8079C41.0622 73.7658 42.756 74.6738 44.4934 75.5031C47.3814 76.8756 50.3399 78.0677 53.2756 79.3262C56.2113 80.5846 59.2072 81.7684 62.3979 82.038C63.2944 82.1417 64.2023 82.0842 65.0786 81.868C64.3343 82.0753 63.5091 82.7553 62.8187 83.1326C61.3426 83.9371 59.8706 84.8285 58.2866 85.4028C50.8769 88.0794 42.6752 87.3081 35.4396 84.4595C31.8479 83.0072 28.4186 81.1817 25.2082 79.0131C22.146 76.9834 18.8309 74.8231 16.4073 72.0346C16.1855 71.7817 14.0044 68.5806 14.22 68.5101L14.2408 68.5122Z" fill="white"/>
<path d="M116.93 36.7003C118.03 36.0527 119.266 35.6728 120.54 35.5911C120.625 35.5857 120.71 35.5978 120.79 35.6266C120.87 35.6555 120.943 35.7004 121.005 35.7587C121.067 35.817 121.117 35.8874 121.15 35.9656C121.184 36.0437 121.201 36.128 121.201 36.2131V42.665C121.201 42.8299 121.136 42.9881 121.019 43.1048C120.902 43.2214 120.744 43.2869 120.579 43.2869H119.19C117.368 43.2869 116.001 43.6788 115.089 44.4625C114.177 45.2461 113.722 46.62 113.723 48.5841V59.0166C113.723 59.1815 113.657 59.3397 113.541 59.4564C113.424 59.573 113.266 59.6385 113.101 59.6385H107.049C106.884 59.6385 106.726 59.573 106.609 59.4564C106.493 59.3397 106.427 59.1815 106.427 59.0166V36.4515C106.427 36.2865 106.493 36.1283 106.609 36.0117C106.726 35.895 106.884 35.8295 107.049 35.8295H113.095C113.26 35.8295 113.418 35.895 113.535 36.0117C113.651 36.1283 113.717 36.2865 113.717 36.4515V38.2573C113.717 38.3631 113.75 38.4664 113.81 38.5532C113.871 38.64 113.957 38.7061 114.056 38.7427C114.155 38.7792 114.263 38.7845 114.366 38.7578C114.468 38.7311 114.56 38.6736 114.629 38.5931C115.291 37.8439 116.067 37.205 116.93 36.7003Z" fill="white"/>
<path d="M146.613 49.3741H131.236C131.161 49.3736 131.088 49.3892 131.02 49.4197C130.953 49.4502 130.893 49.4949 130.844 49.5507C130.795 49.6066 130.759 49.6724 130.738 49.7435C130.717 49.8146 130.711 49.8894 130.721 49.9629C130.907 51.1571 131.361 52.0921 132.086 52.768C132.922 53.5493 134.031 53.9714 135.175 53.9435C136.887 53.9435 138.11 53.2635 138.842 51.9034C138.888 51.8224 138.954 51.7553 139.035 51.7093C139.116 51.6633 139.208 51.6401 139.301 51.6422H145.912C146.012 51.6411 146.111 51.6642 146.2 51.7095C146.289 51.7548 146.366 51.821 146.425 51.9024C146.483 51.9838 146.52 52.078 146.534 52.1771C146.548 52.2762 146.538 52.3772 146.505 52.4715C146.082 53.7085 145.435 54.8575 144.598 55.8612C143.537 57.129 142.2 58.1368 140.69 58.8073C139.036 59.5381 137.244 59.9023 135.436 59.875C133.102 59.875 131.023 59.3767 129.202 58.3802C127.395 57.4003 125.911 55.9166 124.931 54.1093C123.904 52.26 123.391 50.0963 123.393 47.618C123.394 45.1398 123.899 42.9761 124.908 41.1268C125.879 39.3195 127.358 37.8362 129.162 36.86C130.984 35.8635 133.077 35.3652 135.44 35.3652C137.747 35.3652 139.797 35.849 141.591 36.8165C143.364 37.7648 144.824 39.2046 145.798 40.963C146.808 42.7598 147.314 44.853 147.314 47.2428C147.314 47.7459 147.29 48.2649 147.243 48.7998C147.231 48.9578 147.159 49.1052 147.042 49.2119C146.925 49.3187 146.771 49.3767 146.613 49.3741ZM139.162 45.3168C139.251 45.3177 139.34 45.2992 139.422 45.2625C139.504 45.2258 139.577 45.1719 139.636 45.1043C139.695 45.0367 139.739 44.9572 139.764 44.8711C139.79 44.785 139.796 44.6945 139.784 44.6056C139.671 43.7189 139.232 42.906 138.552 42.3251C137.698 41.5856 136.63 41.2152 135.349 41.2138C134.221 41.1803 133.119 41.56 132.252 42.2815C131.571 42.8712 131.086 43.6545 130.862 44.5269C130.837 44.6199 130.833 44.7176 130.852 44.8123C130.87 44.907 130.91 44.9961 130.969 45.0726C131.028 45.149 131.104 45.2107 131.191 45.2527C131.278 45.2947 131.373 45.3159 131.47 45.3147L139.162 45.3168Z" fill="white"/>
<path d="M175.52 42.2176C174.627 43.8279 173.255 45.1278 171.404 46.1174C169.554 47.107 167.257 47.6011 164.515 47.5998H160.024C159.87 47.5998 159.723 47.6609 159.614 47.7698C159.505 47.8786 159.444 48.0263 159.444 48.1803V58.9611C159.444 59.0526 159.426 59.1433 159.391 59.228C159.357 59.3126 159.305 59.3895 159.241 59.4543C159.176 59.519 159.099 59.5703 159.014 59.6052C158.93 59.6401 158.839 59.658 158.747 59.6577H151.968C151.783 59.6577 151.606 59.5843 151.475 59.4537C151.345 59.323 151.271 59.1458 151.271 58.9611V27.0001C151.271 26.7538 151.369 26.5175 151.543 26.3433C151.717 26.1691 151.954 26.0713 152.2 26.0713H164.523C167.205 26.0713 169.469 26.5336 171.317 27.4583C173.165 28.3829 174.553 29.6587 175.48 31.2855C176.405 32.9137 176.867 34.7796 176.867 36.8832C176.885 38.7477 176.421 40.5851 175.52 42.2176ZM167.386 39.9931C168.151 39.2591 168.534 38.2225 168.535 36.8832C168.536 35.5439 168.154 34.5073 167.386 33.7734C166.621 33.0394 165.456 32.6725 163.893 32.6725H160.024C159.87 32.6725 159.723 32.7336 159.614 32.8425C159.505 32.9514 159.444 33.099 159.444 33.253V40.5093C159.444 40.6632 159.505 40.8109 159.614 40.9198C159.723 41.0286 159.87 41.0898 160.024 41.0898H163.893C165.456 41.0912 166.621 40.7256 167.386 39.9931Z" fill="white"/>
<path d="M203.144 36.4516V59.027C203.144 59.192 203.078 59.3502 202.961 59.4668C202.845 59.5835 202.687 59.649 202.522 59.649H196.474C196.309 59.649 196.151 59.5835 196.034 59.4668C195.918 59.3502 195.852 59.192 195.852 59.027V57.8142C195.852 57.7127 195.823 57.6133 195.767 57.5285C195.711 57.4437 195.632 57.3772 195.538 57.3374C195.445 57.2976 195.342 57.2862 195.242 57.3046C195.142 57.323 195.05 57.3705 194.977 57.441C194.348 58.0515 193.627 58.5606 192.842 58.9503C191.536 59.6005 190.094 59.9302 188.635 59.9123C186.946 59.946 185.279 59.5257 183.809 58.6953C182.4 57.8697 181.27 56.6425 180.564 55.1708C179.796 53.6324 179.411 51.8246 179.409 49.7472V36.4516C179.409 36.2866 179.475 36.1284 179.591 36.0118C179.708 35.8951 179.866 35.8296 180.031 35.8296H186.044C186.208 35.8296 186.367 35.8951 186.483 36.0118C186.6 36.1284 186.665 36.2866 186.665 36.4516V48.7645C186.665 50.3581 187.08 51.5965 187.909 52.4797C188.739 53.3629 189.849 53.8045 191.241 53.8045C192.663 53.8045 193.788 53.3629 194.614 52.4797C195.441 51.5965 195.855 50.3581 195.858 48.7645V36.4516C195.858 36.2866 195.924 36.1284 196.04 36.0118C196.157 35.8951 196.315 35.8296 196.48 35.8296H202.528C202.692 35.8312 202.848 35.8975 202.964 36.0139C203.079 36.1304 203.144 36.2877 203.144 36.4516Z" fill="white"/>
<path d="M218.181 36.7005C219.282 36.0519 220.521 35.6713 221.796 35.5893C221.881 35.5848 221.965 35.5975 222.045 35.6267C222.124 35.656 222.197 35.7011 222.258 35.7593C222.319 35.8175 222.368 35.8876 222.401 35.9653C222.435 36.043 222.452 36.1267 222.452 36.2112V42.6756C222.452 42.8405 222.386 42.9987 222.269 43.1154C222.153 43.232 221.995 43.2975 221.83 43.2975H220.445C218.62 43.2975 217.253 43.6894 216.344 44.4731C215.434 45.2568 214.979 46.6306 214.978 48.5947V59.0272C214.978 59.1921 214.912 59.3503 214.795 59.467C214.679 59.5836 214.521 59.6491 214.356 59.6491H208.308C208.143 59.6491 207.985 59.5836 207.868 59.467C207.752 59.3503 207.686 59.1921 207.686 59.0272V36.4517C207.686 36.2868 207.752 36.1286 207.868 36.0119C207.985 35.8953 208.143 35.8298 208.308 35.8298H214.356C214.521 35.8298 214.679 35.8953 214.795 36.0119C214.912 36.1286 214.978 36.2868 214.978 36.4517V38.2575C214.978 38.3634 215.01 38.4667 215.071 38.5534C215.132 38.6402 215.217 38.7063 215.317 38.7429C215.416 38.7795 215.524 38.7848 215.627 38.758C215.729 38.7313 215.821 38.6738 215.89 38.5934C216.548 37.8446 217.321 37.2056 218.181 36.7005Z" fill="white"/>
<path d="M259.521 58.5028C257.677 57.5276 256.151 56.0458 255.122 54.2319C254.055 52.3812 253.521 50.2175 253.521 47.7406C253.521 45.2928 254.062 43.136 255.144 41.2701C256.184 39.4443 257.725 37.9544 259.585 36.9764C261.548 35.9927 263.713 35.4805 265.909 35.4805C268.104 35.4805 270.269 35.9927 272.232 36.9764C274.091 37.9573 275.63 39.4492 276.669 41.2763C277.751 43.1394 278.292 45.2963 278.292 47.7469C278.292 50.1974 277.744 52.3536 276.648 54.2153C275.591 56.0431 274.035 57.5323 272.164 58.509C270.205 59.5214 268.026 60.0349 265.822 60.0038C263.629 60.0369 261.463 59.5209 259.521 58.5028ZM269.387 52.138C270.37 51.1138 270.861 49.648 270.859 47.7406C270.858 45.8333 270.381 44.3668 269.429 43.3412C268.977 42.8576 268.43 42.4717 267.823 42.2072C267.216 41.9427 266.562 41.8053 265.9 41.8033C265.237 41.8014 264.582 41.935 263.973 42.1959C263.365 42.4568 262.816 42.8395 262.361 43.3205C261.423 44.3309 260.953 45.8042 260.951 47.7406C260.951 49.648 261.414 51.1138 262.341 52.138C262.773 52.6337 263.308 53.0285 263.91 53.2943C264.511 53.5602 265.164 53.6906 265.822 53.6763C266.491 53.6844 267.154 53.5517 267.768 53.2866C268.383 53.0216 268.934 52.6302 269.387 52.138Z" fill="white"/>
<path d="M285.971 58.93C284.459 58.2998 283.135 57.2892 282.128 55.9963C281.357 54.9936 280.845 53.8166 280.637 52.5693C280.62 52.4785 280.623 52.3849 280.646 52.2955C280.67 52.2061 280.713 52.123 280.772 52.0523C280.832 51.9816 280.906 51.9251 280.991 51.8868C281.075 51.8486 281.166 51.8296 281.259 51.8312H287.35C287.465 51.8324 287.576 51.8727 287.665 51.9455C287.754 52.0182 287.815 52.119 287.839 52.2313C287.997 52.88 288.382 53.4503 288.926 53.8381C289.657 54.367 290.543 54.6377 291.445 54.6073C292.357 54.6073 293.062 54.4297 293.559 54.0745C293.791 53.9244 293.98 53.7185 294.111 53.4757C294.241 53.2328 294.308 52.961 294.306 52.6854C294.306 52.0026 293.951 51.4974 293.24 51.1699C292.53 50.8423 291.376 50.4795 289.78 50.0814C288.329 49.759 286.902 49.3378 285.509 48.8209C284.369 48.379 283.356 47.66 282.563 46.729C281.734 45.7753 281.319 44.4864 281.319 42.8624C281.309 41.5324 281.704 40.2309 282.451 39.1306C283.206 38.0041 284.316 37.114 285.783 36.4603C287.249 35.8065 288.993 35.4789 291.013 35.4775C294.003 35.4775 296.36 36.2184 298.083 37.7C299.626 39.0227 300.644 40.8552 300.95 42.8645C300.966 42.9545 300.962 43.0469 300.937 43.1351C300.913 43.2232 300.87 43.3049 300.81 43.3744C300.751 43.4439 300.677 43.4994 300.594 43.537C300.51 43.5747 300.42 43.5935 300.329 43.5922H294.731C294.615 43.5911 294.503 43.5512 294.413 43.4791C294.323 43.4069 294.26 43.3066 294.233 43.1941C294.081 42.5735 293.725 42.0221 293.221 41.6288C292.609 41.1437 291.805 40.9018 290.808 40.9032C289.954 40.9032 289.3 41.067 288.845 41.3946C288.627 41.5428 288.45 41.7436 288.33 41.9785C288.211 42.2133 288.152 42.4746 288.161 42.738C288.161 43.4222 288.524 43.935 289.249 44.2763C289.975 44.6177 291.107 44.9591 292.645 45.3005C294.109 45.6624 295.55 46.1117 296.959 46.6461C298.095 47.1069 299.1 47.8403 299.885 48.7815C300.725 49.7642 301.159 51.0814 301.187 52.7331C301.204 54.0703 300.792 55.3779 300.013 56.4649C299.23 57.5609 298.105 58.4227 296.638 59.0502C295.172 59.6777 293.471 59.9908 291.536 59.9894C289.628 60.0273 287.732 59.6664 285.971 58.93Z" fill="white"/>
<path d="M327.289 49.4903H311.91C311.835 49.4898 311.762 49.5054 311.694 49.5359C311.627 49.5664 311.566 49.6111 311.518 49.6669C311.469 49.7228 311.433 49.7886 311.412 49.8597C311.391 49.9308 311.385 50.0056 311.395 50.0791C311.579 51.276 312.034 52.2117 312.76 52.8862C313.597 53.6685 314.709 54.09 315.855 54.0597C317.569 54.0597 318.792 53.3797 319.525 52.0196C319.569 51.9389 319.634 51.8717 319.713 51.825C319.792 51.7783 319.883 51.7538 319.974 51.7543H326.588C326.688 51.7532 326.787 51.7763 326.876 51.8216C326.965 51.8669 327.042 51.933 327.101 52.0144C327.159 52.0958 327.196 52.1901 327.21 52.2891C327.224 52.3882 327.214 52.4892 327.181 52.5835C326.758 53.8206 326.111 54.9696 325.274 55.9733C324.214 57.2423 322.877 58.2509 321.366 58.9214C319.712 59.651 317.92 60.0152 316.112 59.9891C313.778 59.9891 311.699 59.4909 309.876 58.4943C308.069 57.5132 306.586 56.0298 305.605 54.2235C304.581 52.3728 304.069 50.209 304.069 47.7322C304.069 45.2554 304.574 43.0909 305.584 41.2388C306.553 39.4306 308.031 37.9458 309.834 36.9679C311.655 35.9728 313.747 35.4745 316.112 35.4731C318.417 35.4731 320.467 35.9569 322.261 36.9244C324.034 37.8721 325.495 39.3121 326.468 41.0709C327.48 42.8677 327.985 44.9603 327.985 47.3486C327.985 47.8524 327.961 48.3728 327.915 48.9077C327.905 49.0665 327.834 49.2153 327.718 49.3237C327.601 49.432 327.448 49.4917 327.289 49.4903ZM319.838 45.433C319.927 45.4338 320.016 45.4154 320.098 45.3788C320.179 45.3423 320.252 45.2885 320.311 45.2212C320.37 45.1538 320.414 45.0746 320.44 44.9887C320.465 44.9029 320.472 44.8126 320.46 44.7239C320.345 43.8377 319.906 43.0254 319.228 42.4434C318.374 41.7025 317.306 41.3328 316.025 41.3342C314.897 41.2997 313.795 41.6795 312.928 42.4019C312.246 42.9915 311.761 43.7747 311.536 44.6472C311.511 44.7403 311.508 44.8379 311.526 44.9325C311.545 45.0271 311.586 45.1161 311.645 45.1923C311.704 45.2685 311.78 45.3299 311.867 45.3717C311.954 45.4135 312.049 45.4344 312.146 45.433H319.838Z" fill="white"/>
<path d="M249.439 41.2472C248.603 39.4986 247.293 38.0191 245.659 36.9764C244.059 35.9792 242.207 35.4605 240.321 35.4816C238.639 35.4816 237.172 35.8237 235.921 36.5078C235.159 36.9165 234.465 37.4419 233.865 38.0648C233.793 38.1395 233.701 38.191 233.6 38.2128C233.499 38.2345 233.394 38.2255 233.299 38.1869C233.203 38.1483 233.121 38.0818 233.063 37.9961C233.006 37.9104 232.975 37.8094 232.975 37.7062V36.4622C232.975 36.2973 232.91 36.1391 232.793 36.0224C232.677 35.9058 232.518 35.8402 232.353 35.8402H226.306C226.141 35.8402 225.983 35.9058 225.866 36.0224C225.749 36.1391 225.684 36.2973 225.684 36.4622V70.3886C225.684 70.5536 225.749 70.7118 225.866 70.8284C225.983 70.9451 226.141 71.0106 226.306 71.0106H232.353C232.518 71.0106 232.677 70.9451 232.793 70.8284C232.91 70.7118 232.975 70.5536 232.975 70.3886V57.7875C232.975 57.6848 233.005 57.5842 233.062 57.4988C233.12 57.4134 233.201 57.347 233.296 57.308C233.391 57.269 233.495 57.2593 233.596 57.2801C233.697 57.3009 233.789 57.3512 233.861 57.4247C234.468 58.0434 235.168 58.565 235.934 58.9713C237.284 59.6756 238.79 60.0285 240.313 59.9976C242.201 60.0184 244.055 59.492 245.651 58.482C247.287 57.4229 248.596 55.9289 249.431 54.1676C250.355 52.3031 250.818 50.1463 250.818 47.6971C250.818 45.2479 250.358 43.0979 249.439 41.2472ZM242.527 52.0281C242.051 52.5319 241.477 52.9336 240.841 53.2088C240.205 53.484 239.519 53.6269 238.826 53.6288C238.133 53.6308 237.447 53.4917 236.809 53.2201C236.172 52.9484 235.596 52.5499 235.117 52.0488C234.105 50.9956 233.599 49.5581 233.599 47.7365C233.599 45.9148 234.105 44.4766 235.117 43.4221C235.587 42.9139 236.159 42.5106 236.795 42.2384C237.431 41.9662 238.118 41.8312 238.809 41.8423C239.506 41.8287 240.197 41.9603 240.84 42.2288C241.482 42.4972 242.062 42.8965 242.541 43.4013C243.55 44.4393 244.055 45.8699 244.057 47.6929C244.058 49.516 243.548 50.9624 242.527 52.0322V52.0281Z" fill="white"/>
</svg>
