<svg width="96" height="102" viewBox="0 0 96 102" fill="none" xmlns="http://www.w3.org/2000/svg">
<path d="M96 0C96 0 91.5519 23.9421 68.982 23.9421L96 102H87.7628L66.6756 64.6109C65.0282 72.6463 59.4269 81.6656 50.2012 87.4051C65.0282 87.2412 81.5025 90.8489 87.7628 102H16.264C-13.3899 78.2219 3.90821 44.7685 17.9114 36.7331C10.9922 53.6238 6.54411 83.1415 18.2409 95.9325L48.8833 0V16.5627C48.8833 21.1543 52.6724 24.926 57.2852 24.926C61.898 24.926 65.6871 21.1543 65.6871 16.5627C65.8519 8.19936 59.7564 1.3119 51.6839 0H96ZM66.8403 6.72347C66.8403 8.36334 68.1583 9.67524 69.8057 9.67524C71.4532 9.67524 72.7711 8.36334 72.7711 6.72347C72.7711 5.0836 71.4532 3.7717 69.8057 3.7717C68.1583 3.7717 66.8403 5.0836 66.8403 6.72347Z" fill="#FF7F00"/>
</svg>
