<svg width="101" height="88" viewBox="0 0 101 88" fill="none" xmlns="http://www.w3.org/2000/svg">
<path d="M62.6 5.70003C62.6 5.70003 63.1 5.60003 63.9 5.40003L64.3 3.80003C65.3 0.100029 69.8 -1.19997 72.6 1.30003L75.9 4.30003C84.7 4.50003 94.8 7.50003 96.6 19.5C98.7 19.1 100.7 20.7 100.7 23V33.8C100.7 38.4 97 42.2 92.3 42.2H78.1V88H72.8C72.8 88 69.6 78.8 68.5 63.6C67 65.3 65.4 66.8 63.7 68.3V88H58.4C58.4 88 55.5 83.7 53.3 75.3C46.5 79 39.6 81.3 34.3 82.6C37.3 84.1 38 88 38 88H0C0 39.5 35.7 12.7 62.6 5.70003ZM85 19.6C86.1 19.6 87 18.7 87 17.6C87 16.5 86.1 15.6 85 15.6C83.9 15.6 83 16.5 83 17.6C83 18.7 83.9 19.6 85 19.6Z" fill="#161345"/>
</svg>
