<svg width="130" height="75" viewBox="0 0 130 75" fill="none" xmlns="http://www.w3.org/2000/svg">
<path d="M0 -4.38048e-05C0 -4.38048e-05 22.5 -1.30005 44.2 27.8C64.8 10.4 83.6 -4.38048e-05 121.5 -4.38048e-05L112.2 11.5L129.6 24C129.6 24 119.1 32.5 107.5 24.1L106 37.2L129.7 74.5H121.3L92.2 44.3C90.6 46.9 86.3 49.4 78 50.9C65.8 53.1 54.1 51.3 49.8 46.5C44.2 57.3 21.2 71.8 0 74.5L39.3 32.6C39.3 32.5 0 36.8 0 -4.38048e-05ZM108.2 16C109 16 109.7 15.3 109.7 14.5C109.7 13.7 109 13 108.2 13C107.4 13 106.7 13.7 106.7 14.5C106.7 15.3 107.3 16 108.2 16Z" fill="#161345"/>
</svg>
