<svg width="91" height="92" viewBox="0 0 91 92" fill="none" xmlns="http://www.w3.org/2000/svg">
<path d="M80.8889 50.1689L91 35.5778L78.2902 31.1246L76.8728 26.3872C76.1641 23.9712 74.3686 21.9815 72.0062 21.034C71.014 20.6076 69.9273 20.4181 68.8878 20.4181H58.9657L40.5862 14.9701L45.5 28.8033L48.7129 37.8043L27.4512 22.3605C21.8759 17.9547 14.9304 17.7652 9.44964 20.4655L0 0V35.7199V38.2307V91.9526H10.3474L14.6942 54.622C16.3006 72.9083 33.8297 91.9053 33.8297 91.9053L42.4761 91.9526L28.0654 60.6385L45.5472 67.3656C49.7051 82.7147 65.9112 92 65.9112 92H74.7466L58.9657 70.587H64.73C71.4865 85.794 83.204 91.9526 83.204 91.9526H91L64.8718 50.1689H80.8889ZM69.7856 26.482C71.4392 26.482 72.8094 27.8084 72.8094 29.5139C72.8094 31.172 71.4865 32.5458 69.7856 32.5458C68.1319 32.5458 66.7617 31.2194 66.7617 29.5139C66.8089 27.8558 68.1319 26.482 69.7856 26.482Z" fill="#161345"/>
</svg>
