<svg width="95" height="66" viewBox="0 0 95 66" fill="none" xmlns="http://www.w3.org/2000/svg">
<g clip-path="url(#clip0)">
<path d="M90.4 32.6998C93.7 30.0998 95.7 25.7998 94.8 21.0998C93.9 16.5998 90.4 12.8998 85.9 11.8998C79.4 10.4998 73.5 14.4998 71.9 20.2998C71.5 21.7998 70.2 22.8998 68.7 22.8998H26.3C24.8 22.8998 23.5 21.7998 23.1 20.2998C21.5 14.4998 15.6 10.4998 9.1 11.8998C4.6 12.8998 0.999998 16.5998 0.199998 21.0998C-0.700002 25.7998 1.2 30.0998 4.6 32.6998C1.3 35.2998 -0.700002 39.5998 0.199998 44.2998C0.999998 48.7998 4.6 52.5998 9.1 53.4998C15.6 54.8998 21.5 50.8998 23.1 45.0998C23.5 43.5998 24.8 42.4998 26.3 42.4998H68.6C70.1 42.4998 71.4 43.5998 71.8 45.0998C73.4 50.8998 79.3 54.8998 85.8 53.4998C90.3 52.4998 93.9 48.7998 94.7 44.2998C95.7 39.5998 93.7 35.2998 90.4 32.6998Z" fill="#161345"/>
<path d="M47.5 13.3C49.1 13.3 50.3 12 50.3 10.5V2.8C50.3 1.2 49 0 47.5 0C45.9 0 44.7 1.3 44.7 2.8V10.5C44.7 12 45.9 13.3 47.5 13.3Z" fill="#161345"/>
<path d="M58.2 15.6998C58.6 15.8998 59 15.9998 59.4 15.9998C60.5 15.9998 61.5 15.3998 62 14.3998L65.3 7.39981C66 5.99981 65.3 4.29981 63.9 3.59981C62.5 2.89981 60.8 3.59981 60.1 4.99981L56.8 11.9998C56.2 13.2998 56.8 14.9998 58.2 15.6998Z" fill="#161345"/>
<path d="M33.1 14.2996C33.6 15.2996 34.6 15.8996 35.7 15.8996C36.1 15.8996 36.5 15.7996 36.9 15.5996C38.3 14.8996 38.9 13.2996 38.3 11.7996L35 4.79965C34.3 3.39965 32.7 2.79965 31.2 3.39965C29.8 4.09965 29.2 5.69965 29.8 7.19965L33.1 14.2996Z" fill="#161345"/>
<path d="M47.5 52.0996C45.9 52.0996 44.7 53.3996 44.7 54.8996V62.5996C44.7 64.1996 46 65.3996 47.5 65.3996C49 65.3996 50.3 64.0996 50.3 62.5996V54.8996C50.3 53.3996 49.1 52.0996 47.5 52.0996Z" fill="#161345"/>
<path d="M36.8 49.7004C35.4 49.0004 33.7 49.7004 33 51.1004L29.7 58.1004C29 59.5004 29.7 61.2004 31.1 61.9004C31.5 62.1004 31.9 62.2004 32.3 62.2004C33.4 62.2004 34.4 61.6004 34.9 60.6004L38.2 53.6004C38.8 52.1004 38.2 50.4004 36.8 49.7004Z" fill="#161345"/>
<path d="M61.9 51.1004C61.2 49.7004 59.6 49.1004 58.1 49.7004C56.7 50.4004 56.1 52.0004 56.7 53.5004L60 60.5004C60.5 61.5004 61.5 62.1004 62.6 62.1004C63 62.1004 63.4 62.0004 63.8 61.8004C65.2 61.1004 65.8 59.5004 65.2 58.0004L61.9 51.1004Z" fill="#161345"/>
</g>
<defs>
<clipPath id="clip0">
<rect width="95" height="65.4" fill="white"/>
</clipPath>
</defs>
</svg>
