<svg width="390" height="219" viewBox="0 0 390 219" fill="none" xmlns="http://www.w3.org/2000/svg">
<g clip-path="url(#clip0_1_38)">
<path d="M274.821 49.5643C279.87 45.5082 287.479 47.2983 292.981 50.7145C300.948 55.6588 306.858 63.3681 314.64 68.5971C330.878 79.5084 352.849 77.8755 370.948 70.4532C373.658 69.3418 376.584 67.8364 377.548 65.0716C378.028 71.8562 378.042 78.6749 377.584 85.4594C377.393 88.2926 377.101 91.1918 375.851 93.7426C373.091 99.3725 366.256 102.187 363.671 107.899C360.462 114.996 365.026 123.514 362.865 130.995C359.481 142.708 342.304 145.275 337.767 156.591C336.194 160.515 336.385 165.066 334.301 168.746C331.869 173.046 326.89 175.191 322.112 176.449C317.801 177.581 313.364 178.23 308.91 178.375C306.732 178.448 304.459 178.421 302.514 179.402C300.904 180.216 296.853 184.568 295.691 185.948C292.769 189.428 292.692 189.974 289.77 193.454C289.41 193.883 289.005 194.34 288.456 194.447C287.989 194.541 287.515 194.359 287.076 194.174C278.71 190.642 271.889 184.049 266.89 176.467C261.891 168.885 258.587 160.317 255.829 151.665C246.887 123.63 243.316 93.8382 245.908 64.525C246.193 61.3161 246.582 58.0046 248.202 55.2193C250.424 51.3932 254.838 49.0838 259.263 48.954C263.686 48.8242 268.038 50.7099 271.334 53.6661C273.04 52.2677 273.115 50.9604 274.821 49.5621" fill="#FBE122"/>
<path d="M238.971 53.4452C240.581 50.5027 280.368 47.1389 283.723 47.1548C287.078 47.1707 290.289 48.5236 293.186 50.2134C298.317 53.2083 302.721 57.2895 307.654 60.5987C313.977 64.8393 321.075 67.7545 328.12 70.6423C330.841 71.7582 333.586 72.8787 336.476 73.4162C341.349 74.3227 346.358 73.521 351.25 72.7193C360.922 71.1365 371.198 69.2667 378.376 62.596C381.387 72.4734 385.275 82.082 389.982 91.2715C384.077 94.5055 377.34 95.8629 370.674 96.7989C361.207 98.1267 351.539 98.6801 342.103 97.1428C332.668 95.6055 323.426 91.8637 316.366 85.4185C309.474 79.1281 305.01 70.6628 299.08 63.4592C293.147 56.2555 284.647 49.9652 275.355 50.8238" fill="#CBE6FF"/>
<path d="M184.138 56.424L205.195 57.7381C214.838 40.4317 229.309 34.6857 229.309 34.6857L214.706 15.8374L217.625 8.93439L234.226 12.9587C234.435 12.5783 234.654 12.2026 234.886 11.829C242.083 0.245874 257.306 -3.30925 268.889 3.88754C280.814 -3.81029 294.62 2.29559 294.62 2.29559C294.62 2.29559 287.717 8.93439 276.83 37.8901C256.099 93.0411 258.652 138.688 282.253 212.959C306.558 209.911 325.593 189.296 326.324 164.49C326.622 154.321 323.908 144.806 319.007 136.771C330.797 145.594 338.424 159.671 338.424 175.531C338.424 176.114 338.415 176.692 338.395 177.268C337.579 200.351 318.116 218.406 295.018 218.406H214.99C214.99 218.406 222.914 199.982 241.719 217.067C241.719 217.067 190.822 139.939 197.351 83.0134C193.937 79.784 191.378 76.5318 189.462 73.3911C189.216 73.9514 188.945 74.5048 188.617 75.04C184.714 81.4169 176.381 83.4234 170.001 79.5198L184.14 56.4218L184.138 56.424ZM248.31 20.1441C250.983 20.1441 253.152 17.9759 253.152 15.3022C253.152 12.6284 250.983 10.4603 248.31 10.4603C245.636 10.4603 243.468 12.6284 243.468 15.3022C243.468 17.9759 245.636 20.1441 248.31 20.1441Z" fill="#161345"/>
<path d="M222.942 38.2522C223.204 38.5756 223.461 38.8808 223.714 39.1723L222.955 38.2454L222.942 38.2522Z" fill="#FBE122"/>
<path d="M222.898 38.1748L222.955 38.2454L223.714 39.1723C225.711 41.4885 227.314 42.7866 227.314 42.7866C227.314 42.7866 242.118 58.3098 271.078 59.5237L272.932 51.4114C243.974 50.1975 229.168 34.672 229.168 34.672L229.159 34.6766L229.164 34.6629C227.082 35.5899 224.969 36.7628 222.898 38.1748Z" fill="#FBE122"/>
</g>
<g clip-path="url(#clip1_1_38)">
<circle cx="43.5" cy="72.5" r="42.5" fill="#CBE6FF"/>
<path d="M43.5 116C37.6275 116 31.9313 114.849 26.5674 112.581C21.3878 110.391 16.7352 107.254 12.7404 103.26C8.74561 99.2648 5.60939 94.6131 3.41861 89.4325C1.15065 84.0687 0 78.3725 0 72.5C0 66.6275 1.15065 60.9313 3.41861 55.5674C5.60939 50.3878 8.74561 45.7352 12.7404 41.7404C16.7352 37.7456 21.3869 34.6094 26.5674 32.4186C31.9313 30.1506 37.6275 29 43.5 29C49.3725 29 55.0687 30.1506 60.4325 32.4186C65.6122 34.6094 70.2648 37.7456 74.2596 41.7404C78.2544 45.7352 81.3906 50.3869 83.5814 55.5674C85.8502 60.9313 87 66.6275 87 72.5C87 78.3725 85.8494 84.0687 83.5814 89.4325C81.3906 94.6122 78.2544 99.2648 74.2596 103.26C70.2648 107.254 65.6131 110.391 60.4325 112.581C55.0687 114.85 49.3725 116 43.5 116ZM43.5 30.8417C37.8757 30.8417 32.4207 31.9433 27.2848 34.1148C22.3244 36.2126 17.8692 39.2164 14.0428 43.0428C10.2164 46.8692 7.21258 51.3244 5.11476 56.2848C2.94239 61.4198 1.84173 66.8757 1.84173 72.5C1.84173 78.1243 2.94327 83.5793 5.11476 88.7152C7.21258 93.6756 10.2164 98.1308 14.0428 101.957C17.8692 105.784 22.3244 108.787 27.2848 110.885C32.4198 113.058 37.8757 114.158 43.5 114.158C49.1243 114.158 54.5793 113.057 59.7152 110.885C64.6756 108.787 69.1308 105.784 72.9572 101.957C76.7836 98.1308 79.7874 93.6756 81.8852 88.7152C84.0576 83.5802 85.1583 78.1243 85.1583 72.5C85.1583 66.8757 84.0567 61.4207 81.8852 56.2848C79.7874 51.3244 76.7836 46.8692 72.9572 43.0428C69.1308 39.2164 64.6756 36.2126 59.7152 34.1148C54.5802 31.9424 49.1243 30.8417 43.5 30.8417Z" fill="#161345"/>
<path d="M8.32982 86.6991L14.6611 84.5281L13.4982 81.138L14.976 80.6312L16.6801 85.6005L8.871 88.2783L8.32982 86.6991Z" fill="#161345"/>
<path d="M6.49176 79.3397L14.6357 77.985L14.9099 79.632L6.76597 80.9868L6.49176 79.3397Z" fill="#161345"/>
<path d="M8.98344 68.5877L8.91195 70.424C8.04316 70.6973 7.58796 71.3534 7.54814 72.3787C7.51918 73.1136 7.75628 73.7208 8.24407 74.1995C8.73186 74.6629 9.38073 74.9181 10.1771 74.9489C10.9726 74.9796 11.6405 74.776 12.178 74.3525C12.7011 73.9127 12.9844 73.3262 13.0133 72.576C13.0541 71.5199 12.6224 70.7977 11.7328 70.4267L11.8016 68.6665C13.7265 69.2321 14.6405 70.5552 14.56 72.6366C14.512 73.8765 14.074 74.8864 13.2323 75.6349C12.3907 76.3842 11.3509 76.7263 10.1111 76.6783C8.87122 76.6303 7.87574 76.2077 7.09564 75.3959C6.31555 74.5842 5.95627 73.5579 6.00423 72.319C6.08478 70.2375 7.20605 69.0086 8.98525 68.5877H8.98344Z" fill="#161345"/>
<path d="M9.14466 58.9551L11.8035 62.6773L17.1502 61.0501L16.5103 62.9515L12.666 64.1959L13.6886 65.8167L15.3583 66.3787L14.8262 67.9606L7.00166 65.3289L7.53379 63.747L11.4678 65.0701L8.50032 60.8728L9.14466 58.9569V58.9551Z" fill="#161345"/>
<path d="M15.913 54.4012L17.1519 55.1641L14.6234 59.2727L13.3845 58.5098L15.913 54.4012Z" fill="#161345"/>
<path d="M19.6218 48.2808L18.4942 49.4907C18.001 49.031 17.439 49.0726 16.9901 49.5541C16.572 50.002 16.5792 50.5116 16.9937 50.898C17.4417 51.3161 17.839 51.2048 18.9023 50.6256C20.5729 49.7324 21.5259 49.7206 22.4336 50.5668C23.5874 51.6428 23.4662 53.1423 22.3386 54.3523C21.0327 55.7523 19.5177 55.8057 18.353 54.7405L19.4707 53.5414C20.1177 54.0826 20.7449 54.0392 21.3195 53.4229C21.8209 52.8853 21.8209 52.2781 21.4064 51.8917C21.0028 51.5152 20.487 51.6202 19.487 52.1758C17.9449 53.0211 16.9421 53.1532 15.9675 52.2446C14.9032 51.2527 14.8743 49.8011 16.0127 48.5803C17.0987 47.4156 18.4381 47.2817 19.6218 48.2808Z" fill="#161345"/>
<path d="M24.1083 42.2011L31.3572 47.374L29.8323 48.3442L28.2413 47.2138L25.3599 49.0473L25.7228 50.9587L24.1852 51.9369L22.5707 43.1794L24.1083 42.2011ZM24.406 44.3532L24.5191 44.8446L25.0503 47.6473L27.1182 46.3315L24.7915 44.6717L24.4078 44.3532H24.406Z" fill="#161345"/>
<path d="M34.0978 37.9431L34.581 39.3965L31.5575 40.401L32.1566 42.2037L34.715 41.353L35.1792 42.7485L32.6208 43.5992L33.6788 46.782L32.0941 47.3087L29.4896 39.4743L34.0969 37.9431H34.0978Z" fill="#161345"/>
<path d="M41.6738 36.8435L41.8457 38.3657L38.6041 38.7322L38.8041 40.4979L41.6041 40.1811L41.7697 41.6418L38.9697 41.9585L39.1887 43.8915L42.4303 43.525L42.6023 45.0472L37.7018 45.602L36.7733 37.3992L41.6738 36.8444V36.8435Z" fill="#161345"/>
<path d="M53.042 38.097L52.7488 39.6002L49.6212 38.9912L49.2583 40.8554L51.9044 41.3704L51.623 42.8138L48.9768 42.2989L48.3361 45.5912L46.6972 45.2726L48.2755 37.1685L53.042 38.0961V38.097Z" fill="#161345"/>
<path d="M59.5422 40.4788C60.6861 41.0345 61.449 41.8472 61.8246 42.9323C62.2065 44.0038 62.1169 45.1006 61.5748 46.2164C61.0328 47.3323 60.2264 48.0816 59.1413 48.4572C58.0563 48.8327 56.9458 48.7359 55.802 48.1803C54.6581 47.6246 53.8951 46.8119 53.5196 45.7268C53.144 44.6418 53.2345 43.5449 53.7757 42.4291C54.3178 41.3132 55.1241 40.5639 56.202 40.2019C57.287 39.8263 58.3974 39.9232 59.5413 40.4788H59.5422ZM55.3332 43.1856C54.9784 43.916 54.8979 44.6083 55.1042 45.2707C55.3105 45.9332 55.7757 46.4481 56.478 46.7893C57.1802 47.1305 57.859 47.1703 58.5069 46.9232C59.1549 46.6762 59.649 46.1839 60.0038 45.4535C60.3585 44.7232 60.4328 44.0445 60.2264 43.382C60.0201 42.7196 59.5685 42.211 58.8662 41.8698C57.4336 41.1739 56.0354 41.7377 55.3332 43.1847V43.1856Z" fill="#161345"/>
<path d="M67.9141 46.2526C69.2906 47.4707 69.4725 49.0436 68.4163 50.2364C67.7458 50.9929 66.9249 51.2273 65.9313 50.9405L64.9756 54.6762L63.5765 53.4373L64.4679 50.0735L63.7919 49.4744L61.7303 51.802L60.4805 50.6952L65.953 44.5151L67.9141 46.2508V46.2526ZM66.1883 46.7703L64.7159 48.4327L65.4272 49.0626C66.0353 49.6011 66.6562 49.6391 67.1331 49.0997C67.61 48.5603 67.5068 47.9377 66.8996 47.3993L66.1892 46.7694L66.1883 46.7703Z" fill="#161345"/>
<path d="M77.337 58.5207L70.3035 62.8438L69.4211 61.4085L73.8845 58.6655L73.0773 58.8737L68.2501 59.5035L67.5442 58.3551L70.2935 54.346L70.8356 53.7071L66.3731 56.4501L65.4989 55.0275L72.5325 50.7044L73.5433 52.3487L70.3198 57.2248L70.0112 57.6302L70.5116 57.5379L76.3261 56.8773L77.337 58.5216V58.5207Z" fill="#161345"/>
<path d="M80.2264 68.9406L75.4246 70.0646C73.2771 70.5669 71.7495 69.6194 71.2472 67.4718C70.7413 65.3098 71.6897 63.7822 73.8373 63.2791L78.6391 62.1551L79.0228 63.7958L74.221 64.9198C72.9685 65.213 72.478 65.9415 72.754 67.1189C73.0264 68.2818 73.7884 68.7171 75.0418 68.4239L79.8436 67.2999L80.2274 68.9406H80.2264Z" fill="#161345"/>
<path d="M80.4255 74.014L73.7331 73.9181L73.6815 77.5018L72.1195 77.4792L72.1956 72.2267L80.4499 72.3452L80.4255 74.0149V74.014Z" fill="#161345"/>
<path d="M78.8986 84.6241L70.0578 85.6901L70.5302 83.9453L72.4668 83.7082L73.3592 80.4114L71.8026 79.2439L72.2786 77.4846L79.3746 82.8648L78.8986 84.6241ZM77.2271 83.2358L76.8126 82.9489L74.5311 81.2367L73.8913 83.6023L76.7293 83.2593L77.228 83.2358H77.2271Z" fill="#161345"/>
<path d="M37.6626 64.2954C39.4131 59.6867 51.8404 59.7332 52.4114 64.8646C52.9814 70.0004 46.9704 75.024 44.7796 74.6118C42.4695 74.1768 35.8244 69.1331 37.6626 64.2954Z" fill="#161345"/>
<path d="M39.1532 65.6101C38.9472 64.4919 39.6777 63.4132 40.7863 63.1948C41.8939 62.9808 42.9595 63.7131 43.1665 64.8278C43.3726 65.946 42.6411 67.0291 41.5335 67.2431C40.4249 67.4606 39.3593 66.7283 39.1532 65.6101Z" fill="#161345"/>
<path d="M54.6 83.703C49.7527 83.703 45.622 80.4291 43.4154 74.76C43.1576 74.097 43.4856 73.3498 44.1486 73.0919C44.8116 72.8332 45.5588 73.1621 45.8167 73.8251C47.7382 78.7601 51.3199 81.4736 55.4007 81.0868C58.7272 80.7702 61.4407 78.4172 62.0003 75.366C62.1292 74.6662 62.801 74.2031 63.5 74.3312C64.1998 74.4592 64.6638 75.131 64.5348 75.8309C63.7683 80.0107 60.1129 83.2276 55.6445 83.653C55.2928 83.6863 54.9438 83.703 54.5991 83.703H54.6Z" fill="#2D2D2D"/>
<path d="M33.7643 83.2749H33.7055C28.1873 83.2521 23.5637 80.0615 21.9272 75.1467C21.7026 74.4714 22.0675 73.7417 22.7428 73.5172C23.4172 73.2936 24.1478 73.6575 24.3723 74.3328C25.6545 78.1821 29.3222 80.6807 33.716 80.6982H33.7607C37.3539 80.6982 41.7767 78.9363 43.4711 73.9847C43.7017 73.312 44.4323 72.9524 45.1076 73.1831C45.7811 73.4137 46.1398 74.146 45.9092 74.8196C44.1499 79.9615 39.3859 83.2758 33.7634 83.2758L33.7643 83.2749Z" fill="#161345"/>
<path d="M34.5753 81.784C34.5753 81.784 37.1959 90.8471 44.7978 90.7182C52.4007 90.5893 54.7844 82.5997 54.7844 82.5997C54.7844 82.5997 45.7643 81.5043 44.6689 73.5795C42.65 81.4402 34.5745 81.784 34.5745 81.784H34.5753Z" fill="#161345"/>
<path d="M62.9244 80.7526C58.3648 84.993 50.6401 83.3301 46.7189 79.7177C54.256 78.9617 51.1987 72.8244 57.4264 71.0019C62.8937 69.4022 68.2979 75.7545 62.9244 80.7526Z" fill="#E7869E"/>
</g>
<defs>
<clipPath id="clip0_1_38">
<rect width="219.982" height="218.409" fill="white" transform="matrix(-1 0 0 1 389.982 0)"/>
</clipPath>
<clipPath id="clip1_1_38">
<rect width="87" height="87" fill="white" transform="translate(0 29)"/>
</clipPath>
</defs>
</svg>
