<svg width="163" height="17" viewBox="0 0 163 17" fill="none" xmlns="http://www.w3.org/2000/svg">
<path d="M154.987 16.9983C156.604 17.0284 158.196 16.6213 159.568 15.8266C160.952 15.0332 162.06 13.8875 162.761 12.526H160.706C160.115 13.4216 159.272 14.1512 158.268 14.6365C157.264 15.1218 156.136 15.3446 155.006 15.281C153.568 15.2835 152.162 14.8859 150.971 14.1396C149.779 13.3934 148.856 12.3327 148.321 11.0949C147.964 10.2672 147.781 9.38367 147.781 8.49203C147.753 7.59451 147.917 6.70069 148.264 5.86232C148.621 5.02908 149.152 4.26926 149.826 3.62618C150.499 2.99007 151.306 2.49061 152.198 2.15954C153.09 1.82847 154.046 1.67303 155.006 1.70309C156.194 1.66996 157.369 1.94238 158.401 2.49021C159.434 3.03816 160.288 3.83572 160.87 4.79792H162.867C162.215 3.35954 161.117 2.13301 159.713 1.27375C158.31 0.422423 156.663 -0.0199328 154.987 0.00362161C153.185 -0.0148049 151.419 0.474823 149.924 1.40765C148.429 2.34048 147.275 3.67249 146.614 5.22726C146.163 6.26359 145.946 7.37482 145.978 8.49203C145.949 9.60759 146.161 10.7172 146.602 11.7555C147.043 12.7939 147.703 13.7401 148.543 14.5386C149.384 15.328 150.388 15.9517 151.495 16.3722C152.598 16.7948 153.784 17.0018 154.977 16.9804L154.987 16.9983ZM140.971 16.6674H142.756V0.325627H140.952L140.971 16.6674ZM125.596 16.6674H127.4V1.97143H131.432C134.162 1.97143 135.647 3.08056 135.647 5.00364C135.647 6.92673 135.001 8.42047 130.294 8.42047H127.853L135.512 16.6763H137.702L131.393 9.78005C135.348 9.67271 137.451 7.92852 137.451 5.00364C137.451 1.92671 135.02 0.325627 131.432 0.325627H125.644L125.596 16.6674ZM115.092 16.9983C119.105 16.9983 121.613 14.6727 121.613 10.7371V0.325627H119.828V10.7371C119.828 13.984 117.899 15.2899 115.092 15.2899C112.604 15.2899 110.375 13.9661 110.375 10.7371V0.325627H108.601V10.7371C108.601 14.628 111.311 16.9983 115.073 16.9983H115.092ZM96.5242 15.3257C95.0863 15.3282 93.6806 14.9306 92.4889 14.1844C91.2972 13.4381 90.3744 12.3775 89.8398 11.1396C89.4806 10.3127 89.3003 9.42824 89.3092 8.53675C89.275 7.62139 89.439 6.70895 89.7915 5.85338C90.1389 5.00683 90.6672 4.23408 91.3445 3.58145C92.0154 2.93506 92.8197 2.42056 93.7096 2.06865C94.5995 1.71674 95.5568 1.53462 96.5242 1.53314C97.4928 1.5315 98.4514 1.71416 99.3407 2.06982C100.23 2.42052 101.034 2.93474 101.704 3.58145C102.378 4.23589 102.905 5.00748 103.256 5.85178C103.607 6.69609 103.775 7.59643 103.749 8.50097C103.753 9.39295 103.57 10.2772 103.209 11.1038C102.494 12.7522 101.108 14.073 99.3504 14.7801C98.4549 15.1246 97.4937 15.298 96.5242 15.2899V15.3257ZM77.8888 16.9983C79.5059 17.0258 81.0971 16.6189 82.4705 15.8266C83.8492 15.0304 84.9536 13.8852 85.6535 12.526H83.599C83.0093 13.4209 82.1681 14.1501 81.1656 14.6354C80.163 15.1207 79.037 15.3439 77.9081 15.281C76.9548 15.2831 76.0106 15.1098 75.1301 14.7711C74.2501 14.4289 73.4507 13.9306 72.7766 13.3042C72.1095 12.6662 71.5792 11.9165 71.214 11.0949C70.8548 10.2679 70.6745 9.38352 70.6835 8.49203C70.6454 7.5939 70.8097 6.69829 71.1657 5.86232C71.5107 5.02671 72.0385 4.26635 72.7158 3.62906C73.393 2.99177 74.2052 2.49134 75.1012 2.15927C75.9928 1.82917 76.9485 1.67386 77.9081 1.70309C79.1074 1.66021 80.296 1.92648 81.3419 2.47233C82.3885 3.02092 83.2526 3.82533 83.8402 4.79792H85.8465C85.197 3.33591 84.0879 2.08915 82.6634 1.22008C81.2465 0.379925 79.5891 -0.0440545 77.9081 0.00362161C76.7107 -0.016067 75.5217 0.191148 74.4137 0.61257C73.3058 1.03399 72.3023 1.66075 71.4648 2.45444C70.6283 3.24983 69.9723 4.19269 69.5356 5.22726C69.0937 6.26603 68.8773 7.37552 68.899 8.49203C68.8773 9.61145 69.0936 10.7239 69.5356 11.7657C69.9753 12.8002 70.636 13.7416 71.4781 14.5332C72.3202 15.3248 73.3262 15.9504 74.4356 16.3722C75.5419 16.796 76.7307 17.0031 77.9274 16.9804L77.8888 16.9983ZM48.9518 16.6674H59.9961V15.0305H50.7169V9.18076H59.3209V7.53496H50.7169V1.97143H59.9285V0.325627H48.9228L48.9518 16.6674ZM43.0679 16.6674H44.8717V0.325627H43.0679V16.6674ZM32.9785 16.6674H34.7244V1.97143H40.2803V0.325627H27.3648V1.97143H32.9303L32.9785 16.6674ZM18.2496 10.6387L21.4906 3.29523L24.7218 10.6387H18.2496ZM13.5618 16.6674H15.6163L17.5455 12.2845H25.426L27.3551 16.6674H29.4L22.05 0.289848H21.0854L13.5618 16.6674ZM10.6681 16.6674H13.1567L4.82283 8.33103L12.1343 0.280904H9.75177L2.39213 8.51886L10.6681 16.6674ZM0.057874 16.6674H1.80374V0.325627H0L0.057874 16.6674ZM96.5435 16.9983C97.7402 17.021 98.929 16.8139 100.035 16.3901C101.145 15.9683 102.151 15.3427 102.993 14.5511C103.835 13.7595 104.496 12.8181 104.935 11.7836C105.377 10.7418 105.594 9.62934 105.572 8.50992C105.571 6.27371 104.622 4.12753 102.929 2.53494C102.096 1.74984 101.103 1.12633 100.007 0.700719C98.9119 0.27511 97.736 0.0559201 96.5483 0.0559201C95.3606 0.0559201 94.1848 0.27511 93.0893 0.700719C91.9939 1.12633 91.0007 1.74984 90.1677 2.53494C88.4749 4.12753 87.5256 6.27371 87.5248 8.50992C87.4989 9.62673 87.7143 10.7371 88.1582 11.7755C88.6022 12.8139 89.2657 13.7595 90.1098 14.5565C90.9504 15.3459 91.9543 15.9696 93.0614 16.3901C94.1647 16.8127 95.3501 17.0197 96.5435 16.9983Z" fill="white"/>
</svg>
