<svg width="127" height="32" viewBox="0 0 127 32" fill="none" xmlns="http://www.w3.org/2000/svg">
<path d="M71.9944 10.4306C71.9944 6.69618 72.0585 3.21932 72.2509 0L62.4422 1.8672V2.76861L63.4038 2.89738C64.109 2.96177 64.5578 3.21932 64.8142 3.60563C65.0707 4.05634 65.263 4.7002 65.3912 5.666C65.5194 7.5332 65.6477 11.7827 65.5835 18.4789C65.5835 25.1107 65.5194 29.2958 65.3912 30.9054C68.9172 31.6781 71.6739 32 73.7254 32C77.5719 32 80.5851 30.9054 82.7648 28.6519C84.9445 26.4628 86.0984 23.3722 86.0984 19.5734C86.0984 16.5473 85.265 14.0362 83.5982 12.0402C81.9313 10.0443 79.8157 9.07847 77.3155 9.07847C75.6487 9.07847 73.9177 9.52917 71.9944 10.4306ZM72.1868 30.2616C72.0586 28.2012 71.9303 22.0201 71.9303 11.9115C72.5073 11.7183 73.2766 11.5895 74.2383 11.5895C75.7769 11.5895 76.9949 12.3622 77.8925 13.9718C78.79 15.5815 79.2388 17.5131 79.2388 19.9598C79.2388 22.9859 78.7259 25.4326 77.7001 27.493C76.6744 29.4889 75.3922 30.5191 73.7895 30.5191C73.2766 30.3903 72.7637 30.326 72.1868 30.2616ZM25.6436 0.643863H0V1.93159L1.34629 2.06036C2.37203 2.25352 3.07723 2.63984 3.526 3.21932C3.97476 3.86318 4.2312 4.89336 4.29531 6.30986C4.80818 13.2636 4.80818 19.7666 4.29531 25.7545C4.16709 27.171 3.91065 28.2012 3.526 28.8451C3.07723 29.4889 2.37203 29.8752 1.34629 30.004L0 30.1972V31.4849H16.5401V30.1972L14.8092 30.0684C13.7834 29.9396 13.0782 29.4889 12.6295 28.9095C12.1807 28.2656 11.9243 27.2354 11.8602 25.8189C11.6678 23.2435 11.5396 20.2817 11.5396 16.998L15.0015 17.0624C16.8607 17.1268 18.1429 18.5433 18.7839 21.3763H20.0661V10.8813H18.7839C18.1429 13.6499 16.9248 15.0664 15.0015 15.1308L11.5396 15.1952C11.5396 9.4004 11.6678 5.27968 11.8602 2.76861H16.9248C20.5149 2.76861 22.951 5.08652 24.3614 9.72233L25.9001 9.27163L25.6436 0.643863ZM22.6305 20.4748C22.6305 23.8229 23.5921 26.5915 25.4513 28.7807C27.3104 30.9698 30.0671 32 33.529 32C36.9909 32 39.8117 30.9054 41.8632 28.6519C43.9147 26.4628 44.8763 23.6942 44.8763 20.3461C44.8763 16.998 43.9147 14.2294 42.0555 12.0402C40.1964 9.85111 37.4397 8.82092 33.9778 8.82092C30.5159 8.82092 27.6951 9.91549 25.6436 12.169C23.5921 14.3581 22.6305 17.1268 22.6305 20.4748ZM36.9268 13.1348C37.6961 15.002 38.0167 17.4487 38.0167 20.4105C38.0167 27.2354 36.6063 30.5835 33.8496 30.5835C32.4392 30.5835 31.3493 29.6177 30.58 27.6861C29.8107 25.7545 29.4902 23.3078 29.4902 20.4105C29.4902 13.6499 30.9006 10.3018 33.6572 10.3018C35.0676 10.2374 36.1575 11.2032 36.9268 13.1348ZM91.0989 28.7807C93.2145 30.9054 95.9071 32 99.1126 32C101.1 32 102.831 31.6137 104.37 30.7767C105.908 30.004 107.126 29.0382 107.96 27.8793L107.319 27.1066C105.908 28.2012 104.305 28.7163 102.446 28.7163C99.8819 28.7163 97.8945 27.8793 96.5482 26.1408C95.1378 24.4024 94.4967 22.2133 94.6249 19.3803H108.344C108.344 16.2897 107.575 13.7787 105.972 11.7827C104.37 9.85111 102.126 8.88531 99.2408 8.88531C95.6507 8.88531 92.894 10.0443 90.9066 12.2978C88.9192 14.5513 87.9576 17.3199 87.9576 20.6036C87.9576 23.9517 88.9833 26.6559 91.0989 28.7807ZM95.843 12.6197C96.5482 11.0744 97.4457 10.3018 98.6638 10.3018C100.587 10.3018 101.549 12.7485 101.549 17.7062L94.7532 17.835C94.8173 15.9034 95.1378 14.165 95.843 12.6197ZM125.59 10.0443C123.859 9.27163 121.679 8.82092 119.05 8.82092C116.358 8.82092 114.242 9.52917 112.64 10.8813C111.037 12.2334 110.203 13.9074 110.203 15.9034C110.203 17.6419 110.716 18.994 111.678 19.9598C112.64 20.9256 114.178 21.7626 116.166 22.4708C117.961 23.1147 119.243 23.7585 119.884 24.338C120.525 24.9819 120.91 25.6901 120.91 26.6559C120.91 27.5573 120.589 28.3944 119.884 29.0382C119.243 29.7465 118.345 30.0684 117.191 30.0684C114.371 30.0684 112.255 28.008 110.78 23.8873L109.691 24.2093L109.947 30.6479C112.255 31.5493 114.819 32 117.64 32C120.589 32 122.833 31.3561 124.5 30.004C126.167 28.7163 127 26.8491 127 24.5312C127 22.9859 126.615 21.6982 125.782 20.7324C124.949 19.7666 123.602 18.9296 121.679 18.1569C119.563 17.3843 118.089 16.6761 117.32 16.0322C116.55 15.3883 116.166 14.6157 116.166 13.6499C116.166 12.6841 116.422 11.9115 116.999 11.2676C117.576 10.6237 118.281 10.3662 119.179 10.3662C121.743 10.3662 123.602 12.2334 124.756 15.9034L125.846 15.5815L125.59 10.0443ZM63.9167 9.46479C63.0192 9.01408 62.0575 8.82092 60.9677 8.82092C59.8778 8.82092 58.788 9.27163 57.5699 10.173C56.3518 11.0744 55.4543 12.2978 54.7491 13.9718L54.8132 8.82092L45.0687 10.7525V11.6539L46.0303 11.7183C47.2484 11.8471 47.9536 12.8129 48.0818 14.5513C48.4664 18.5433 48.4664 22.7928 48.0818 27.2998C47.9536 29.0382 47.2484 29.9396 46.0303 30.1328L45.0687 30.2616V31.4849H58.6598V30.2616L56.9288 30.1328C55.7108 30.004 55.0056 29.0382 54.8773 27.2998C54.4927 23.5654 54.4286 19.5734 54.7491 15.4527C55.1338 14.8089 55.9672 14.4225 57.2494 14.2938C58.5315 14.165 60.0061 14.5513 61.5447 15.4527L63.9167 9.46479Z" fill="white"/>
</svg>
