<svg width="110" height="45" viewBox="0 0 110 45" fill="none" xmlns="http://www.w3.org/2000/svg">
<path d="M66.62 17.6156H64.9679V19.8802H71.9474V17.6156H70.7965V13.0122C70.7965 11.6014 71.6318 10.5248 72.7084 10.5248C73.1725 10.5248 73.5251 10.6547 73.7665 10.8961C74.1191 11.2487 74.2676 11.787 74.2676 12.5295V17.6156H73.0797V19.8802H80.0776V17.6156H78.4627V12.1768C78.4627 9.72663 77.4975 7.85184 74.6946 7.85184C72.7084 7.85184 71.5204 9.03983 70.7965 10.6547V2.71009H64.9679V4.97469H66.6014V17.6156H66.62ZM86.6672 20.1586C90.2497 20.1586 91.809 18.4138 92.1802 15.9821H89.9528C89.5073 17.3928 88.6905 17.9683 87.3169 17.9683C85.5721 17.9683 84.5697 17.2815 84.4212 14.6085H92.3473C92.5515 10.5248 90.5839 7.8704 86.4445 7.8704C82.8248 7.8704 80.1148 10.5248 80.1148 14.1259C80.1148 17.8012 82.6392 20.1586 86.6672 20.1586ZM86.3888 9.70807C87.5582 9.70807 88.1708 10.432 88.2822 12.9193H84.4026C84.5326 10.4691 85.2565 9.70807 86.3888 9.70807ZM67.3254 21.7921H61.3669V24.0567H63.1303V28.9386C62.4063 27.7506 61.2741 26.9524 59.6034 26.9524C58.3783 26.9524 57.3388 27.3979 56.5778 28.1775C55.5383 29.217 54.9072 30.9247 54.9072 33.1151C54.9072 35.1755 55.4269 36.9575 56.5035 38.0341C57.246 38.7766 58.1927 39.2592 59.4735 39.2592C61.5339 39.2592 62.7776 38.0898 63.4273 36.512V38.9993H68.9588V36.7347H67.3254V21.7921ZM61.3112 36.8461C59.8633 36.8461 59.3807 35.621 59.3807 33.245C59.3807 30.7206 59.9004 29.4026 61.3112 29.4026C62.7962 29.4026 63.4273 30.999 63.4273 33.1337C63.4273 35.1755 62.7219 36.8461 61.3112 36.8461ZM75.6413 26.9524C71.9659 26.9524 69.0888 29.514 69.0888 33.1522C69.0888 36.809 71.836 39.2406 75.6227 39.2406C79.298 39.2406 82.1752 36.679 82.1752 33.0408C82.1752 29.3841 79.4279 26.9524 75.6413 26.9524ZM75.6969 37.403C74.2491 37.403 73.6551 36.2521 73.6551 33.1151C73.6551 29.9966 74.1563 28.7901 75.567 28.7901C77.0149 28.7901 77.6088 29.9409 77.6088 33.078C77.6088 36.215 77.1077 37.403 75.6969 37.403ZM95.2801 21.7921H89.3216V24.0567H91.0851V28.9386C90.3611 27.7506 89.2288 26.9524 87.5582 26.9524C86.3331 26.9524 85.2936 27.3979 84.5326 28.1775C83.4931 29.217 82.862 30.9247 82.862 33.1151C82.862 35.1755 83.3817 36.9575 84.4583 38.0341C85.2008 38.7766 86.1475 39.2592 87.4283 39.2592C89.4887 39.2592 90.7324 38.0898 91.382 36.512V38.9993H96.9136V36.7347H95.2801V21.7921ZM89.266 36.8461C87.8181 36.8461 87.3355 35.621 87.3355 33.245C87.3355 30.7206 87.8552 29.4026 89.266 29.4026C90.7509 29.4026 91.382 30.999 91.382 33.1337C91.382 35.1755 90.6767 36.8461 89.266 36.8461ZM103.466 26.9524C99.7908 26.9524 96.9136 29.514 96.9136 33.1522C96.9136 36.809 99.6608 39.2406 103.448 39.2406C107.123 39.2406 110 36.679 110 33.0408C110 29.3841 107.234 26.9524 103.466 26.9524ZM103.522 37.403C102.074 37.403 101.48 36.2521 101.48 33.1151C101.48 29.9966 101.981 28.7901 103.392 28.7901C104.84 28.7901 105.434 29.9409 105.434 33.078C105.434 36.215 104.933 37.403 103.522 37.403ZM61.701 17.5785C60.9399 17.5785 60.5501 16.9659 60.5501 15.9079V10.3949H64.2811V8.26021H60.5501V4.69625L56.485 5.56868V8.24165H54.3874V10.3763H56.3736V15.7408C56.3736 18.7479 57.7101 20.1401 60.4944 20.1401C62.889 20.1401 64.077 19.0078 64.6524 16.4833L62.9632 16.0564C62.6477 17.1701 62.3507 17.5785 61.701 17.5785ZM44.5123 22.2562C44.5123 9.96794 34.5444 0 22.2562 0C9.96794 0.0185623 0 9.96794 0 22.2562C0 27.3608 1.72629 32.057 4.60344 35.8066C6.94229 35.1941 9.31826 34.8414 11.6942 34.7671L10.5991 32.4468C10.5991 32.4468 6.79379 25.8387 6.12555 21.0125C6.03274 20.3814 5.97705 19.7503 5.97705 19.082C5.97705 12.4924 11.323 7.14647 17.9126 7.14647C20.4185 7.14647 22.7759 7.94465 24.7064 9.24401L34.4144 16.8731C34.5258 16.8545 34.6372 16.836 34.7486 16.836C34.8414 16.836 34.9342 16.836 35.027 16.8174C35.1012 16.8174 35.1941 16.7989 35.2683 16.7989H35.3426C35.4354 16.7989 35.5467 16.7989 35.6396 16.8174C35.7509 16.8174 35.8623 16.836 35.9551 16.836C36.0108 16.836 36.0851 16.8545 36.1407 16.8731C36.2892 16.8917 36.4192 16.9102 36.5677 16.9474C36.6048 16.9474 36.6234 16.9659 36.6605 16.9659C36.8275 17.003 36.9946 17.0587 37.1617 17.1144H37.1802C37.1988 17.1144 37.2359 17.133 37.2545 17.1515C37.6628 17.3 38.0527 17.4857 38.4239 17.7084C38.4425 17.727 38.4796 17.7455 38.4981 17.7641C38.6095 17.8383 38.7023 17.9126 38.8137 17.9868C38.8508 18.024 38.888 18.0425 38.9436 18.0797L39.2221 18.3024C39.2592 18.3395 39.3149 18.3766 39.352 18.4323C39.4263 18.5066 39.5191 18.5808 39.5933 18.6551C39.6304 18.7108 39.6861 18.7479 39.7233 18.8036C40.4843 19.6389 41.0041 20.6784 41.1897 21.8478V21.9035C41.2082 22.052 41.2268 22.2005 41.2454 22.3675V22.5532C41.2454 22.646 41.2639 22.7573 41.2639 22.8502V22.9801C41.2639 23.11 41.2639 23.24 41.2454 23.3699V23.4441C41.2454 23.537 41.2268 23.6298 41.2082 23.7226V23.7411C41.1897 23.8711 41.1711 24.001 41.134 24.131V24.1681C40.9855 24.8178 40.7256 25.4674 40.3729 26.0243C40.3544 26.0429 40.3358 26.08 40.3172 26.0985C40.0388 26.5069 39.6861 26.841 39.2963 27.0638C39.0179 27.2123 38.7023 27.3793 38.4239 27.1752C38.2197 27.0267 38.0898 26.7854 37.9413 26.5997C37.8299 26.4698 37.7185 26.3584 37.6072 26.247C36.3264 27.4907 34.433 28.0105 32.6139 27.3979C31.7972 27.1195 31.1104 26.6554 30.5721 26.0614C29.9966 26.1914 24.5022 27.3422 23.3699 27.565C24.8178 28.7715 26.1357 30.1266 27.3237 31.6115C29.7739 34.6186 31.6115 38.1269 32.7067 41.9507C39.7047 38.2011 44.5123 30.7948 44.5123 22.2562Z" fill="white"/>
<path d="M16.5195 43.7698C18.8769 38.758 22.6265 34.5444 27.2671 31.6115C26.0791 30.1451 24.7612 28.7901 23.3133 27.565C23.2205 27.5835 23.1462 27.6021 23.1277 27.6021H23.0906C22.6822 27.6578 22.2553 27.6949 21.8283 27.6949H21.4014C16.3896 27.4722 12.3987 23.3328 12.3987 18.2653C12.3987 13.2349 16.3153 9.13263 21.2715 8.8542H22.2924C22.3481 8.8542 22.4037 8.8542 22.4409 8.87276C22.5151 8.87276 22.6079 8.89132 22.6822 8.89132C22.8307 8.90988 22.9977 8.92845 23.1462 8.94701C23.2019 8.94701 23.2762 8.96557 23.3319 8.96557C23.5175 8.98413 23.6845 9.02126 23.8516 9.05838C23.8887 9.05838 23.9259 9.07695 23.9444 9.07695C24.2043 9.13263 24.4642 9.20688 24.724 9.28113C22.8121 7.96321 20.4361 7.18359 17.9302 7.18359C11.3406 7.18359 5.9947 12.5295 5.9947 19.1191C5.9947 19.7688 6.05039 20.4185 6.1432 21.0496C6.81144 25.8944 10.6167 32.484 10.6167 32.484L11.7119 34.8043C9.33591 34.8785 6.95994 35.2312 4.62109 35.8437C7.55393 39.649 11.7119 42.489 16.5195 43.7698Z" fill="#0C0C0C"/>
<path d="M23.8162 9.03988C23.6491 9.00275 23.4635 8.96563 23.2965 8.94707C23.2408 8.9285 23.1665 8.9285 23.1108 8.9285C22.9623 8.90994 22.8138 8.89138 22.6468 8.87282C22.5725 8.87282 22.4797 8.85426 22.4055 8.85426C22.3498 8.85426 22.2941 8.83569 22.257 8.83569H21.236C16.2799 9.13269 12.3633 13.235 12.3633 18.2468C12.3633 23.3143 16.3542 27.4536 21.366 27.6764H21.7929C22.2198 27.6764 22.6468 27.6393 23.0551 27.5836H23.0923C23.1294 27.5836 23.1851 27.565 23.2779 27.5465C24.4102 27.3237 29.9046 26.1729 30.4801 26.0429C29.6262 25.0962 29.1436 23.834 29.2178 22.5346V22.5161C29.2364 22.052 29.3292 21.588 29.4591 21.1239C29.4591 21.1054 29.4777 21.0868 29.4777 21.0682L29.5334 20.9012C29.5519 20.8455 29.5891 20.7712 29.6076 20.7155C29.6448 20.6413 29.6633 20.567 29.7004 20.4928C29.7376 20.3814 29.7933 20.2886 29.8489 20.1772C29.8861 20.103 29.9232 20.0473 29.9418 19.9916C29.9974 19.8802 30.0531 19.7874 30.1274 19.6761C30.1645 19.6204 30.1831 19.5832 30.2202 19.5276C30.2944 19.4162 30.3687 19.3048 30.4429 19.212C30.4615 19.1749 30.4986 19.1378 30.5357 19.1006C30.6286 18.9893 30.7214 18.8779 30.8142 18.7851L30.8884 18.7108C30.9812 18.5994 31.0926 18.5066 31.204 18.3953C31.2411 18.3767 31.2597 18.3396 31.2968 18.321L31.6309 18.0426C31.9279 17.8198 32.2435 17.6156 32.5776 17.4486H32.5962L33.0973 17.2258C33.1159 17.2258 33.1345 17.2073 33.1716 17.2073C33.3201 17.1516 33.4871 17.0959 33.6356 17.0588C33.6728 17.0402 33.7285 17.0402 33.7841 17.0217C33.9141 16.9845 34.044 16.9474 34.1925 16.9288C34.2668 16.9103 34.341 16.9103 34.4153 16.8917H34.4338L24.7258 9.26263C24.4659 9.18838 24.206 9.11413 23.9461 9.05844C23.8905 9.05844 23.8533 9.03988 23.8162 9.03988ZM25.2269 16.6133C25.2269 17.6899 24.5401 18.618 23.5749 18.9521C23.315 19.0449 23.018 19.1006 22.721 19.1006C21.3474 19.1006 20.2151 17.9869 20.2151 16.5947C20.2151 15.2211 21.3289 14.0888 22.721 14.0888C23.2593 14.0888 23.742 14.2559 24.1503 14.5343C24.8 15.0169 25.2269 15.7594 25.2269 16.6133Z" fill="#FFA817"/>
<path d="M20.2344 16.6133C20.2344 17.9869 21.3481 19.1192 22.7403 19.1192C23.0373 19.1192 23.3343 19.0635 23.5941 18.9707C24.5594 18.618 25.2462 17.7085 25.2462 16.6319C25.2462 15.778 24.8193 15.0355 24.1696 14.5715C23.7612 14.293 23.2786 14.126 22.7403 14.126C21.3481 14.1074 20.2344 15.2397 20.2344 16.6133ZM24.0211 15.6481C24.3923 15.8708 24.6522 16.2977 24.6522 16.7618C24.6522 17.3558 24.2624 17.857 23.7241 18.0055C23.6127 18.0426 23.4828 18.0612 23.3528 18.0612C22.6289 18.0612 22.0349 17.4672 22.0349 16.7432C22.0349 16.0193 22.6289 15.4253 23.3528 15.4253C23.5941 15.4624 23.8169 15.5367 24.0211 15.6481Z" fill="white"/>
<path d="M22.0352 16.7618C22.0352 17.4857 22.6291 18.0797 23.3531 18.0797C23.483 18.0797 23.613 18.0611 23.7243 18.024C24.2626 17.8569 24.6524 17.3743 24.6524 16.7803C24.6524 16.3163 24.3926 15.8893 24.0213 15.6666C23.8171 15.5367 23.5944 15.4624 23.3345 15.4624C22.6106 15.4624 22.0352 16.0378 22.0352 16.7618Z" fill="black"/>
<path d="M35.9379 25.5603C35.3253 25.3747 34.7313 25.1519 34.1373 24.9478C33.2835 24.6508 32.4296 24.3538 31.5943 23.9825C30.9632 23.7041 30.3506 23.3885 29.7938 22.9987C29.6453 22.8873 29.4968 22.776 29.3668 22.646L29.274 22.5532C29.2183 23.8526 29.6824 25.1148 30.5363 26.0615C31.0746 26.6555 31.7799 27.1195 32.5781 27.398C34.3787 28.0105 36.2906 27.4908 37.5714 26.2471C37.5528 26.2286 37.5342 26.21 37.4971 26.1914C37.0331 25.8387 36.4762 25.7274 35.9379 25.5603Z" fill="#A92823"/>
<path d="M34.1739 16.9288C34.044 16.9473 33.8955 16.9845 33.7655 17.0216C33.7098 17.0401 33.6727 17.0401 33.617 17.0587C33.45 17.0958 33.3015 17.1515 33.153 17.2072C33.1344 17.2072 33.1159 17.2258 33.0787 17.2258C32.9117 17.3 32.7446 17.3557 32.5776 17.4485H32.559C32.2249 17.6156 31.9093 17.8198 31.6123 18.0425L31.2782 18.3209C31.2411 18.3395 31.2225 18.3766 31.1854 18.3952C31.074 18.488 30.9812 18.5994 30.8698 18.7107L30.7956 18.785C30.7028 18.8964 30.6099 18.9892 30.5171 19.1006C30.48 19.1377 30.4615 19.1748 30.4243 19.2119C30.3501 19.3233 30.2758 19.4347 30.2016 19.5275C30.1645 19.5832 30.1459 19.6203 30.1088 19.676C30.0531 19.7874 29.9788 19.8802 29.9231 19.9915C29.886 20.0472 29.8489 20.1215 29.8303 20.1772C29.7746 20.27 29.7375 20.3814 29.6818 20.4927C29.6447 20.567 29.6261 20.6412 29.589 20.7155C29.5705 20.7712 29.5333 20.8454 29.5148 20.9011L29.4591 21.0682C29.4591 21.0867 29.4405 21.1053 29.4405 21.1238C29.3106 21.5879 29.2178 22.052 29.1992 22.516V22.5346C29.2178 22.5717 29.292 22.6274 29.292 22.6274C29.422 22.7573 29.5705 22.8687 29.719 22.9801C30.2944 23.3699 30.9069 23.6854 31.5195 23.9639C32.3548 24.3351 33.2087 24.6321 34.0625 24.9291C34.6565 25.1333 35.2691 25.356 35.8631 25.5417C36.4014 25.7087 36.9582 25.8387 37.4037 26.1728C37.4223 26.1913 37.4409 26.2099 37.478 26.2285C37.6079 26.3398 37.7193 26.4512 37.8121 26.5812C37.9606 26.7668 38.0905 27.0081 38.2947 27.1566C38.5917 27.3608 38.9073 27.1937 39.1672 27.0452C39.5755 26.8225 39.9096 26.4883 40.1881 26.08C40.2066 26.0614 40.2252 26.0243 40.2438 26.0057C40.615 25.4674 40.8563 24.7992 41.0048 24.1495V24.1124C41.0419 23.9824 41.0605 23.8525 41.0791 23.7226V23.704C41.0976 23.6112 41.0976 23.5184 41.1162 23.4256V23.3513C41.1348 23.2214 41.1348 23.0914 41.1348 22.9615V22.8316C41.1348 22.7388 41.1162 22.6274 41.1162 22.5346V22.349C41.0976 22.2005 41.0791 22.0334 41.0605 21.8849V21.8292C40.8749 20.6783 40.3551 19.6203 39.5941 18.785C39.557 18.7293 39.5013 18.6922 39.4642 18.6365C39.3899 18.5623 39.2971 18.488 39.2228 18.4138C39.1857 18.3766 39.13 18.3395 39.0929 18.2838L38.8145 18.0611C38.7774 18.0239 38.7402 18.0054 38.6845 17.9683C38.5917 17.894 38.4804 17.8198 38.369 17.7455C38.3504 17.7269 38.3133 17.7084 38.2947 17.6898C37.9235 17.4671 37.5337 17.2815 37.1253 17.133C37.1067 17.133 37.0696 17.1144 37.0511 17.0958H37.0325C36.8654 17.0401 36.6984 16.9845 36.5313 16.9473C36.4942 16.9473 36.4756 16.9288 36.4385 16.9288C36.29 16.8916 36.1601 16.8731 36.0116 16.8545C35.9559 16.836 35.8816 16.836 35.8259 16.8174C35.7146 16.7988 35.6032 16.7988 35.5104 16.7988C35.4176 16.7988 35.3062 16.7803 35.2134 16.7803H35.1391C35.0649 16.7803 34.9721 16.7803 34.8978 16.7988C34.805 16.7988 34.7122 16.7988 34.6194 16.8174C34.508 16.836 34.3967 16.836 34.2853 16.8545H34.2667C34.3224 16.9102 34.2482 16.9102 34.1739 16.9288Z" fill="#E83932"/>
<path d="M27.2671 31.593C22.6265 34.5259 18.8769 38.7581 16.5195 43.7513C18.3572 44.2339 20.2691 44.4938 22.2553 44.4938C26.0049 44.4938 29.5502 43.5657 32.6501 41.9136C31.555 38.1084 29.7173 34.6001 27.2671 31.593Z" fill="#3059FF"/>
</svg>
