<svg width="136" height="32" viewBox="0 0 136 32" fill="none" xmlns="http://www.w3.org/2000/svg">
<path d="M123.584 4.974H128.008V1.099H131.145V4.974H135.569V7.954H131.145V11.829H128.008V7.954H123.584V4.974ZM124.714 28.081H135.882V31.375H120.792V18.135H135.569V21.43H124.713V23.187H133.577V26.167H124.713V28.081H124.714ZM120.258 13.241H105.324V0.00100002H109.246V9.947H120.258V13.241ZM110.798 22.638C110.798 21.853 110.296 21.43 109.088 21.43H102.406V23.846H109.089C110.296 23.846 110.799 23.422 110.799 22.638H110.798ZM108.116 27.061H102.406V31.375H98.484V18.135H108.932C112.932 18.135 114.877 20.096 114.877 22.59C114.877 24.379 113.795 25.712 111.85 26.387L115.835 31.375H111.442L108.116 27.061ZM88.162 9.947H99.332V13.241H84.24V0.00100002H99.018V3.295H88.162V5.052H97.025V8.032H88.162V9.947ZM88.602 25.414V18.135H92.523V25.571C92.523 29.618 89.825 31.689 84.335 31.689C78.844 31.689 76.145 29.619 76.145 25.571V18.135H80.067V25.415C80.067 27.391 81.291 28.238 84.335 28.238C87.378 28.238 88.601 27.391 88.601 25.414H88.602ZM72.835 13.241H69.305L61.305 0.00100002H65.728L71.125 9.068L76.522 0.00100002H80.836L72.836 13.241H72.835ZM68.395 22.277C65.383 21.242 63.752 20.975 61.775 20.975C59.281 20.975 58.732 21.382 58.732 21.948C58.732 22.355 59.046 22.59 60.081 22.684L65.807 23.171C69.76 23.501 71.141 25.116 71.141 27.265C71.141 29.806 68.38 31.689 62.779 31.689C60.238 31.689 56.849 31.156 53.869 30.167L55.939 26.936C58.889 28.018 61.713 28.505 63.767 28.505C66.466 28.505 67.062 28.081 67.062 27.548C67.062 27.124 66.764 26.795 65.587 26.685L60.018 26.167C56.238 25.822 54.81 24.395 54.81 22.246C54.81 19.971 56.96 17.822 62.544 17.822C64.975 17.822 67.532 18.292 70.309 19.312L68.395 22.277ZM55.093 7.859L52.74 3.782L50.387 7.859H55.093ZM44.363 31.374H48.285V18.134H44.363V31.374ZM56.913 10.997H48.568L47.266 13.24H43.03L51.03 0H54.56L62.56 13.24H58.215L56.913 10.997ZM35.594 4.503C35.594 3.719 35.092 3.295 33.884 3.295H27.202V5.711H33.884C35.092 5.711 35.594 5.287 35.594 4.503ZM27.202 28.081H38.37V31.375H23.28V18.135H38.057V21.43H27.202V23.187H36.065V26.167H27.202V28.081ZM32.912 8.927H27.202V13.241H23.28V0.00100002H33.727C37.727 0.00100002 39.673 1.961 39.673 4.456C39.673 6.244 38.59 7.578 36.645 8.252L40.63 13.241H36.237L32.912 8.927ZM18.102 31.375H3.17V18.135H7.09V28.081H18.102V31.375ZM0 0.00100002H18.103V3.295H11.013V13.241H7.09V3.295H0V0.00100002Z" fill="white"/>
</svg>
