<svg width="58" height="41" viewBox="0 0 58 41" fill="none" xmlns="http://www.w3.org/2000/svg">
<path d="M22.4858 5.51401C22.1652 5.34455 21.7864 5.31757 21.4383 5.42658C21.1166 5.52804 20.7172 5.54423 20.2505 5.35858C19.8454 5.19668 19.6378 4.90525 19.5453 4.5782C19.4438 4.21985 19.1665 3.9295 18.8082 3.77946C14.0546 1.7891 10.0507 1.02707 8.75101 0.816591C8.48286 0.773416 8.21472 0.738876 7.94315 0.734559C4.8452 0.690305 1.51448 2.84365 0.419069 3.61756C0.231937 3.75032 0.0995758 3.94785 0.0847421 4.16804C0.057357 4.59115 0.411082 4.93979 0.84354 4.93439C1.40608 4.92683 1.94351 5.01534 2.43074 5.15026C3.8251 5.53452 4.76647 6.76284 4.7174 8.1358C4.1891 22.9512 13.2011 30.6364 13.2011 30.6364C13.2855 30.7108 13.3711 30.7842 13.4556 30.8576C13.8321 29.5127 14.3479 28.0869 15.0485 26.6189C15.2835 26.1257 15.7183 25.7371 16.2409 25.5525C16.4371 25.4834 16.5843 25.3939 16.6334 25.314C16.6722 25.2503 16.7224 25.0301 16.6619 24.6102C16.5923 24.131 16.7018 23.6442 16.9711 23.2373C18.8151 20.4611 21.217 17.9181 24.1107 15.6752C24.2704 15.5489 26.6461 13.6989 30.925 12.1521C31.0848 12.0939 31.2456 12.0377 31.4065 11.9827C28.6224 9.21733 25.5073 7.11148 22.4858 5.51401ZM14.6845 17.7055C14.3638 18.0671 13.7739 18.555 12.8166 18.759C12.5906 18.8075 12.351 18.7395 12.1913 18.5809C11.9471 18.3402 11.9459 17.9581 12.1924 17.7195C12.5439 17.3795 13.1167 16.9262 13.8926 16.6348C14.1995 16.5193 14.551 16.638 14.7324 16.8992C14.907 17.1486 14.8887 17.4767 14.6845 17.7055ZM17.8554 6.7758C17.5314 8.59669 15.9031 9.43968 14.9218 9.78724C14.4049 9.97073 13.8253 9.67283 13.7169 9.16121C13.7157 9.15473 13.7146 9.14825 13.7134 9.14286C13.6507 8.83416 13.7785 8.52006 14.0352 8.32037C14.81 7.71701 15.7525 6.65059 16.2352 6.08068C16.4371 5.84214 16.7566 5.72449 17.0761 5.76658C17.5896 5.83458 17.941 6.29224 17.8554 6.7758Z" fill="#BD6207"/>
<path d="M55.0627 8.29711C54.9498 8.10282 54.7603 7.95171 54.531 7.90854C54.0917 7.82543 53.6786 8.1093 53.625 8.51514C53.5554 9.04296 53.3911 9.53515 53.1834 9.97337C52.5912 11.2276 51.1763 11.9421 49.7454 11.7101C34.3002 9.20054 25.0258 16.6007 25.0258 16.6007C21.9598 18.9753 19.7142 21.4903 18.0699 23.9653C17.9079 24.2092 17.8451 24.4995 17.8862 24.7845C17.9513 25.2346 17.9444 25.6976 17.747 26.0171C17.569 26.3075 17.2472 26.4953 16.9038 26.6162C16.5911 26.7263 16.3412 26.9594 16.2043 27.2465C13.6746 32.5538 13.6312 37.2814 13.8058 39.5114C13.8469 40.0414 14.503 40.3048 14.9389 39.9702C15.5402 39.5071 16.2203 39.111 16.8456 38.7915C18.0231 38.1914 19.3878 38.0262 20.6955 38.2907C24.7451 39.1077 29.7737 39.4251 32.8442 39.547C34.7749 39.6237 36.7021 39.2405 38.4057 38.3759C43.4548 35.8124 47.2625 32.2473 50.0763 28.7177C50.2966 28.4414 50.3776 28.0895 50.3103 27.7484C50.2486 27.4322 50.2852 27.0566 50.543 26.6453C50.7678 26.2881 51.101 26.1326 51.4559 26.0905C51.845 26.043 52.1861 25.8239 52.3927 25.5077C55.1232 21.323 56.4662 17.6747 56.8633 16.4863C56.9455 16.2413 57.0185 15.9941 57.0596 15.7404C57.5274 12.8423 55.7257 9.42937 55.0627 8.29711ZM31.2319 31.7659C31.5845 31.5986 32.0135 31.713 32.2224 32.0292C32.778 32.869 33.3155 33.8221 34.2888 34.8723C34.6437 35.2565 34.4326 35.8718 33.91 35.997C33.9043 35.9981 33.9157 35.9959 33.91 35.997C33.1318 36.1783 32.3159 35.902 31.8218 35.3051C31.3278 34.7093 31.0037 34.0919 30.812 32.489C30.7755 32.1901 30.9467 31.9008 31.2319 31.7659ZM21.4041 25.0284C21.5535 24.601 22.1617 24.5265 22.431 24.8978C22.9194 25.5703 23.7067 26.8353 24.0707 28.3971C24.1563 28.7631 23.8573 29.1095 23.4614 29.0944C23.4614 29.0944 21.9278 28.9368 21.3094 25.9491C21.3094 25.9491 21.2489 25.471 21.4041 25.0284ZM49.3837 24.207C47.5204 23.6566 46.8597 22.0148 46.6281 21.0488C46.506 20.5393 46.8962 20.0363 47.4485 20.005C47.4554 20.005 47.4622 20.004 47.4679 20.004C47.7999 19.9867 48.1115 20.1497 48.286 20.4174C48.8121 21.2258 49.8013 22.2545 50.3319 22.7844C50.5544 23.0057 50.6343 23.3209 50.5465 23.6155C50.4061 24.0861 49.8789 24.3527 49.3837 24.207ZM37.7907 17.2947C38.0771 17.0994 38.4764 17.149 38.6921 17.4124C39.0002 17.788 39.3973 18.3871 39.597 19.1523C39.6757 19.4556 39.5045 19.7687 39.2067 19.9036C38.9214 20.0331 38.5803 19.9716 38.368 19.7492C38.0337 19.3995 37.6024 18.78 37.5191 17.856C37.4997 17.638 37.6024 17.4232 37.7907 17.2947Z" fill="#BD6207"/>
</svg>
