<svg width="50" height="49" viewBox="0 0 50 49" fill="none" xmlns="http://www.w3.org/2000/svg">
<path d="M49.5097 30.0449C49.5097 38.9828 42.9461 46.2293 34.8509 46.2293C34.0378 46.2293 33.2394 46.1533 32.4618 46.0122C30.193 47.3908 27.5966 48.1734 24.8383 48.1734C22.0801 48.1734 19.4837 47.3898 17.2149 46.0122C16.4372 46.1533 15.6399 46.2293 14.8267 46.2293C6.72957 46.2283 0.166992 38.9828 0.166992 30.0449C0.166992 25.0494 2.30748 20.0638 6.24699 16.9197C10.6928 13.372 17.2297 12.7888 21.9597 16.1362C22.1393 16.2635 22.3149 16.3957 22.4867 16.5319C23.0087 16.9484 23.5426 17.429 24.2067 17.503C25.0199 17.5938 25.7502 17.0539 26.4262 16.5931C31.2094 13.3355 37.4809 12.9871 42.3747 16.1816C43.6803 17.0342 44.8468 18.0971 45.8228 19.3129C48.2485 22.3336 49.5087 26.1833 49.5097 30.0449Z" fill="#FF7F00"/>
<path d="M22.1634 12.7976C22.1525 12.911 22.1515 13.0255 22.1663 13.143C22.2058 13.4538 22.3726 13.7666 22.64 13.8722C22.8196 13.9433 23.016 13.9147 23.2045 13.89C24.0818 13.7775 24.969 13.7953 25.8513 13.742C26.0496 13.7301 26.2539 13.7124 26.4305 13.6127C26.6092 13.5111 26.7444 13.3334 26.8499 13.143C26.9822 12.9041 27.1174 12.6426 27.2023 12.3781C27.6809 10.888 27.0947 8.93008 26.5786 7.51888C26.0348 6.03268 25.2453 4.66885 24.3226 3.43627C23.8331 2.78297 23.3062 2.16422 22.7555 1.57507C22.5483 1.35401 22.339 1.13592 22.1269 0.920782C22.0272 0.820123 21.9117 0.739201 21.7864 0.687884C20.8222 0.292156 19.7683 0.920781 19.3647 1.90369C19.186 2.33692 19.2739 2.85403 19.5768 3.19844C21.0512 4.87214 22.1821 6.77183 22.3538 9.17976C22.4012 9.84884 22.4239 10.5209 22.3834 11.19C22.3627 11.5265 22.3292 11.864 22.269 12.1936C22.2305 12.3959 22.1821 12.5943 22.1634 12.7976Z" fill="#FF7F00"/>
</svg>
