<svg width="47" height="47" viewBox="0 0 47 47" fill="none" xmlns="http://www.w3.org/2000/svg">
<g clip-path="url(#clip0_4036_8384)">
<path fill-rule="evenodd" clip-rule="evenodd" d="M38.0087 37.7131C34.2479 39.6125 30.0975 39.915 26.3293 38.876C25.8389 38.741 25.7427 38.0897 26.1729 37.8167C29.1844 35.9035 31.5917 32.9938 32.8407 29.3606C35.6967 21.0498 31.4409 12.0016 23.316 8.85413C23.2022 8.80972 23.1929 8.65152 23.3021 8.59601C23.303 8.59508 23.304 8.59508 23.3049 8.59416C31.34 4.53634 41.158 7.76612 45.2158 15.8013C49.2736 23.8373 46.0438 33.6553 38.0087 37.7131Z" fill="#1F1646"/>
<path d="M32.474 4.63366C32.7904 4.43938 34.2484 4.89456 34.6537 5.30164C35.058 5.70872 35.4058 6.35449 35.4179 6.89479C36.4198 6.71623 37.2627 6.62279 37.6059 6.5423C38.8049 6.26382 39.2712 6.138 39.6598 6.33599C40.0484 6.5349 40.1427 6.9466 40.4314 7.98557C40.5137 8.28348 40.8218 8.96441 41.1188 9.80724C41.6767 9.55744 42.5019 9.51119 43.1116 9.62221C43.7213 9.73323 44.8833 10.6168 44.8361 10.9489C44.789 11.281 43.7426 11.0359 43.5946 11.2505C43.5252 11.3504 43.3438 11.6197 43.1718 11.9666C41.8654 10.5622 40.2658 9.34835 38.408 8.39913C36.4208 7.38328 34.2956 6.74491 32.1501 6.45718C32.4656 6.12967 32.6849 5.82344 32.7598 5.71427C32.9079 5.50148 32.1575 4.82795 32.474 4.63366Z" fill="#1F1646"/>
<path d="M16.6849 39.9756C25.5067 39.9756 32.6581 32.8242 32.6581 24.0024C32.6581 15.1807 25.5067 8.0293 16.6849 8.0293C7.86321 8.0293 0.711792 15.1807 0.711792 24.0024C0.711792 32.8242 7.86321 39.9756 16.6849 39.9756Z" fill="#1F1646"/>
<path d="M14.158 5.64444C14.4762 5.82208 13.7694 6.51133 13.923 6.71487C14.0016 6.81849 14.2283 7.10899 14.5512 7.41615C12.464 7.78715 10.4119 8.50046 8.50977 9.57736C6.73251 10.583 5.218 11.8376 3.9977 13.266C3.81451 12.9339 3.62578 12.6776 3.55454 12.5833C3.40096 12.3797 2.38789 12.6637 2.32683 12.3399C2.26669 12.017 3.36673 11.1039 3.95884 10.9697C4.55003 10.8356 5.35955 10.8467 5.91651 11.0678C6.17186 10.2315 6.44386 9.55238 6.51232 9.25725C6.75102 8.22846 6.82688 7.82138 7.1988 7.61044C7.57072 7.40042 8.03238 7.50404 9.21661 7.72608C9.55615 7.78992 10.3842 7.84636 11.3723 7.97958C11.3612 7.44946 11.6748 6.80369 12.0532 6.38828C12.4325 5.97288 13.8406 5.46681 14.158 5.64444Z" fill="#1F1646"/>
</g>
<defs>
<clipPath id="clip0_4036_8384">
<rect width="46.2587" height="46.2587" fill="white" transform="translate(0.709473 0.741211)"/>
</clipPath>
</defs>
</svg>
