<svg width="42" height="50" viewBox="0 0 42 50" fill="none" xmlns="http://www.w3.org/2000/svg">
<path d="M17.2528 3.09595C17.1936 2.99036 17.1422 2.87884 17.1067 2.75746C17.01 2.43673 17.0386 2.05877 17.2538 1.83968C17.3978 1.69264 17.6031 1.63639 17.7975 1.57817C18.7034 1.30876 19.563 0.907108 20.4482 0.576513C20.6475 0.502499 20.8548 0.430458 21.0699 0.452169C21.289 0.47388 21.4972 0.589342 21.6827 0.729475C21.9156 0.905135 22.1604 1.10251 22.3578 1.32455C23.4709 2.57292 23.7463 4.74005 23.8528 6.3427C23.9644 8.03021 23.7838 9.7049 23.4157 11.3095C23.2203 12.1602 22.9736 12.9921 22.6903 13.8073C22.5837 14.1132 22.4732 14.4161 22.3597 14.7181C22.3064 14.8592 22.2285 14.9885 22.1278 15.0931C21.3571 15.8974 20.0544 15.7395 19.2344 14.954C18.8722 14.6076 18.734 14.0648 18.8811 13.5971C19.5975 11.3233 19.8788 8.97759 19.0044 6.54994C18.7617 5.87591 18.4923 5.2088 18.1636 4.57327C17.9978 4.25353 17.8192 3.93773 17.6179 3.64168C17.4916 3.45911 17.3584 3.28641 17.2528 3.09595Z" fill="#A92823"/>
<path d="M35.1535 17.39C32.5492 15.8831 29.4722 15.4153 26.5383 16.0805L20.7869 17.3782C20.6981 17.3989 20.6053 17.3989 20.5165 17.3782L14.7651 16.0805C11.8431 15.4183 8.7779 15.8791 6.17951 17.3732C6.16964 17.3792 6.16076 17.3851 6.14991 17.391C4.33311 18.443 2.8252 19.9539 1.77519 21.7716C0.725175 23.5894 0.17155 25.651 0.167603 27.75C0.167603 32.1296 1.33209 36.4313 3.54067 40.2139C5.75023 43.9966 8.92395 47.1239 12.7401 49.2752C12.749 49.2792 12.7569 49.2831 12.7648 49.2881L12.7806 49.2979C13.9233 49.9325 15.3069 49.9542 16.4684 49.3552L18.2823 48.4334C19.7714 47.6815 21.529 47.6815 23.0172 48.4334L24.832 49.3552C25.9926 49.9522 27.3742 49.9315 28.5159 49.2989L28.5288 49.291L28.5386 49.2851C32.3588 47.1347 35.5394 44.0074 37.7519 40.2228C39.9654 36.4382 41.1309 32.1336 41.1319 27.749V27.748C41.1289 25.649 40.5743 23.5865 39.5243 21.7687C38.4792 19.9539 36.9703 18.443 35.1535 17.39Z" fill="#A92823"/>
</svg>
