<svg width="41" height="50" viewBox="0 0 41 50" fill="none" xmlns="http://www.w3.org/2000/svg">
<path d="M0.386353 0.185547C0.386353 0.185547 1.13044 7.92938 2.00183 10.7429C3.09625 14.0795 6.3805 16.1459 9.70521 15.1601C10.399 14.8995 11.0927 14.639 11.6996 14.1466C12.3066 13.6551 12.7546 13.0906 13.1039 12.4048C14.7569 9.35539 13.4158 5.71587 10.3782 3.95335C7.86867 2.46913 0.386353 0.185547 0.386353 0.185547Z" fill="#01802C"/>
<path d="M18.7063 5.08398C18.7063 5.08398 15.7951 11.6673 15.0678 14.3683C14.2833 17.619 15.2218 21.3838 17.5359 22.6263C18.0619 22.9036 18.5998 23.0714 19.1011 23.0684C19.6014 23.0654 20.1245 22.8424 20.5991 22.5582C22.8482 21.2388 23.6298 17.4868 22.6942 14.2232C21.9807 11.4818 18.7063 5.08398 18.7063 5.08398Z" fill="#01802C"/>
<path d="M26.5246 14.9678C26.5246 14.9678 23.6134 21.5511 22.8861 24.2521C22.1015 27.5028 23.04 31.2676 25.3542 32.5101C25.8802 32.7874 26.418 32.9551 26.9193 32.9522C27.4197 32.9492 27.9427 32.7262 28.4174 32.442C30.6664 31.1226 31.448 27.3705 30.5125 24.107C29.799 21.3655 26.5246 14.9678 26.5246 14.9678Z" fill="#01802C"/>
<path d="M35.0445 24.7949C35.0445 24.7949 32.1333 31.3782 31.406 34.0792C30.6214 37.3299 31.5599 41.0948 33.8741 42.3372C34.4001 42.6145 34.9379 42.7823 35.4392 42.7793C35.9396 42.7764 36.4626 42.5533 36.9373 42.2691C39.1863 40.9497 39.9679 37.1977 39.0324 33.9342C38.3189 31.1927 35.0445 24.7949 35.0445 24.7949Z" fill="#01802C"/>
<path d="M1.33972 18.9509C1.33972 18.9509 8.38289 17.4667 11.1767 17.3147C14.5191 17.221 18.0077 18.9194 18.7439 21.4408C18.9057 22.0131 18.958 22.5737 18.8514 23.0632C18.7449 23.5516 18.4182 24.0174 18.0422 24.423C16.2846 26.3504 12.4537 26.3375 9.45363 24.7457C6.98156 23.4303 1.33972 18.9509 1.33972 18.9509Z" fill="#01802C"/>
<path d="M9.30847 28.7839C9.30847 28.7839 16.3516 27.2997 19.1454 27.1477C22.4879 27.054 25.9764 28.7524 26.7126 31.2738C26.8745 31.8461 26.9268 32.4067 26.8202 32.8962C26.7136 33.3847 26.387 33.8504 26.011 34.256C24.2534 36.1834 20.4224 36.1705 17.4224 34.5787C14.9503 33.2633 9.30946 28.7839 9.30847 28.7839Z" fill="#01802C"/>
<path d="M17.3285 38.6799C17.3285 38.6799 24.3717 37.1957 27.1654 37.0437C30.5079 36.95 33.9964 38.6484 34.7326 41.1698C34.8945 41.7421 34.9468 42.3027 34.8402 42.7922C34.7336 43.2806 34.407 43.7464 34.031 44.152C32.2734 46.0794 28.4424 46.0665 25.4424 44.4747C22.9693 43.1593 17.3285 38.6799 17.3285 38.6799Z" fill="#01802C"/>
<path d="M38.795 49.1823L10.19 13.3634C9.87324 12.9667 9.93838 12.3894 10.3341 12.0726L10.4723 11.9631C10.869 11.6463 11.4463 11.7114 11.7631 12.1072L40.368 47.926C40.6848 48.3227 40.6196 48.9 40.2239 49.2168L40.0858 49.3263C39.689 49.6431 39.1117 49.579 38.795 49.1823Z" fill="#01802C"/>
</svg>
