<svg width="393" height="211" viewBox="0 0 393 211" fill="none" xmlns="http://www.w3.org/2000/svg">
<path d="M309.919 34.8908C301.524 32.3084 292.126 38.1793 284.9 45.5366C277.657 52.9125 271.472 61.9976 263.578 68.1287C255.479 74.4269 246.025 77.1952 236.906 77.381C227.804 77.5668 218.982 75.263 210.531 72.1046C204.587 69.8751 198.681 67.144 194 62.3692C200.594 52.4851 206.519 41.9694 211.701 30.9893C216.734 39.9815 225.798 43.9017 234.361 47.4131C238.689 49.1781 243.146 50.9617 247.864 50.7573C250.669 50.6272 253.473 49.7912 256.278 48.9551C263.503 46.8 270.784 44.6262 277.657 40.7618C283.025 37.752 288.095 33.7575 293.574 31.1565C296.658 29.6887 303.753 27.3292 307.301 28.2581C310.365 29.0756 342.201 40.4831 342.981 44.1803" fill="#FBE122"/>
<path d="M341.829 40.948C341.829 40.948 327.453 43.0474 308.898 33.1262L299.797 33.8508C320.172 47.4506 339.192 46.1501 339.192 46.1501C339.192 46.1501 342.535 46.0944 344.782 45.5927L346.38 45.2769H346.417C346.361 45.0725 342.665 41.3939 341.829 40.948Z" fill="#FBE122"/>
<path d="M234.825 114.726L255.089 79.6493L260.03 47.3032C251.523 46.8945 244.837 39.5744 245.487 30.8423C246.044 23.2434 252.266 17.131 259.863 16.7036C268.778 16.202 276.134 23.2992 276.078 32.087C276.041 40.3361 269.484 47.0246 261.33 47.3218L263.726 64.1915L278.028 64.2659C281.167 48.6595 293.407 36.3602 308.954 33.146C308.749 31.734 308.638 30.2663 308.656 28.7986C308.712 13.0993 321.287 0.372704 336.907 0.00112382C344.783 -0.184666 351.655 6.0393 351.711 13.9168C351.748 18.0227 350.02 21.7014 347.234 24.3024C353.048 32.1799 368 35.3198 368 35.3198L364.007 40.7449L341.384 40.6148C343.055 41.9153 344.634 43.3273 346.064 44.8694C352.825 52.0595 356.949 61.7391 356.893 72.3849C356.837 83.0306 352.287 93.3977 344.987 100.588L344.876 119.873L344.727 148.93L349.612 153.872H345.08C335.644 153.798 327.769 146.236 327.806 136.798C327.825 129.162 332.877 122.734 339.805 120.616L337.687 106.273C331.614 109.97 324.463 112.07 316.829 112.032C304.422 111.958 293.389 106.236 286.126 97.3179C283.359 93.9179 279.384 91.707 275.019 91.0939C274.945 91.0939 274.889 91.0753 274.815 91.0568C268.927 90.2021 262.983 92.3201 259.064 96.7977L237.927 120.82L237.779 148.8L242.664 153.742H238.15C227.303 153.668 218.109 144.731 218.239 133.881C218.35 124.165 225.501 116.157 234.825 114.708M338.746 29.7461C340.604 29.7461 342.127 28.2598 342.127 26.4019C342.127 24.544 340.641 23.0205 338.765 23.0205C336.889 23.0205 335.384 24.5068 335.384 26.3647C335.384 28.2226 336.87 29.7461 338.728 29.7461" fill="#192041"/>
<rect x="269.99" y="154.2" width="120.846" height="54.821" rx="14.8057" fill="#F7BACD" stroke="#161345" stroke-width="2.40092"/>
<path d="M280.06 176.2C280.06 175.605 280.367 175.163 280.982 175.163C281.597 175.163 281.904 175.605 281.904 176.2V186.918H287.897C288.492 186.918 288.876 187.148 288.876 187.763C288.876 188.378 288.492 188.608 287.897 188.608H281.097C280.502 188.608 280.06 188.166 280.06 187.571V176.2ZM298.04 175.163C298.636 175.163 299.078 175.393 299.078 176.008C299.078 176.623 298.636 176.853 298.04 176.853H296.004V186.918H298.04C298.636 186.918 299.078 187.148 299.078 187.763C299.078 188.378 298.636 188.608 298.04 188.608H292.124C291.529 188.608 291.087 188.378 291.087 187.763C291.087 187.148 291.529 186.918 292.124 186.918H294.16V176.853H292.124C291.529 176.853 291.087 176.623 291.087 176.008C291.087 175.393 291.529 175.163 292.124 175.163H298.04ZM302.019 181.886C302.019 177.66 304.054 174.971 307.55 174.971C309.202 174.971 310.451 175.317 311.757 176.642C312.006 176.892 312.102 177.161 312.102 177.391C312.102 177.91 311.622 178.332 311.142 178.332C310.912 178.332 310.7 178.236 310.508 178.025C309.644 177.045 308.703 176.661 307.55 176.661C304.88 176.661 303.901 179.312 303.901 181.886C303.901 184.459 304.88 187.11 307.55 187.11C308.703 187.11 309.644 186.726 310.508 185.746C310.7 185.535 310.912 185.439 311.142 185.439C311.622 185.439 312.102 185.862 312.102 186.38C312.102 186.611 312.006 186.879 311.757 187.129C310.451 188.454 309.202 188.8 307.55 188.8C304.054 188.8 302.019 186.111 302.019 181.886ZM322.016 188.128L318.097 181.828L316.157 184.133V187.571C316.157 188.186 315.831 188.608 315.235 188.608C314.64 188.608 314.313 188.186 314.313 187.571V176.2C314.313 175.643 314.678 175.163 315.235 175.163C315.792 175.163 316.157 175.643 316.157 176.2V181.482L320.882 175.547C321.094 175.278 321.343 175.163 321.651 175.163C322.15 175.163 322.515 175.49 322.515 175.97C322.515 176.239 322.419 176.488 322.169 176.796L319.25 180.368L323.61 187.072C323.706 187.244 323.763 187.417 323.763 187.609C323.763 188.166 323.36 188.608 322.88 188.608C322.534 188.608 322.208 188.435 322.016 188.128ZM326.551 182.02H334.291C334.887 182.02 335.271 182.212 335.271 182.827C335.271 183.441 334.887 183.633 334.291 183.633H326.551C325.955 183.633 325.571 183.441 325.571 182.827C325.571 182.212 325.955 182.02 326.551 182.02ZM337.098 186.322C336.944 186.073 336.867 185.842 336.867 185.631C336.867 185.093 337.232 184.69 337.789 184.69C338.135 184.69 338.404 184.844 338.634 185.208C339.422 186.495 340.267 187.11 342.13 187.11C343.974 187.11 344.992 186.361 344.992 184.882C344.992 181.367 337.367 183.48 337.367 178.832C337.367 176.2 339.595 174.971 341.977 174.971C343.955 174.971 345.28 175.662 346.106 177.045C346.279 177.333 346.356 177.602 346.356 177.833C346.356 178.447 345.914 178.793 345.415 178.793C345.069 178.793 344.781 178.62 344.589 178.236C344.051 177.103 343.263 176.661 341.977 176.661C340.382 176.661 339.211 177.276 339.211 178.832C339.211 181.521 346.836 179.926 346.836 184.844C346.836 187.494 344.512 188.8 342.13 188.8C340.017 188.8 338.231 188.07 337.098 186.322ZM354.675 175.989L358.958 187.244C359.016 187.417 359.035 187.552 359.035 187.686C359.035 188.243 358.67 188.608 358.113 188.608C357.729 188.608 357.441 188.416 357.268 187.974L356 184.747H351.698L350.43 187.974C350.257 188.416 349.969 188.608 349.585 188.608C349.028 188.608 348.663 188.243 348.663 187.686C348.663 187.552 348.682 187.417 348.74 187.244L353.023 175.989C353.177 175.605 353.35 175.163 353.849 175.163C354.348 175.163 354.521 175.605 354.675 175.989ZM353.849 178.678L352.332 183.057H355.366L353.849 178.678ZM362.072 175.163H369.044C369.62 175.163 370.043 175.374 370.043 176.008C370.043 176.642 369.62 176.853 369.044 176.853H362.879V181.021L367.469 181.021C368.045 181.021 368.43 181.233 368.43 181.866C368.43 182.5 368.045 182.711 367.469 182.711L362.879 182.711V187.571C362.879 188.166 362.591 188.608 361.995 188.608C361.4 188.608 361.035 188.166 361.035 187.571V176.2C361.035 175.624 361.477 175.163 362.072 175.163ZM373.791 175.163H380.59C381.166 175.163 381.589 175.374 381.589 176.008C381.589 176.642 381.166 176.853 380.59 176.853H374.597V180.848H379.015C379.591 180.848 379.975 181.06 379.975 181.694C379.975 182.327 379.591 182.539 379.015 182.539H374.597V186.918H380.878C381.454 186.918 381.896 187.129 381.896 187.763C381.896 188.397 381.454 188.608 380.878 188.608H373.791C373.195 188.608 372.754 188.166 372.754 187.571V176.2C372.754 175.624 373.195 175.163 373.791 175.163Z" fill="#161345"/>
<rect x="135.595" y="154.2" width="120.846" height="54.821" rx="14.8057" fill="#F7BACD" stroke="#161345" stroke-width="2.40092"/>
<path d="M179.578 176.16H182.055C182.651 176.16 183.093 176.333 183.093 176.948C183.093 177.562 182.651 177.735 182.055 177.735H175.371C174.776 177.735 174.334 177.562 174.334 176.948C174.334 176.333 174.776 176.16 175.371 176.16H177.811V166.902L175.775 168.189C175.486 168.381 175.256 168.477 175.025 168.477C174.545 168.477 174.2 168.112 174.2 167.632C174.2 167.287 174.334 166.998 174.68 166.768L178.041 164.578C178.272 164.405 178.483 164.29 178.733 164.29C178.867 164.29 179.001 164.309 179.136 164.367C179.501 164.521 179.578 164.886 179.578 165.308V176.16ZM185.649 173.433V168.593C185.649 166.019 187.109 164.098 189.933 164.098C192.756 164.098 194.216 166.019 194.216 168.593V173.433C194.216 176.007 192.756 177.927 189.933 177.927C187.109 177.927 185.649 176.007 185.649 173.433ZM189.933 176.352C191.815 176.352 192.449 175.142 192.449 173.587V169.13L187.666 175.027C187.993 175.834 188.684 176.352 189.933 176.352ZM189.933 165.673C188.05 165.673 187.416 166.883 187.416 168.439V172.818L192.18 166.96C191.853 166.192 191.143 165.673 189.933 165.673ZM197.368 173.433V168.593C197.368 166.019 198.828 164.098 201.651 164.098C204.475 164.098 205.935 166.019 205.935 168.593V173.433C205.935 176.007 204.475 177.927 201.651 177.927C198.828 177.927 197.368 176.007 197.368 173.433ZM201.651 176.352C203.534 176.352 204.168 175.142 204.168 173.587V169.13L199.385 175.027C199.711 175.834 200.403 176.352 201.651 176.352ZM201.651 165.673C199.769 165.673 199.135 166.883 199.135 168.439V172.818L203.899 166.96C203.572 166.192 202.861 165.673 201.651 165.673ZM207.781 167.094C207.781 165.385 208.991 164.098 210.777 164.098C212.583 164.098 213.812 165.385 213.812 167.094C213.812 168.785 212.583 170.052 210.777 170.052C208.991 170.052 207.781 168.785 207.781 167.094ZM209.183 167.094C209.183 168.093 209.778 168.823 210.777 168.823C211.795 168.823 212.41 168.093 212.41 167.094C212.41 166.076 211.795 165.327 210.777 165.327C209.778 165.327 209.183 166.076 209.183 167.094ZM212.967 174.969C212.967 173.26 214.177 171.973 215.963 171.973C217.769 171.973 218.998 173.26 218.998 174.969C218.998 176.66 217.769 177.927 215.963 177.927C214.177 177.927 212.967 176.66 212.967 174.969ZM214.369 174.969C214.369 175.968 214.964 176.698 215.963 176.698C216.981 176.698 217.596 175.968 217.596 174.969C217.596 173.952 216.981 173.202 215.963 173.202C214.964 173.202 214.369 173.952 214.369 174.969ZM208.895 173.394L216.962 167.767C217.116 167.651 217.269 167.594 217.404 167.594C217.749 167.594 217.999 167.94 217.999 168.228C217.999 168.458 217.903 168.65 217.653 168.823L209.586 174.451C209.433 174.566 209.279 174.624 209.145 174.624C208.78 174.624 208.549 174.278 208.549 173.971C208.549 173.779 208.645 173.567 208.895 173.394ZM155.949 194.698V183.308C155.988 182.732 156.276 182.29 156.833 182.29C157.159 182.29 157.467 182.444 157.678 182.713L163.44 191.836V183.327C163.44 182.751 163.786 182.29 164.343 182.29C164.919 182.29 165.284 182.751 165.284 183.327V194.717C165.284 195.255 164.9 195.735 164.362 195.735C164.036 195.735 163.709 195.582 163.498 195.313L157.793 186.189V194.698C157.793 195.274 157.428 195.735 156.871 195.735C156.295 195.735 155.949 195.274 155.949 194.698ZM173.161 183.116L177.444 194.372C177.502 194.544 177.521 194.679 177.521 194.813C177.521 195.37 177.156 195.735 176.599 195.735C176.215 195.735 175.927 195.543 175.754 195.102L174.487 191.875H170.184L168.916 195.102C168.744 195.543 168.455 195.735 168.071 195.735C167.514 195.735 167.149 195.37 167.149 194.813C167.149 194.679 167.169 194.544 167.226 194.372L171.509 183.116C171.663 182.732 171.836 182.29 172.335 182.29C172.835 182.29 173.008 182.732 173.161 183.116ZM172.335 185.805L170.818 190.184H173.853L172.335 185.805ZM179.656 182.29H188.453C189.048 182.29 189.49 182.521 189.49 183.135C189.49 183.75 189.048 183.98 188.453 183.98H184.976V194.698C184.976 195.274 184.669 195.735 184.054 195.735C183.439 195.735 183.132 195.274 183.132 194.698V183.98H179.656C179.06 183.98 178.618 183.75 178.618 183.135C178.618 182.521 179.06 182.29 179.656 182.29ZM191.009 190.837V183.327C191.009 182.751 191.374 182.29 191.951 182.29C192.508 182.29 192.853 182.751 192.853 183.327V190.78C192.853 193.277 194.006 194.237 195.907 194.237C197.79 194.237 198.923 193.277 198.923 190.78V183.327C198.923 182.751 199.269 182.29 199.845 182.29C200.421 182.29 200.767 182.751 200.767 183.327V190.78C200.767 193.795 199.076 195.927 195.907 195.927C192.719 195.927 191.009 193.795 191.009 190.837ZM204.322 182.29H208.106C210.93 182.29 212.466 183.98 212.466 186.381C212.466 188.206 211.487 189.551 209.912 190.146L212.466 194.064C212.62 194.295 212.697 194.544 212.697 194.756C212.697 195.409 212.255 195.735 211.717 195.735C211.429 195.735 211.16 195.601 210.949 195.274L207.933 190.396H205.11V194.698C205.11 195.294 204.764 195.735 204.188 195.735C203.573 195.735 203.266 195.294 203.266 194.698V183.327C203.266 182.77 203.765 182.309 204.322 182.29ZM208.221 183.98H205.11V188.705H208.221C209.835 188.705 210.622 187.803 210.622 186.381C210.622 184.922 209.835 183.98 208.221 183.98ZM220.036 183.116L224.319 194.372C224.377 194.544 224.396 194.679 224.396 194.813C224.396 195.37 224.031 195.735 223.474 195.735C223.09 195.735 222.802 195.543 222.629 195.102L221.362 191.875H217.059L215.791 195.102C215.619 195.543 215.33 195.735 214.946 195.735C214.389 195.735 214.024 195.37 214.024 194.813C214.024 194.679 214.044 194.544 214.101 194.372L218.384 183.116C218.538 182.732 218.711 182.29 219.21 182.29C219.71 182.29 219.883 182.732 220.036 183.116ZM219.21 185.805L217.693 190.184H220.728L219.21 185.805ZM227.452 183.327C227.452 182.732 227.76 182.29 228.374 182.29C228.989 182.29 229.296 182.732 229.296 183.327V194.045H235.289C235.885 194.045 236.269 194.276 236.269 194.89C236.269 195.505 235.885 195.735 235.289 195.735H228.49C227.894 195.735 227.452 195.294 227.452 194.698V183.327Z" fill="#161345"/>
<rect x="1.20046" y="154.2" width="120.846" height="54.821" rx="14.8057" fill="#F7BACD" stroke="#161345" stroke-width="2.40092"/>
<path d="M21.1346 172.682C21.1346 168.457 23.1706 165.768 26.6663 165.768C28.3182 165.768 29.5667 166.113 30.8728 167.439C31.1225 167.688 31.2185 167.957 31.2185 168.188C31.2185 168.706 30.7383 169.129 30.2581 169.129C30.0276 169.129 29.8164 169.033 29.6243 168.822C28.76 167.842 27.8188 167.458 26.6663 167.458C23.9965 167.458 23.0169 170.108 23.0169 172.682C23.0169 175.256 23.9965 177.907 26.6663 177.907C27.8188 177.907 28.76 177.522 29.6243 176.543C29.8164 176.332 30.0276 176.236 30.2581 176.236C30.7383 176.236 31.2185 176.658 31.2185 177.177C31.2185 177.407 31.1225 177.676 30.8728 177.926C29.5667 179.251 28.3182 179.597 26.6663 179.597C23.1706 179.597 21.1346 176.908 21.1346 172.682ZM34.8317 165.96H38.6156C41.4391 165.96 42.9756 167.65 42.9756 170.051C42.9756 171.875 41.9961 173.22 40.4211 173.815L42.9756 177.734C43.1293 177.964 43.2061 178.214 43.2061 178.425C43.2061 179.078 42.7644 179.405 42.2266 179.405C41.9384 179.405 41.6695 179.27 41.4583 178.944L38.4427 174.065H35.6192V178.368C35.6192 178.963 35.2735 179.405 34.6973 179.405C34.0826 179.405 33.7753 178.963 33.7753 178.368V166.997C33.7753 166.44 34.2747 165.979 34.8317 165.96ZM38.7308 167.65H35.6192V172.375H38.7308C40.3442 172.375 41.1317 171.472 41.1317 170.051C41.1317 168.591 40.3442 167.65 38.7308 167.65ZM45.1483 174.507V166.997C45.1483 166.421 45.5133 165.96 46.0895 165.96C46.6465 165.96 46.9922 166.421 46.9922 166.997V174.449C46.9922 176.946 48.1447 177.907 50.0462 177.907C51.9285 177.907 53.0618 176.946 53.0618 174.449V166.997C53.0618 166.421 53.4075 165.96 53.9837 165.96C54.5599 165.96 54.9057 166.421 54.9057 166.997V174.449C54.9057 177.465 53.2154 179.597 50.0462 179.597C46.8578 179.597 45.1483 177.465 45.1483 174.507ZM58.3268 165.96H65.1262C65.7025 165.96 66.125 166.171 66.125 166.805C66.125 167.439 65.7025 167.65 65.1262 167.65H59.1335V171.645H63.5512C64.1275 171.645 64.5116 171.856 64.5116 172.49C64.5116 173.124 64.1275 173.335 63.5512 173.335H59.1335V177.715H65.4143C65.9906 177.715 66.4323 177.926 66.4323 178.56C66.4323 179.194 65.9906 179.405 65.4143 179.405H58.3268C57.7314 179.405 57.2896 178.963 57.2896 178.368V166.997C57.2896 166.421 57.7314 165.96 58.3268 165.96ZM70.2568 166.997C70.2568 166.401 70.5642 165.96 71.1788 165.96C71.7934 165.96 72.1008 166.401 72.1008 166.997V177.715H78.0935C78.6889 177.715 79.073 177.945 79.073 178.56C79.073 179.174 78.6889 179.405 78.0935 179.405H71.294C70.6986 179.405 70.2568 178.963 70.2568 178.368V166.997ZM81.2457 165.96H90.0427C90.6381 165.96 91.0799 166.19 91.0799 166.805C91.0799 167.419 90.6381 167.65 90.0427 167.65H86.5661V178.368C86.5661 178.944 86.2588 179.405 85.6442 179.405C85.0296 179.405 84.7222 178.944 84.7222 178.368V167.65H81.2457C80.6503 167.65 80.2085 167.419 80.2085 166.805C80.2085 166.19 80.6503 165.96 81.2457 165.96ZM96.6331 178.406V173.527L92.6379 167.515C92.5035 167.343 92.4651 167.131 92.4651 166.92C92.4651 166.613 92.6187 166.305 92.8876 166.113C93.0605 165.998 93.2526 165.979 93.4446 165.979C93.7519 165.979 94.0593 166.094 94.2513 166.382L97.555 171.607L100.859 166.382C101.051 166.113 101.358 165.96 101.665 165.96C101.877 165.96 102.069 166.017 102.261 166.152C102.53 166.344 102.645 166.613 102.645 166.92C102.645 167.112 102.587 167.343 102.472 167.515L98.477 173.527V178.406C98.477 178.963 98.112 179.405 97.555 179.405C96.998 179.405 96.6331 178.963 96.6331 178.406ZM40.4606 183.96H47.4329C48.0091 183.96 48.4317 184.171 48.4317 184.805C48.4317 185.439 48.0091 185.65 47.4329 185.65H41.2673V189.818H45.8579C46.4341 189.818 46.8182 190.029 46.8182 190.663C46.8182 191.297 46.4341 191.508 45.8579 191.508H41.2673V196.368C41.2673 196.963 40.9792 197.405 40.3838 197.405C39.7884 197.405 39.4234 196.963 39.4234 196.368V184.997C39.4234 184.421 39.8652 183.96 40.4606 183.96ZM52.6979 183.96H56.4818C59.3053 183.96 60.8419 185.65 60.8419 188.051C60.8419 189.875 59.8623 191.22 58.2873 191.815L60.8419 195.734C60.9955 195.964 61.0724 196.214 61.0724 196.425C61.0724 197.078 60.6306 197.405 60.0928 197.405C59.8047 197.405 59.5358 197.27 59.3245 196.944L56.3089 192.065H53.4854V196.368C53.4854 196.963 53.1397 197.405 52.5635 197.405C51.9489 197.405 51.6415 196.963 51.6415 196.368L51.6415 184.997C51.6415 184.44 52.1409 183.979 52.6979 183.96ZM56.597 185.65H53.4854L53.4854 190.375H56.597C58.2105 190.375 58.998 189.472 58.998 188.051C58.998 186.591 58.2105 185.65 56.597 185.65ZM64.2822 183.96H71.0816C71.6579 183.96 72.0804 184.171 72.0804 184.805C72.0804 185.439 71.6579 185.65 71.0816 185.65H65.0889V189.645H69.5066C70.0829 189.645 70.467 189.856 70.467 190.49C70.467 191.124 70.0829 191.335 69.5066 191.335H65.0889V195.715H71.3698C71.946 195.715 72.3877 195.926 72.3877 196.56C72.3877 197.194 71.946 197.405 71.3698 197.405H64.2822C63.6868 197.405 63.245 196.963 63.245 196.368L63.245 184.997C63.245 184.421 63.6868 183.96 64.2822 183.96ZM76.193 183.96H82.9925C83.5687 183.96 83.9912 184.171 83.9912 184.805C83.9912 185.439 83.5687 185.65 82.9925 185.65H76.9998V189.645H81.4174C81.9937 189.645 82.3778 189.856 82.3778 190.49C82.3778 191.124 81.9937 191.335 81.4174 191.335H76.9998V195.715H83.2806C83.8568 195.715 84.2986 195.926 84.2986 196.56C84.2986 197.194 83.8568 197.405 83.2806 197.405H76.193C75.5976 197.405 75.1558 196.963 75.1558 196.368V184.997C75.1558 184.421 75.5976 183.96 76.193 183.96Z" fill="#161345"/>
<path d="M93.7764 187.921H94.2245L94.4397 187.528C95.4519 185.68 96.6341 185.046 97.5321 185.012C98.4237 184.977 99.2871 185.521 99.7494 186.578C100.64 188.613 99.9747 192.795 93.7727 196.961C87.5708 192.795 86.9059 188.613 87.796 186.578C88.2583 185.521 89.1217 184.977 90.0134 185.012C90.9114 185.046 92.0935 185.68 93.1058 187.528L93.321 187.921H93.769H93.7764Z" stroke="#161345" stroke-width="1.5123" stroke-miterlimit="10"/>
</svg>
