<svg width="130" height="88" viewBox="0 0 130 88" fill="none" xmlns="http://www.w3.org/2000/svg">
<g clip-path="url(#clip0)">
<path d="M94.5 54.4001C94.2 60.9001 92.7 69 88.2 76.7C100.4 79.1 129.6 81.9 129.6 87.1H82.8H64.5C59.3 86.2 53 84.8001 47.4 82.4001C43.7 80.9001 40.6 78.7001 38.3 76.9001C36.5 79 34.3 80.8 31.8 82.1C31.8 82.2 50.6 83.6 50.4 87.1H0C0 87 0 62.5 0 62.5C0 50.3 9.7 40.3 21.8 40.3C30.5 40.3 38 45.5 41.5 53C42.1 53 42.7 53 43.2 53C43.5 53 43.9 53 44.2 53C52.7 52.9 60.4 49.8 66.4 44.6C71.4 48.1 77.1 50.8 83.2 52.5C86.9 53.5 90.7 54.1001 94.5 54.4001Z" fill="#FF7F00"/>
<path d="M69.4 41.6C75.1 35.4 78.6 27.1 78.6 18V0C78.6 0 86.1 7.3 90.6 19.3C90.6 19.3 104.3 16.8 110.7 27.2C113.7 32.1 118.8 33.7 123.8 33.8V37.3C117.4 39.1 108 40.5 93.2 40.5C93.2 40.5 94.3 44.4 94.5 50.3C91.1 50.1 87.7 49.5 84.3 48.6C78.9 47 73.9 44.6 69.4 41.6ZM101.3 29.8C102.5 29.8 103.5 28.8 103.5 27.6C103.5 26.4 102.5 25.4 101.3 25.4C100.1 25.4 99.1 26.4 99.1 27.6C99.1 28.9 100.1 29.8 101.3 29.8Z" fill="#FF7F00"/>
</g>
<defs>
<clipPath id="clip0">
<rect width="129.5" height="87.1" fill="white"/>
</clipPath>
</defs>
</svg>
